{"glyphs":{"0":{"ha":694,"x_min":43,"x_max":651,"o":"m 651 369 q 571 120 651 228 q 347 0 483 0 q 123 120 211 0 q 43 369 43 228 q 123 618 43 510 q 347 738 211 738 q 571 618 483 738 q 651 369 651 510 m 564 369 q 509 556 564 473 q 347 651 446 651 q 186 556 248 651 q 130 369 130 473 q 186 182 130 265 q 347 87 248 87 q 509 182 446 87 q 564 369 564 265 m 391 369 q 378 338 391 351 q 347 325 365 325 q 316 338 329 325 q 303 369 303 351 q 347 411 303 411 q 391 369 391 411 z "},"1":{"ha":694,"x_min":115,"x_max":579,"o":"m 579 43 q 535 0 579 0 l 217 0 q 174 43 174 0 q 217 87 174 87 l 333 87 l 333 590 l 190 447 q 160 433 177 433 q 128 447 142 433 q 115 478 115 460 q 128 508 115 495 l 340 719 q 376 738 359 738 q 420 686 420 738 l 420 87 l 535 87 q 579 43 579 87 z "},"2":{"ha":694,"x_min":80,"x_max":608,"o":"m 608 477 q 547 311 608 387 q 410 189 503 254 q 259 87 334 138 l 564 87 q 608 43 608 87 q 564 0 608 0 l 130 0 q 80 38 80 0 q 104 78 80 57 q 157 113 123 94 q 214 144 185 128 q 521 477 521 326 q 470 600 521 549 q 347 651 419 651 q 225 600 275 651 q 174 477 174 549 q 130 434 174 434 q 87 477 87 434 q 163 661 87 585 q 347 738 240 738 q 531 661 455 738 q 608 477 608 585 z "},"3":{"ha":694,"x_min":80,"x_max":619,"o":"m 619 701 q 600 663 619 681 l 350 433 q 537 345 461 427 q 613 152 613 263 q 531 -47 613 35 q 332 -130 448 -130 q 190 -92 258 -130 q 87 10 120 -53 q 80 34 80 23 q 94 64 80 51 q 126 76 108 76 q 162 54 146 76 q 332 -43 235 -43 q 469 14 412 -43 q 527 152 527 71 q 469 290 527 233 q 332 347 412 347 q 223 312 277 347 q 161 276 169 276 q 130 289 144 276 q 117 319 117 302 q 134 353 117 339 l 458 651 l 124 651 q 81 694 81 651 q 124 738 81 738 l 570 738 q 619 701 619 738 z "},"4":{"ha":694,"x_min":40,"x_max":651,"o":"m 651 174 q 608 130 651 130 l 477 130 l 477 -87 q 434 -130 477 -130 q 391 -87 391 -130 l 391 130 l 87 130 q 40 167 40 130 q 51 198 40 182 l 398 719 q 439 745 416 745 q 477 694 477 745 l 477 217 l 608 217 q 651 174 651 217 m 391 217 l 391 551 l 168 217 l 391 217 z "},"5":{"ha":694,"x_min":60,"x_max":634,"o":"m 634 174 q 545 -41 634 48 q 330 -130 455 -130 q 178 -89 251 -130 q 67 21 103 -47 q 60 45 60 34 q 74 75 60 62 q 105 87 88 87 q 142 65 126 87 q 168 29 150 53 q 330 -43 232 -43 q 483 20 420 -43 q 547 174 547 84 q 483 327 547 263 q 330 391 420 391 q 142 282 220 391 q 100 254 122 254 q 61 300 61 254 q 61 311 61 305 l 122 701 q 137 726 124 715 q 165 738 151 738 l 590 738 q 634 694 634 738 q 590 651 634 651 l 202 651 l 168 431 q 330 477 242 477 q 545 388 455 477 q 634 174 634 299 z "},"6":{"ha":694,"x_min":43,"x_max":651,"o":"m 651 825 q 608 781 651 781 q 388 727 491 781 q 217 578 284 674 q 347 608 278 608 q 562 519 473 608 q 651 304 651 429 q 562 89 651 178 q 347 0 473 0 q 133 89 222 0 q 43 304 43 178 q 209 703 43 537 q 608 868 374 868 q 651 825 651 868 m 564 304 q 501 457 564 394 q 347 521 437 521 q 194 457 258 521 q 130 304 130 394 q 194 150 130 214 q 347 87 258 87 q 501 150 437 87 q 564 304 564 214 z "},"7":{"ha":694,"x_min":43,"x_max":653,"o":"m 653 701 q 646 674 653 688 l 226 -107 q 189 -131 214 -131 q 158 -118 172 -131 q 144 -88 144 -105 q 150 -67 144 -77 l 535 651 l 87 651 q 43 694 43 651 q 87 738 43 738 l 608 738 q 653 701 653 738 z "},"8":{"ha":694,"x_min":87,"x_max":608,"o":"m 608 260 q 531 76 608 153 q 347 0 455 0 q 163 76 240 0 q 87 260 87 153 q 211 482 87 406 q 130 651 130 547 q 194 804 130 741 q 347 868 258 868 q 501 804 437 868 q 564 651 564 741 q 484 482 564 547 q 608 260 608 406 m 477 651 q 439 743 477 705 q 347 781 401 781 q 255 743 293 781 q 217 651 217 705 q 255 559 217 597 q 347 521 293 521 q 439 559 401 521 q 477 651 477 597 m 521 260 q 470 383 521 332 q 347 434 419 434 q 225 383 275 434 q 174 260 174 332 q 225 138 174 189 q 347 87 275 87 q 470 138 419 87 q 521 260 521 189 z "},"9":{"ha":694,"x_min":43,"x_max":651,"o":"m 651 434 q 486 35 651 201 q 87 -130 320 -130 q 43 -87 43 -130 q 87 -43 43 -43 q 307 10 203 -43 q 477 160 410 64 q 347 130 416 130 q 133 219 222 130 q 43 434 43 308 q 133 649 43 560 q 347 738 222 738 q 562 649 473 738 q 651 434 651 560 m 564 434 q 501 587 564 524 q 347 651 437 651 q 194 587 258 651 q 130 434 130 524 q 194 281 130 344 q 347 217 258 217 q 501 281 437 217 q 564 434 564 344 z "}," ":{"ha":694,"x_min":0,"x_max":0,"o":""},"!":{"ha":694,"x_min":281,"x_max":413,"o":"m 391 260 q 347 217 391 217 q 304 260 304 217 l 304 825 q 347 868 304 868 q 391 825 391 868 l 391 260 m 413 66 q 394 19 413 39 q 347 0 374 0 q 301 19 320 0 q 281 66 281 39 q 301 112 281 93 q 347 130 320 130 q 394 112 374 130 q 413 66 413 93 z "},"\"":{"ha":694,"x_min":152,"x_max":543,"o":"m 543 826 q 539 808 543 818 l 453 591 q 414 564 442 564 q 382 576 396 564 q 369 606 369 589 q 372 624 369 615 l 459 841 q 498 869 470 869 q 529 856 516 869 q 543 826 543 844 m 326 826 q 322 808 326 818 l 236 591 q 197 564 225 564 q 165 576 179 564 q 152 606 152 589 q 155 624 152 615 l 242 841 q 281 869 253 869 q 312 856 299 869 q 326 826 326 844 z "},"#":{"ha":694,"x_min":43,"x_max":651,"o":"m 651 217 q 608 174 651 174 l 535 174 l 535 43 q 492 0 535 0 q 448 43 448 0 l 448 174 l 246 174 l 246 43 q 203 0 246 0 q 159 43 159 0 l 159 174 l 87 174 q 43 217 43 174 q 87 260 43 260 l 159 260 l 159 608 l 87 608 q 43 651 43 608 q 87 694 43 694 l 159 694 l 159 825 q 203 868 159 868 q 246 825 246 868 l 246 694 l 448 694 l 448 825 q 492 868 448 868 q 535 825 535 868 l 535 694 l 608 694 q 651 651 651 694 q 608 608 651 608 l 535 608 l 535 260 l 608 260 q 651 217 651 260 m 448 260 l 448 608 l 246 608 l 246 260 l 448 260 z "},"$":{"ha":694,"x_min":43,"x_max":651,"o":"m 651 260 q 563 81 651 154 q 372 2 484 16 l 372 -130 q 329 -174 372 -174 q 285 -130 285 -174 l 285 2 q 155 41 217 10 q 52 126 84 75 q 43 153 43 141 q 56 183 43 170 q 88 196 70 196 q 121 179 104 196 q 147 150 134 165 q 285 90 200 101 l 285 437 q 132 504 195 450 q 62 651 62 564 q 132 798 62 738 q 285 865 195 852 l 285 998 q 329 1042 285 1042 q 372 998 372 1042 l 372 865 q 556 764 502 847 q 566 738 566 750 q 552 707 566 720 q 521 694 538 694 q 487 712 505 694 q 372 778 431 767 l 372 519 q 563 440 484 505 q 651 260 651 367 m 285 525 l 285 777 q 193 737 231 766 q 149 651 149 701 q 193 565 149 601 q 285 525 231 536 m 564 260 q 501 378 564 330 q 372 431 448 419 l 372 90 q 501 142 448 102 q 564 260 564 190 z "},"%":{"ha":694,"x_min":43,"x_max":652,"o":"m 362 651 q 323 508 362 571 q 203 434 277 434 q 82 508 128 434 q 43 651 43 571 q 82 794 43 731 q 203 868 128 868 q 323 794 277 868 q 362 651 362 731 m 652 825 q 644 800 652 813 l 123 19 q 88 -1 109 -1 q 57 12 71 -1 q 43 43 43 25 q 51 68 43 56 l 572 849 q 606 869 585 869 q 638 856 624 869 q 652 825 652 843 m 651 217 q 612 74 651 137 q 492 0 567 0 q 372 74 417 0 q 333 217 333 137 q 372 360 333 297 q 492 434 417 434 q 612 360 567 434 q 651 217 651 297 m 275 651 q 226 773 275 738 q 203 781 214 781 q 174 769 189 781 q 130 651 130 733 q 174 533 130 569 q 203 521 189 521 q 226 530 214 521 q 275 651 275 564 m 564 217 q 520 335 564 299 q 492 347 505 347 q 468 339 481 347 q 420 217 420 304 q 468 95 420 130 q 492 87 481 87 q 520 99 505 87 q 564 217 564 135 z "},"&":{"ha":694,"x_min":43,"x_max":652,"o":"m 652 43 q 638 13 652 26 q 607 -1 624 -1 q 575 14 589 -1 l 482 118 q 282 0 411 0 q 110 80 179 0 q 43 260 43 156 q 156 481 43 405 q 83 651 83 563 q 138 802 83 738 q 282 868 197 868 q 426 802 367 868 q 481 651 481 738 q 436 512 481 573 q 313 436 388 448 l 640 72 q 652 43 652 59 m 395 651 q 365 740 395 701 q 282 781 332 781 q 200 740 233 781 q 170 651 170 701 q 190 576 170 609 q 240 517 200 562 q 282 521 261 521 q 365 562 332 521 q 395 651 395 601 m 420 188 l 215 416 q 130 260 130 367 q 172 142 130 193 q 282 87 216 87 q 420 188 379 87 z "},"'":{"ha":694,"x_min":260,"x_max":435,"o":"m 435 826 q 431 808 435 818 l 344 591 q 305 564 333 564 q 274 576 288 564 q 260 606 260 589 q 263 624 260 615 l 350 841 q 389 869 361 869 q 421 856 407 869 q 435 826 435 844 z "},"(":{"ha":694,"x_min":234,"x_max":461,"o":"m 461 825 q 454 803 461 815 q 355 562 385 666 q 321 304 321 442 q 355 46 321 166 q 454 -194 385 -58 q 461 -218 461 -207 q 447 -248 461 -235 q 416 -260 433 -260 q 367 -220 391 -260 q 338 -159 363 -212 q 234 304 234 63 q 338 767 234 545 q 367 829 363 820 q 416 868 391 868 q 447 855 433 868 q 461 825 461 843 z "},")":{"ha":694,"x_min":234,"x_max":460,"o":"m 460 304 q 357 -159 460 63 q 327 -220 332 -212 q 279 -260 303 -260 q 248 -248 262 -260 q 234 -218 234 -235 q 240 -194 234 -208 q 339 46 310 -58 q 373 304 373 166 q 339 562 373 442 q 240 803 310 666 q 234 825 234 815 q 248 855 234 843 q 279 868 262 868 q 327 829 303 868 q 356 767 332 820 q 460 304 460 545 z "},"*":{"ha":694,"x_min":43,"x_max":651,"o":"m 651 564 q 612 521 651 521 q 426 532 609 521 l 562 411 q 576 380 576 399 q 562 349 576 363 q 531 336 549 336 q 501 350 513 336 l 380 486 q 391 300 391 303 q 347 260 391 260 q 304 300 304 260 q 315 486 304 303 l 194 350 q 163 336 182 336 q 132 349 146 336 q 119 380 119 363 q 133 411 119 399 l 269 532 q 83 521 86 521 q 43 564 43 521 q 83 608 43 608 q 269 597 86 608 l 133 718 q 119 748 119 730 q 132 779 119 766 q 163 793 146 793 q 194 779 182 793 l 315 643 q 304 829 304 826 q 347 868 304 868 q 391 829 391 868 q 380 643 391 826 l 501 779 q 531 793 513 793 q 562 779 549 793 q 576 748 576 766 q 562 718 576 730 l 426 597 q 612 608 609 608 q 651 564 651 608 z "},"+":{"ha":694,"x_min":43,"x_max":651,"o":"m 651 369 q 608 326 651 326 l 391 326 l 391 109 q 347 65 391 65 q 304 109 304 65 l 304 326 l 87 326 q 43 369 43 326 q 87 413 43 413 l 304 413 l 304 630 q 347 672 304 672 q 391 630 391 672 l 391 413 l 608 413 q 651 369 651 413 z "},",":{"ha":694,"x_min":264,"x_max":429,"o":"m 429 43 q 340 -172 429 -90 q 309 -185 325 -185 q 278 -172 292 -185 q 264 -141 264 -159 q 278 -111 264 -126 q 342 43 342 -37 q 385 87 342 87 q 429 43 429 87 z "},"-":{"ha":694,"x_min":174,"x_max":521,"o":"m 521 304 q 477 260 521 260 l 217 260 q 174 304 174 260 q 217 347 174 347 l 477 347 q 521 304 521 347 z "},".":{"ha":694,"x_min":281,"x_max":413,"o":"m 413 66 q 394 19 413 39 q 347 0 374 0 q 301 19 320 0 q 281 66 281 39 q 301 112 281 93 q 347 130 320 130 q 394 112 374 130 q 413 66 413 93 z "},"/":{"ha":694,"x_min":43,"x_max":652,"o":"m 652 826 q 646 805 652 815 l 126 -237 q 88 -262 113 -262 q 57 -249 71 -262 q 43 -219 43 -237 q 48 -198 43 -208 l 569 844 q 606 869 581 869 q 638 856 624 869 q 652 826 652 844 z "},":":{"ha":694,"x_min":281,"x_max":413,"o":"m 413 543 q 394 497 413 516 q 347 477 374 477 q 301 497 320 477 q 281 543 281 516 q 301 589 281 571 q 347 608 320 608 q 394 589 374 608 q 413 543 413 571 m 413 66 q 394 19 413 39 q 347 0 374 0 q 301 19 320 0 q 281 66 281 39 q 301 112 281 93 q 347 130 320 130 q 394 112 374 130 q 413 66 413 93 z "},";":{"ha":694,"x_min":254,"x_max":440,"o":"m 440 543 q 421 497 440 516 q 374 477 402 477 q 328 497 348 477 q 308 543 308 516 q 328 589 308 571 q 374 608 347 608 q 421 589 402 608 q 440 543 440 571 m 418 43 q 329 -172 418 -90 q 299 -185 314 -185 q 267 -172 281 -185 q 254 -141 254 -159 q 267 -111 254 -126 q 331 43 331 -37 q 374 87 331 87 q 418 43 418 87 z "},"<":{"ha":694,"x_min":43,"x_max":652,"o":"m 652 110 q 639 78 652 92 q 609 64 627 64 q 588 69 598 64 l 75 326 q 43 369 43 343 q 75 411 43 395 l 588 668 q 609 674 598 674 q 639 660 627 674 q 652 628 652 646 q 627 590 652 603 l 184 369 l 627 148 q 652 110 652 135 z "},"=":{"ha":694,"x_min":43,"x_max":651,"o":"m 651 499 q 608 456 651 456 l 87 456 q 43 499 43 456 q 87 543 43 543 l 608 543 q 651 499 651 543 m 651 239 q 608 196 651 196 l 87 196 q 43 239 43 196 q 87 282 43 282 l 608 282 q 651 239 651 282 z "},">":{"ha":694,"x_min":43,"x_max":652,"o":"m 652 369 q 620 326 652 343 l 106 69 q 86 64 96 64 q 55 78 68 64 q 43 110 43 92 q 67 148 43 135 l 510 369 l 67 590 q 43 628 43 603 q 55 660 43 646 q 86 674 68 674 q 106 668 96 674 l 620 411 q 652 369 652 395 z "},"?":{"ha":694,"x_min":43,"x_max":651,"o":"m 651 651 q 546 487 651 549 q 347 434 457 434 q 236 390 269 434 q 228 369 228 379 q 244 339 228 355 q 347 304 278 304 q 394 311 366 304 q 431 319 422 319 q 460 305 448 319 q 473 274 473 292 q 347 217 473 217 q 211 254 271 217 q 141 369 141 297 q 211 484 141 440 q 347 521 271 521 q 547 602 490 521 q 564 651 564 627 q 547 700 564 675 q 347 781 490 781 q 148 700 204 781 q 130 651 130 675 q 87 608 130 608 q 43 651 43 608 q 148 815 43 753 q 347 868 237 868 q 546 815 457 868 q 651 651 651 753 m 413 66 q 394 19 413 39 q 347 0 374 0 q 301 19 320 0 q 281 66 281 39 q 301 112 281 93 q 347 130 320 130 q 394 112 374 130 q 413 66 413 93 z "},"@":{"ha":694,"x_min":43,"x_max":651,"o":"m 651 535 q 583 312 651 410 q 386 203 506 203 q 247 278 302 203 q 198 434 198 346 q 247 590 198 522 q 386 666 302 666 q 500 618 451 666 q 563 509 545 575 q 564 535 564 522 q 520 696 564 623 q 386 781 468 781 q 238 716 304 781 q 152 574 179 659 q 130 434 130 508 q 152 294 130 360 q 238 152 179 209 q 386 87 304 87 q 533 150 466 87 q 564 185 543 161 q 597 203 580 203 q 628 189 615 203 q 642 159 642 176 q 633 132 642 145 q 524 37 590 72 q 386 0 457 0 q 131 144 230 0 q 43 434 43 271 q 131 725 43 597 q 386 868 230 868 q 583 759 506 868 q 651 535 651 661 m 487 434 q 462 528 487 484 q 386 579 433 579 q 310 528 339 579 q 285 434 285 484 q 310 340 285 384 q 386 289 339 289 q 462 340 433 289 q 487 434 487 384 z "},"A":{"ha":694,"x_min":43,"x_max":652,"o":"m 652 42 q 606 0 652 0 q 567 30 576 0 l 490 260 l 205 260 l 128 30 q 88 0 118 0 q 43 42 43 0 q 46 57 43 49 l 304 832 q 347 868 316 868 q 391 832 378 868 l 649 57 q 652 42 652 49 m 461 347 l 347 688 l 234 347 l 461 347 z "},"B":{"ha":694,"x_min":101,"x_max":651,"o":"m 651 260 q 575 76 651 152 q 390 -1 498 -1 l 145 0 q 114 13 127 0 q 101 43 101 26 l 101 825 q 114 855 101 842 q 145 868 127 868 l 391 868 q 544 804 480 868 q 608 651 608 741 q 527 482 608 547 q 651 260 651 406 m 521 651 q 483 743 521 705 q 391 781 444 781 l 188 781 l 188 521 l 391 521 q 483 559 444 521 q 521 651 521 597 m 564 260 q 513 383 564 332 q 391 434 462 434 l 188 434 l 188 87 l 391 86 q 513 137 462 86 q 564 260 564 188 z "},"C":{"ha":694,"x_min":43,"x_max":652,"o":"m 652 158 q 642 131 652 145 q 532 36 601 73 q 392 0 463 0 q 134 142 235 0 q 43 434 43 270 q 134 726 43 598 q 392 868 235 868 q 532 832 463 868 q 642 737 601 795 q 652 710 652 723 q 638 679 652 693 q 606 666 624 666 q 580 677 595 666 q 562 697 565 688 q 550 711 561 698 q 392 781 479 781 q 244 719 311 781 q 155 582 185 665 q 130 434 130 513 q 155 286 130 355 q 244 149 185 203 q 392 87 311 87 q 550 157 479 87 q 562 170 555 161 q 580 190 563 179 q 606 202 597 202 q 638 189 624 202 q 652 158 652 175 z "},"D":{"ha":694,"x_min":101,"x_max":651,"o":"m 651 434 q 524 127 651 255 q 217 0 396 0 l 145 0 q 114 13 127 0 q 101 43 101 26 l 101 825 q 114 855 101 842 q 145 868 127 868 l 217 868 q 524 741 396 868 q 651 434 651 613 m 564 434 q 462 679 564 578 q 217 781 361 781 l 188 781 l 188 87 l 217 87 q 462 189 361 87 q 564 434 564 291 z "},"E":{"ha":694,"x_min":101,"x_max":651,"o":"m 651 43 q 608 0 651 0 l 145 0 q 114 13 127 0 q 101 43 101 26 l 101 825 q 114 855 101 842 q 145 868 127 868 l 608 868 q 651 825 651 868 q 608 781 651 781 l 188 781 l 188 477 l 608 477 q 651 434 651 477 q 608 391 651 391 l 188 391 l 188 87 l 608 87 q 651 43 651 87 z "},"F":{"ha":694,"x_min":101,"x_max":651,"o":"m 651 434 q 608 391 651 391 l 188 391 l 188 43 q 145 0 188 0 q 101 43 101 0 l 101 825 q 144 868 101 868 l 608 868 q 651 825 651 868 q 608 781 651 781 l 188 781 l 188 477 l 608 477 q 651 434 651 477 z "},"G":{"ha":694,"x_min":43,"x_max":623,"o":"m 623 710 q 609 679 623 693 q 578 666 595 666 q 544 685 560 666 q 520 714 536 694 q 375 781 454 781 q 232 715 296 781 q 151 575 177 658 q 130 434 130 509 q 151 293 130 359 q 232 153 177 210 q 375 87 296 87 q 535 172 466 87 l 535 434 q 579 477 535 477 q 622 434 622 477 l 622 157 q 526 46 622 98 q 375 0 441 0 q 127 146 223 0 q 43 434 43 273 q 127 722 43 595 q 375 868 223 868 q 510 831 444 868 q 613 736 574 795 q 623 710 623 723 z "},"H":{"ha":694,"x_min":101,"x_max":593,"o":"m 593 43 q 550 0 593 0 q 506 43 506 0 l 506 391 l 188 391 l 188 43 q 145 0 188 0 q 101 43 101 0 l 101 825 q 145 868 101 868 q 188 825 188 868 l 188 477 l 506 477 l 506 825 q 550 868 506 868 q 593 825 593 868 l 593 43 z "},"I":{"ha":694,"x_min":130,"x_max":564,"o":"m 564 43 q 521 0 564 0 l 174 0 q 130 43 130 0 q 174 87 130 87 l 304 87 l 304 781 l 174 781 q 130 825 130 781 q 174 868 130 868 l 521 868 q 564 825 564 868 q 521 781 564 781 l 391 781 l 391 87 l 521 87 q 564 43 564 87 z "},"J":{"ha":694,"x_min":43,"x_max":593,"o":"m 593 43 q 504 -171 593 -82 q 289 -260 415 -260 q 158 -230 223 -260 q 53 -148 89 -199 q 43 -120 43 -133 q 56 -89 43 -102 q 88 -76 70 -76 q 120 -93 104 -76 q 289 -174 203 -174 q 443 -110 379 -174 q 506 43 506 -46 l 506 781 l 87 781 q 43 825 43 781 q 87 868 43 868 l 550 868 q 593 825 593 868 l 593 43 z "},"K":{"ha":694,"x_min":101,"x_max":652,"o":"m 652 43 q 638 13 652 26 q 607 -1 625 -1 q 576 13 590 -1 l 200 404 q 188 426 189 416 l 188 43 q 145 0 188 0 q 101 43 101 0 l 101 825 q 145 868 101 868 q 188 825 188 868 l 188 442 q 200 464 190 454 l 576 855 q 607 869 590 869 q 638 855 625 869 q 652 825 652 842 q 639 795 652 808 l 292 434 l 639 73 q 652 43 652 60 m 193 414 q 188 427 189 420 l 188 426 q 193 414 188 422 m 198 406 q 191 417 195 410 q 198 406 194 411 z "},"L":{"ha":694,"x_min":101,"x_max":651,"o":"m 651 43 q 608 0 651 0 l 145 0 q 101 43 101 0 l 101 825 q 145 868 101 868 q 188 825 188 868 l 188 87 l 608 87 q 651 43 651 87 z "},"M":{"ha":694,"x_min":43,"x_max":651,"o":"m 651 42 q 607 0 651 0 q 565 38 569 0 l 490 598 l 391 212 q 347 174 381 174 q 304 212 314 174 l 204 598 l 130 38 q 87 0 125 0 q 43 42 43 0 q 44 49 43 46 l 148 825 q 191 868 153 868 q 234 830 225 868 l 347 391 l 460 830 q 502 868 470 868 q 547 825 542 868 l 650 49 q 651 42 651 46 z "},"N":{"ha":694,"x_min":101,"x_max":594,"o":"m 594 43 q 549 -1 594 -1 q 509 29 524 -1 l 188 646 l 188 43 q 145 0 188 0 q 101 43 101 0 l 101 825 q 146 869 101 869 q 186 839 171 869 l 506 222 l 506 825 q 550 868 506 868 q 593 825 593 868 l 594 43 z "},"O":{"ha":694,"x_min":43,"x_max":651,"o":"m 651 434 q 578 151 651 278 q 347 0 491 0 q 116 151 203 0 q 43 434 43 278 q 116 717 43 590 q 347 868 203 868 q 578 717 491 868 q 651 434 651 590 m 564 434 q 545 576 564 510 q 476 712 523 655 q 347 781 418 781 q 219 712 277 781 q 149 576 172 655 q 130 434 130 510 q 149 292 130 358 q 219 156 172 213 q 347 87 277 87 q 476 156 418 87 q 545 292 523 213 q 564 434 564 358 z "},"P":{"ha":694,"x_min":101,"x_max":651,"o":"m 651 608 q 575 424 651 500 q 391 347 498 347 l 188 347 l 188 43 q 145 0 188 0 q 101 43 101 0 l 101 825 q 114 855 101 842 q 145 868 127 868 l 391 868 q 575 792 498 868 q 651 608 651 715 m 564 608 q 513 730 564 679 q 391 781 462 781 l 188 781 l 188 434 l 391 434 q 513 485 462 434 q 564 608 564 536 z "},"Q":{"ha":694,"x_min":43,"x_max":651,"o":"m 651 -217 q 608 -260 651 -260 q 428 -178 506 -260 q 329 1 362 -108 q 112 159 193 12 q 43 434 43 284 q 116 717 43 590 q 347 868 203 868 q 578 717 491 868 q 651 434 651 590 q 595 183 651 299 q 416 10 531 47 q 486 -112 440 -61 q 608 -174 542 -174 q 651 -217 651 -174 m 564 434 q 545 576 564 510 q 476 712 523 655 q 347 781 418 781 q 219 712 277 781 q 149 577 172 655 q 130 434 130 510 q 171 233 130 326 q 309 93 220 120 q 304 174 304 133 q 347 217 304 217 q 391 174 391 217 q 396 97 391 134 q 526 238 480 130 q 564 434 564 329 z "},"R":{"ha":694,"x_min":101,"x_max":652,"o":"m 652 44 q 638 13 652 26 q 607 -1 625 -1 q 577 13 590 -1 l 236 354 q 216 390 216 373 q 269 434 216 434 l 391 434 q 513 485 462 434 q 564 608 564 536 q 513 730 564 679 q 391 781 462 781 l 188 781 l 188 43 q 145 0 188 0 q 101 43 101 0 l 101 825 q 144 868 101 868 l 391 868 q 575 792 498 868 q 651 608 651 715 q 575 424 651 500 q 391 347 498 347 l 365 347 l 638 74 q 652 44 652 61 z "},"S":{"ha":694,"x_min":43,"x_max":651,"o":"m 651 260 q 546 68 651 143 q 329 0 451 0 q 175 31 249 0 q 52 126 93 66 q 43 153 43 140 q 56 183 43 170 q 88 196 70 196 q 122 178 105 196 q 147 150 130 168 q 329 87 218 87 q 484 130 414 87 q 564 260 564 181 q 484 391 564 340 q 329 434 414 434 q 149 491 227 434 q 62 651 62 553 q 149 811 62 749 q 329 868 227 868 q 455 842 394 868 q 556 764 522 814 q 566 738 566 751 q 552 707 566 720 q 521 694 538 694 q 487 712 505 694 q 329 781 419 781 q 211 749 264 781 q 149 651 149 711 q 211 553 149 591 q 329 521 264 521 q 546 453 451 521 q 651 260 651 378 z "},"T":{"ha":694,"x_min":43,"x_max":651,"o":"m 651 825 q 608 781 651 781 l 391 781 l 391 43 q 347 0 391 0 q 304 43 304 0 l 304 781 l 87 781 q 43 825 43 781 q 87 868 43 868 l 608 868 q 651 825 651 868 z "},"U":{"ha":694,"x_min":72,"x_max":622,"o":"m 622 275 q 542 80 622 161 q 347 0 461 0 q 153 80 233 0 q 72 275 72 161 l 72 825 q 116 868 72 868 q 159 825 159 868 l 159 275 q 214 142 159 197 q 347 87 270 87 q 480 142 425 87 q 535 275 535 197 l 535 825 q 579 868 535 868 q 622 825 622 868 l 622 275 z "},"V":{"ha":694,"x_min":43,"x_max":652,"o":"m 652 826 q 649 811 652 819 l 391 36 q 347 0 378 0 q 304 36 316 0 l 46 811 q 43 826 43 819 q 88 868 43 868 q 128 839 118 868 l 347 181 l 567 839 q 606 868 576 868 q 652 826 652 868 z "},"W":{"ha":694,"x_min":43,"x_max":651,"o":"m 651 826 q 650 818 651 822 l 521 42 q 477 0 514 0 q 434 38 444 0 l 347 385 l 260 38 q 218 0 251 0 q 174 42 180 0 l 44 818 q 43 826 43 822 q 87 868 43 868 q 130 832 124 868 l 226 256 l 304 569 q 347 608 313 608 q 391 569 381 608 l 469 256 l 565 832 q 607 868 571 868 q 651 826 651 868 z "},"X":{"ha":694,"x_min":43,"x_max":652,"o":"m 652 43 q 638 12 652 25 q 606 -1 624 -1 q 572 19 585 -1 l 347 356 l 123 19 q 88 -1 109 -1 q 57 12 71 -1 q 43 43 43 25 q 51 68 43 56 l 295 434 l 51 800 q 43 825 43 813 q 57 856 43 843 q 88 869 71 869 q 123 849 109 869 l 347 512 l 572 849 q 606 869 585 869 q 638 856 624 869 q 652 825 652 843 q 644 800 652 813 l 399 434 l 644 68 q 652 43 652 56 z "},"Y":{"ha":694,"x_min":43,"x_max":652,"o":"m 652 825 q 644 800 652 813 l 391 421 l 391 43 q 347 0 391 0 q 304 43 304 0 l 304 421 l 51 800 q 43 825 43 813 q 57 856 43 843 q 88 869 71 869 q 123 849 109 869 l 347 512 l 572 849 q 606 869 585 869 q 638 856 624 869 q 652 825 652 843 z "},"Z":{"ha":694,"x_min":43,"x_max":652,"o":"m 652 825 q 639 794 652 813 l 168 87 l 608 87 q 651 43 651 87 q 608 0 651 0 l 89 -1 q 43 43 43 -1 q 55 74 43 56 l 527 781 l 87 781 q 43 825 43 781 q 87 868 43 868 l 606 869 q 652 825 652 869 z "},"[":{"ha":694,"x_min":174,"x_max":521,"o":"m 521 -217 q 477 -260 521 -260 l 217 -260 q 187 -247 200 -260 q 174 -217 174 -234 l 174 825 q 187 855 174 842 q 217 868 200 868 l 477 868 q 521 825 521 868 q 477 781 521 781 l 260 781 l 260 -174 l 477 -174 q 521 -217 521 -174 z "},"\\":{"ha":694,"x_min":43,"x_max":652,"o":"m 652 -219 q 638 -249 652 -237 q 606 -262 624 -262 q 569 -237 581 -262 l 48 805 q 43 826 43 815 q 57 856 43 844 q 88 869 71 869 q 126 844 113 869 l 646 -198 q 652 -219 652 -208 z "},"]":{"ha":694,"x_min":174,"x_max":521,"o":"m 521 825 l 521 -217 q 508 -247 521 -234 q 477 -260 495 -260 l 217 -260 q 174 -217 174 -260 q 217 -174 174 -174 l 434 -174 l 434 781 l 217 781 q 174 825 174 781 q 217 868 174 868 l 477 868 q 508 855 495 868 q 521 825 521 842 z "},"^":{"ha":694,"x_min":130,"x_max":565,"o":"m 565 652 q 552 620 565 634 q 520 607 538 607 q 490 620 503 607 l 347 763 l 204 620 q 174 607 191 607 q 143 620 156 607 q 130 652 130 634 q 143 682 130 668 l 317 855 q 347 869 330 869 q 378 855 365 869 l 552 682 q 565 652 565 668 z "},"_":{"ha":694,"x_min":43,"x_max":651,"o":"m 651 43 q 608 0 651 0 l 87 0 q 43 43 43 0 q 87 87 43 87 l 608 87 q 651 43 651 87 z "},"`":{"ha":694,"x_min":86,"x_max":261,"o":"m 261 606 q 247 576 261 589 q 216 564 233 564 q 177 591 188 564 l 90 808 q 86 826 86 818 q 100 856 86 844 q 131 869 114 869 q 171 841 160 869 l 258 624 q 261 606 261 615 z "},"a":{"ha":694,"x_min":43,"x_max":622,"o":"m 622 43 q 579 0 622 0 q 535 61 534 0 q 333 0 450 0 q 141 54 226 0 q 43 217 43 116 q 141 380 43 318 q 333 434 226 434 q 535 373 450 434 l 535 391 q 517 442 535 416 q 333 521 464 521 q 184 478 258 521 q 158 469 169 469 q 128 483 141 469 q 115 514 115 497 q 205 586 115 557 q 333 608 276 608 q 524 554 439 608 q 622 391 622 491 l 622 43 m 535 217 q 496 293 535 258 q 418 335 463 322 q 333 347 378 347 q 146 265 198 347 q 130 217 130 241 q 146 169 130 193 q 333 87 198 87 q 418 99 378 87 q 496 141 463 112 q 535 217 535 176 z "},"b":{"ha":694,"x_min":72,"x_max":651,"o":"m 651 304 q 568 91 651 181 q 362 0 484 0 q 155 91 240 0 q 72 304 72 181 l 72 825 q 116 868 72 868 q 159 825 159 868 l 159 521 q 362 608 243 608 q 568 516 484 608 q 651 304 651 427 m 564 304 q 507 455 564 391 q 362 521 448 521 q 216 455 275 521 q 159 304 159 391 q 216 153 159 216 q 362 87 275 87 q 507 153 448 87 q 564 304 564 216 z "},"c":{"ha":694,"x_min":43,"x_max":652,"o":"m 652 489 q 638 457 652 471 q 608 444 625 444 q 579 455 595 444 q 392 521 486 521 q 215 463 292 521 q 130 304 130 400 q 215 145 130 208 q 392 87 292 87 q 579 152 486 87 q 607 163 595 163 q 638 150 625 163 q 652 119 652 136 q 635 86 652 102 q 522 22 595 46 q 392 0 455 0 q 153 83 256 0 q 43 304 43 171 q 153 525 43 437 q 392 608 256 608 q 522 586 455 608 q 636 521 595 561 q 652 489 652 505 z "},"d":{"ha":694,"x_min":43,"x_max":593,"o":"m 593 43 q 550 0 593 0 q 510 28 518 0 q 506 82 506 40 q 318 0 428 0 q 120 94 200 0 q 43 304 43 183 q 120 514 43 424 q 318 608 200 608 q 506 525 428 608 l 506 825 q 550 868 506 868 q 593 825 593 868 l 593 43 m 506 304 q 455 452 506 388 q 318 521 400 521 q 181 452 236 521 q 130 304 130 388 q 181 156 130 219 q 318 87 236 87 q 455 156 400 87 q 506 304 506 219 z "},"e":{"ha":694,"x_min":43,"x_max":652,"o":"m 652 174 q 645 150 652 163 q 525 40 605 81 q 366 0 449 0 q 141 86 236 0 q 43 304 43 175 q 141 521 43 433 q 366 608 236 608 q 465 591 413 608 q 580 530 523 572 q 651 431 651 478 q 628 396 651 408 l 190 160 q 366 87 261 87 q 546 164 477 87 q 571 196 554 175 q 606 218 587 218 q 638 205 624 218 q 652 174 652 192 m 542 448 q 366 521 472 521 q 203 460 272 521 q 130 304 130 396 q 143 233 130 267 l 542 448 z "},"f":{"ha":694,"x_min":43,"x_max":652,"o":"m 652 737 q 638 707 652 720 q 606 694 624 694 q 569 716 592 694 q 519 759 536 748 q 434 781 483 781 q 311 730 362 781 q 260 608 260 679 l 477 608 q 521 564 521 608 q 477 521 521 521 l 260 521 l 260 43 q 217 0 260 0 q 174 43 174 0 l 174 521 l 87 521 q 43 564 43 521 q 87 608 43 608 l 174 608 q 250 792 174 715 q 434 868 326 868 q 551 840 493 868 q 642 764 612 811 q 652 737 652 749 z "},"g":{"ha":694,"x_min":43,"x_max":651,"o":"m 651 564 q 613 522 651 529 q 549 521 604 520 q 599 391 599 464 q 506 222 599 286 q 651 0 651 146 q 554 -190 651 -115 q 347 -260 465 -260 q 140 -190 229 -260 q 43 0 43 -115 q 87 43 43 43 q 130 0 130 43 q 202 -128 130 -78 q 347 -174 266 -174 q 492 -128 428 -174 q 564 0 564 -78 q 492 128 564 78 q 347 174 428 174 q 175 232 249 174 q 95 391 95 295 q 175 549 95 486 q 347 608 249 608 l 608 608 q 651 564 651 608 m 512 391 q 457 487 512 449 q 347 521 409 521 q 237 487 286 521 q 182 391 182 449 q 237 294 182 332 q 347 260 286 260 q 457 294 409 260 q 512 391 512 332 z "},"h":{"ha":694,"x_min":101,"x_max":622,"o":"m 622 43 q 579 0 622 0 q 535 43 535 0 l 535 347 q 484 470 535 419 q 362 521 433 521 q 239 470 290 521 q 188 347 188 419 l 188 43 q 145 0 188 0 q 101 43 101 0 l 101 825 q 145 868 101 868 q 188 825 188 868 l 188 541 q 362 608 262 608 q 546 531 469 608 q 622 347 622 455 l 622 43 z "},"i":{"ha":694,"x_min":130,"x_max":564,"o":"m 413 802 q 394 756 413 775 q 347 738 374 738 q 301 756 320 738 q 281 802 281 775 q 301 849 281 829 q 347 868 320 868 q 394 849 374 868 q 413 802 413 829 m 564 43 q 521 0 564 0 l 347 0 q 304 43 304 0 l 304 521 l 174 521 q 130 564 130 521 q 174 608 130 608 l 348 608 q 391 564 391 608 l 391 87 l 521 87 q 564 43 564 87 z "},"j":{"ha":694,"x_min":43,"x_max":616,"o":"m 616 802 q 596 756 616 775 q 550 738 577 738 q 503 756 523 738 q 484 802 484 775 q 503 849 484 829 q 550 868 523 868 q 596 849 577 868 q 616 802 616 829 m 593 43 q 504 -171 593 -82 q 289 -260 415 -260 q 158 -230 223 -260 q 53 -148 89 -199 q 43 -120 43 -133 q 56 -89 43 -102 q 88 -76 70 -76 q 120 -93 104 -76 q 289 -174 203 -174 q 443 -110 379 -174 q 506 43 506 -46 l 506 521 l 376 521 q 333 564 333 521 q 376 608 333 608 l 550 608 q 593 565 593 608 l 593 43 z "},"k":{"ha":694,"x_min":101,"x_max":652,"o":"m 652 45 q 639 13 652 27 q 608 -1 626 -1 q 583 8 595 -1 l 212 264 q 188 296 191 279 l 188 43 q 145 0 188 0 q 101 43 101 0 l 101 825 q 145 868 101 868 q 188 825 188 868 l 188 312 q 212 343 191 329 l 583 600 q 608 608 595 608 q 639 594 626 608 q 652 563 652 580 q 633 528 652 542 l 308 304 l 633 79 q 652 45 652 66 z "},"l":{"ha":694,"x_min":174,"x_max":652,"o":"m 652 131 q 642 104 652 119 q 551 28 612 57 q 434 0 493 0 q 250 76 326 0 q 174 260 174 153 l 174 825 q 217 868 174 868 q 260 825 260 868 l 260 260 q 311 138 260 189 q 434 87 362 87 q 547 130 497 87 q 606 174 596 174 q 638 161 624 174 q 652 131 652 148 z "},"m":{"ha":694,"x_min":43,"x_max":651,"o":"m 651 43 q 608 0 651 0 q 564 43 564 0 l 564 434 q 539 495 564 470 q 477 521 513 521 q 416 495 442 521 q 391 434 391 470 l 391 43 q 347 0 391 0 q 304 43 304 0 l 304 434 q 278 495 304 470 q 217 521 253 521 q 156 495 181 521 q 130 434 130 470 l 130 43 q 87 0 130 0 q 43 43 43 0 l 43 564 q 87 608 43 608 q 127 582 116 608 q 217 608 168 608 q 347 549 295 608 q 477 608 399 608 q 600 557 549 608 q 651 434 651 506 l 651 43 z "},"n":{"ha":694,"x_min":101,"x_max":622,"o":"m 622 43 q 579 0 622 0 q 535 43 535 0 l 535 347 q 484 470 535 419 q 362 521 433 521 q 239 470 290 521 q 188 347 188 419 l 188 43 q 145 0 188 0 q 101 43 101 0 l 101 564 q 145 608 101 608 q 188 541 189 608 q 362 608 262 608 q 546 531 469 608 q 622 347 622 455 l 622 43 z "},"o":{"ha":694,"x_min":43,"x_max":651,"o":"m 651 304 q 562 89 651 178 q 347 0 473 0 q 133 89 222 0 q 43 304 43 178 q 133 519 43 429 q 347 608 222 608 q 562 519 473 608 q 651 304 651 429 m 564 304 q 501 457 564 394 q 347 521 437 521 q 194 457 258 521 q 130 304 130 394 q 194 150 130 214 q 347 87 258 87 q 501 150 437 87 q 564 304 564 214 z "},"p":{"ha":694,"x_min":101,"x_max":651,"o":"m 651 304 q 575 94 651 183 q 376 0 495 0 q 188 82 267 0 l 188 -217 q 145 -260 188 -260 q 101 -217 101 -260 l 101 564 q 145 608 101 608 q 185 580 177 608 q 188 525 188 568 q 376 608 267 608 q 575 514 495 608 q 651 304 651 424 m 564 304 q 513 452 564 388 q 376 521 458 521 q 239 452 294 521 q 188 304 188 388 q 239 156 188 219 q 376 87 294 87 q 513 156 458 87 q 564 304 564 219 z "},"q":{"ha":694,"x_min":43,"x_max":593,"o":"m 593 -217 q 550 -260 593 -260 q 506 -217 506 -260 l 506 82 q 318 0 428 0 q 120 94 200 0 q 43 304 43 183 q 120 514 43 424 q 318 608 200 608 q 506 525 428 608 l 506 547 q 550 608 505 608 q 593 564 593 608 l 593 -217 m 506 304 q 455 452 506 388 q 318 521 400 521 q 181 452 236 521 q 130 304 130 388 q 181 156 130 219 q 318 87 236 87 q 455 156 400 87 q 506 304 506 219 z "},"r":{"ha":694,"x_min":101,"x_max":652,"o":"m 652 468 q 638 437 652 450 q 606 424 624 424 q 574 440 590 424 q 405 521 494 521 q 252 457 315 521 q 188 304 188 394 l 188 43 q 145 0 188 0 q 101 43 101 0 l 101 564 q 145 608 101 608 q 186 575 178 608 q 188 516 189 565 q 405 608 277 608 q 536 578 471 608 q 641 495 605 546 q 652 468 652 480 z "},"s":{"ha":694,"x_min":83,"x_max":611,"o":"m 611 196 q 518 47 611 103 q 340 0 439 0 q 198 28 266 0 q 89 120 120 61 q 83 142 83 132 q 97 172 83 160 q 128 185 111 185 q 164 163 148 185 q 340 87 222 87 q 506 151 457 87 q 524 196 524 174 q 484 261 524 231 q 410 295 451 284 q 331 304 375 304 q 197 341 256 304 q 129 456 129 385 q 199 571 129 527 q 336 608 259 608 q 430 591 383 608 q 509 539 484 572 q 520 510 520 524 q 507 480 520 493 q 475 466 493 466 q 427 494 468 466 q 336 521 387 521 q 225 478 257 521 q 216 456 216 466 q 288 396 216 414 q 346 391 313 391 q 521 343 443 391 q 611 196 611 286 z "},"t":{"ha":694,"x_min":43,"x_max":652,"o":"m 652 131 q 642 104 652 119 q 551 28 612 57 q 434 0 493 0 q 250 76 326 0 q 174 260 174 153 l 174 521 l 87 521 q 43 564 43 521 q 87 608 43 608 l 174 608 l 174 825 q 217 868 174 868 q 260 825 260 868 l 260 608 l 477 608 q 521 564 521 608 q 477 521 521 521 l 260 521 l 260 260 q 311 138 260 189 q 434 87 362 87 q 519 109 483 87 q 569 152 536 120 q 606 174 592 174 q 638 161 624 174 q 652 131 652 148 z "},"u":{"ha":694,"x_min":72,"x_max":622,"o":"m 622 275 q 542 80 622 161 q 347 0 461 0 q 153 80 233 0 q 72 275 72 161 l 72 564 q 116 608 72 608 q 159 564 159 608 l 159 275 q 214 142 159 197 q 347 87 270 87 q 480 142 425 87 q 535 275 535 197 l 535 564 q 579 608 535 608 q 622 564 622 608 l 622 275 z "},"v":{"ha":694,"x_min":43,"x_max":652,"o":"m 652 565 q 646 545 652 555 l 390 31 q 347 -1 374 -1 q 304 31 321 -1 l 48 545 q 43 565 43 555 q 57 596 43 583 q 88 608 71 608 q 126 584 113 608 l 347 141 l 569 584 q 606 608 581 608 q 638 596 624 608 q 652 565 652 583 z "},"w":{"ha":694,"x_min":43,"x_max":652,"o":"m 652 566 q 649 552 652 559 l 495 38 q 451 0 484 0 q 408 38 419 0 l 347 239 l 286 38 q 243 0 275 0 q 200 38 211 0 l 45 552 q 43 566 43 559 q 88 608 43 608 q 128 577 119 608 l 243 194 l 302 390 q 251 566 251 559 q 296 608 251 608 q 337 577 328 608 l 451 194 l 566 577 q 606 608 575 608 q 652 566 652 608 z "},"x":{"ha":694,"x_min":43,"x_max":652,"o":"m 652 564 q 638 534 652 547 l 409 304 l 638 74 q 652 44 652 61 q 638 13 652 26 q 607 -1 625 -1 q 577 13 590 -1 l 347 242 l 117 13 q 87 -1 104 -1 q 56 13 69 -1 q 43 44 43 26 q 56 74 43 61 l 286 304 l 56 534 q 43 564 43 547 q 56 595 43 582 q 87 608 69 608 q 117 595 104 608 l 347 365 l 577 595 q 607 608 590 608 q 638 595 625 608 q 652 564 652 582 z "},"y":{"ha":694,"x_min":72,"x_max":593,"o":"m 593 564 l 593 0 q 517 -184 593 -108 q 333 -260 440 -260 q 203 -226 264 -260 q 108 -131 139 -190 q 101 -108 101 -119 q 115 -78 101 -91 q 146 -65 129 -65 q 183 -87 166 -65 q 333 -174 248 -174 q 455 -123 405 -174 q 506 0 506 -72 l 506 67 q 333 0 432 0 q 149 76 225 0 q 72 260 72 153 l 72 564 q 116 608 72 608 q 159 564 159 608 l 159 260 q 210 138 159 189 q 333 87 261 87 q 455 138 405 87 q 506 260 506 189 l 506 564 q 550 608 506 608 q 593 564 593 608 z "},"z":{"ha":694,"x_min":43,"x_max":652,"o":"m 652 564 q 633 528 652 547 l 192 87 l 608 87 q 651 43 651 87 q 608 0 651 0 l 88 -1 q 43 44 43 -1 q 62 80 43 61 l 503 521 l 87 521 q 43 564 43 521 q 87 608 43 608 l 606 608 q 652 564 652 608 z "},"{":{"ha":694,"x_min":174,"x_max":521,"o":"m 521 -217 q 477 -260 521 -260 q 355 -209 406 -260 q 304 -87 304 -159 l 304 174 q 278 235 304 209 q 217 260 253 260 q 174 304 174 260 q 217 347 174 347 q 278 373 253 347 q 304 434 304 398 l 304 694 q 355 817 304 766 q 477 868 406 868 q 521 825 521 868 q 477 781 521 781 q 416 756 442 781 q 391 694 391 730 l 391 434 q 332 304 391 356 q 391 174 391 252 l 391 -87 q 416 -148 391 -123 q 477 -174 442 -174 q 521 -217 521 -174 z "},"|":{"ha":694,"x_min":304,"x_max":391,"o":"m 391 -217 q 347 -260 391 -260 q 304 -217 304 -260 l 304 825 q 347 868 304 868 q 391 825 391 868 l 391 -217 z "},"}":{"ha":694,"x_min":174,"x_max":521,"o":"m 521 304 q 477 260 521 260 q 416 235 442 260 q 391 174 391 209 l 391 -87 q 340 -209 391 -159 q 217 -260 289 -260 q 174 -217 174 -260 q 217 -174 174 -174 q 278 -148 253 -174 q 304 -87 304 -123 l 304 174 q 363 304 304 252 q 304 434 304 356 l 304 694 q 278 756 304 730 q 217 781 253 781 q 174 825 174 781 q 217 868 174 868 q 340 817 289 868 q 391 694 391 766 l 391 434 q 416 373 391 398 q 477 347 442 347 q 521 304 521 347 z "},"~":{"ha":694,"x_min":130,"x_max":565,"o":"m 565 306 q 554 274 565 292 q 434 217 521 217 q 332 260 385 217 q 260 304 279 304 q 215 290 231 304 q 175 260 205 260 q 130 302 130 260 q 140 333 130 316 q 260 391 174 391 q 363 347 310 391 q 434 304 416 304 q 484 326 469 304 q 520 347 499 347 q 565 306 565 347 z "},"¡":{"ha":694,"x_min":281,"x_max":413,"o":"m 413 542 q 394 496 413 514 q 347 477 374 477 q 301 496 320 477 q 281 542 281 514 q 301 588 281 569 q 347 608 320 608 q 394 588 374 608 q 413 542 413 569 m 391 -217 q 347 -260 391 -260 q 304 -217 304 -260 l 304 347 q 347 391 304 391 q 391 347 391 391 l 391 -217 z "},"¢":{"ha":694,"x_min":43,"x_max":652,"o":"m 652 489 q 638 457 652 471 q 608 444 625 444 q 579 455 595 444 q 435 518 503 509 l 435 90 q 579 152 503 99 q 607 163 595 163 q 638 150 625 163 q 652 119 652 136 q 635 86 652 102 q 435 2 564 16 l 435 -101 q 392 -145 435 -145 q 348 -101 348 -145 l 348 2 q 137 97 225 16 q 43 304 43 183 q 137 511 43 425 q 348 605 225 591 l 348 709 q 392 752 348 752 q 435 709 435 752 l 435 605 q 636 521 564 591 q 652 489 652 505 m 348 90 l 348 518 q 198 450 261 506 q 130 304 130 388 q 198 158 130 219 q 348 90 261 102 z "},"£":{"ha":694,"x_min":42,"x_max":651,"o":"m 651 43 q 608 0 651 0 l 87 0 q 42 43 42 0 q 87 87 42 87 q 148 112 123 87 q 174 174 174 138 l 174 347 l 87 347 q 43 391 43 347 q 87 434 43 434 l 174 434 l 174 521 l 87 521 q 43 564 43 521 q 87 608 43 608 l 174 608 l 174 694 q 225 817 174 766 q 347 868 275 868 q 432 850 396 868 q 477 784 477 828 q 443 738 477 738 q 403 760 430 738 q 347 781 377 781 q 286 756 311 781 q 260 694 260 730 l 260 608 l 347 608 q 391 564 391 608 q 347 521 391 521 l 260 521 l 260 434 l 347 434 q 391 391 391 434 q 347 347 391 347 l 260 347 l 260 174 q 237 87 260 127 l 608 87 q 651 43 651 87 z "},"¤":{"ha":694,"x_min":43,"x_max":652,"o":"m 652 564 q 590 486 652 546 q 651 304 651 405 q 590 122 651 203 q 652 44 652 61 q 638 13 652 26 q 607 -1 625 -1 q 529 61 590 -1 q 347 0 448 0 q 166 61 246 0 q 87 -1 105 -1 q 56 13 69 -1 q 43 44 43 26 q 104 122 43 61 q 43 304 43 203 q 104 486 43 405 q 43 564 43 546 q 56 595 43 582 q 87 608 69 608 q 166 547 105 608 q 347 608 246 608 q 529 547 448 608 q 607 608 590 608 q 638 595 625 608 q 652 564 652 582 m 564 304 q 501 457 564 394 q 347 521 437 521 q 194 457 258 521 q 130 304 130 394 q 194 150 130 214 q 347 87 258 87 q 501 150 437 87 q 564 304 564 214 z "},"¥":{"ha":694,"x_min":43,"x_max":652,"o":"m 652 825 q 644 800 652 813 l 428 477 l 521 477 q 564 434 564 477 q 521 391 564 391 l 391 391 l 391 304 l 521 304 q 564 260 564 304 q 521 217 564 217 l 391 217 l 391 43 q 347 0 391 0 q 304 43 304 0 l 304 217 l 174 217 q 130 260 130 217 q 174 304 130 304 l 304 304 l 304 391 l 174 391 q 130 434 130 391 q 174 477 130 477 l 266 477 l 51 800 q 43 825 43 813 q 57 856 43 843 q 88 869 71 869 q 123 849 109 869 l 347 512 l 572 849 q 606 869 585 869 q 638 856 624 869 q 652 825 652 843 z "},"¦":{"ha":694,"x_min":304,"x_max":391,"o":"m 391 391 q 347 347 391 347 q 304 391 304 347 l 304 825 q 347 868 304 868 q 391 825 391 868 l 391 391 m 391 -217 q 347 -260 391 -260 q 304 -217 304 -260 l 304 217 q 347 260 304 260 q 391 217 391 260 l 391 -217 z "},"§":{"ha":694,"x_min":43,"x_max":651,"o":"m 651 -43 q 546 -208 651 -146 q 347 -260 457 -260 q 206 -236 275 -260 q 88 -158 127 -208 q 77 -130 77 -144 q 91 -99 77 -112 q 122 -86 104 -86 q 154 -101 137 -86 q 347 -174 234 -174 q 548 -90 492 -174 q 564 -43 564 -66 q 548 3 564 -21 q 347 87 492 87 q 148 139 237 87 q 43 304 43 201 q 164 477 43 414 q 43 651 43 541 q 148 815 43 753 q 347 868 237 868 q 488 843 419 868 q 606 766 568 815 q 617 737 617 751 q 604 707 617 720 q 572 693 590 693 q 541 709 558 693 q 347 781 460 781 q 146 698 202 781 q 130 651 130 674 q 146 604 130 628 q 347 521 202 521 q 546 468 457 521 q 651 304 651 406 q 530 130 651 194 q 651 -43 651 67 m 564 304 q 521 380 564 345 q 439 422 486 409 q 347 434 396 434 q 255 422 298 434 q 174 380 209 409 q 130 304 130 345 q 174 227 130 263 q 255 186 209 199 q 347 174 298 174 q 439 186 396 174 q 521 227 486 199 q 564 304 564 263 z "},"¨":{"ha":694,"x_min":152,"x_max":543,"o":"m 543 760 q 523 714 543 733 q 477 694 504 694 q 431 714 450 694 q 413 760 413 733 q 431 806 413 787 q 477 825 450 825 q 524 806 505 825 q 543 760 543 787 m 282 760 q 263 714 282 733 q 217 694 244 694 q 171 714 190 694 q 152 760 152 733 q 171 806 152 787 q 217 825 190 825 q 263 806 244 825 q 282 760 282 787 z "},"©":{"ha":694,"x_min":43,"x_max":651,"o":"m 651 434 q 578 151 651 278 q 347 0 491 0 q 116 151 203 0 q 43 434 43 278 q 116 717 43 590 q 347 868 203 868 q 578 717 491 868 q 651 434 651 590 m 564 434 q 545 576 564 510 q 476 712 523 655 q 347 781 418 781 q 219 712 277 781 q 149 576 172 655 q 130 434 130 510 q 149 292 130 358 q 219 156 172 213 q 347 87 277 87 q 476 156 418 87 q 545 292 523 213 q 564 434 564 358 m 483 296 q 475 272 483 285 q 347 196 431 196 q 216 277 266 196 q 174 434 174 347 q 216 591 174 521 q 347 673 266 673 q 475 596 431 673 q 483 572 483 583 q 469 541 483 554 q 438 528 455 528 q 396 557 420 528 q 347 586 372 586 q 315 573 332 586 q 260 434 260 532 q 315 295 260 336 q 347 282 332 282 q 396 311 372 282 q 438 340 420 340 q 469 327 455 340 q 483 296 483 314 z "},"ª":{"ha":694,"x_min":108,"x_max":586,"o":"m 586 460 q 543 417 586 417 q 499 454 503 417 q 347 417 432 417 q 192 455 261 417 q 109 582 109 502 q 192 708 109 661 q 347 747 261 747 q 498 710 431 747 q 435 766 488 746 q 347 781 393 781 q 232 752 289 781 q 208 745 218 745 q 178 759 190 745 q 165 791 165 773 q 240 851 165 828 q 347 868 296 868 q 503 829 433 868 q 586 703 586 782 l 586 460 m 586 304 q 542 260 586 260 l 152 260 q 108 304 108 260 q 152 347 108 347 l 542 347 q 586 304 586 347 m 499 582 q 484 612 499 595 q 347 660 443 660 q 205 607 245 660 q 196 582 196 593 q 216 544 196 564 q 347 503 260 503 q 485 552 443 503 q 499 582 499 568 z "},"«":{"ha":694,"x_min":86,"x_max":608,"o":"m 608 42 q 594 12 608 24 q 563 -1 580 -1 q 525 24 538 -1 l 398 279 q 390 304 390 295 q 398 329 390 313 l 525 584 q 563 608 538 608 q 594 596 580 608 q 608 565 608 583 q 603 545 608 555 l 483 304 l 603 63 q 608 42 608 53 m 304 42 q 291 12 304 24 q 259 -1 277 -1 q 222 24 234 -1 l 94 279 q 86 304 86 295 q 94 329 86 313 l 222 584 q 259 608 234 608 q 291 596 277 608 q 304 565 304 583 q 299 545 304 555 l 179 304 l 299 63 q 304 42 304 53 z "},"¬":{"ha":694,"x_min":43,"x_max":593,"o":"m 593 43 q 550 0 593 0 q 506 43 506 0 l 506 260 l 87 260 q 43 304 43 260 q 87 347 43 347 l 550 347 q 580 334 567 347 q 593 304 593 321 l 593 43 z "},"®":{"ha":694,"x_min":43,"x_max":651,"o":"m 651 434 q 578 151 651 278 q 347 0 491 0 q 116 151 203 0 q 43 434 43 278 q 116 717 43 590 q 347 868 203 868 q 578 717 491 868 q 651 434 651 590 m 564 434 q 545 576 564 510 q 476 712 523 655 q 347 781 418 781 q 219 712 277 781 q 149 576 172 655 q 130 434 130 510 q 149 292 130 358 q 219 156 172 213 q 347 87 277 87 q 476 156 418 87 q 545 292 523 213 q 564 434 564 358 m 521 239 q 508 208 521 222 q 477 194 495 194 q 447 208 460 194 l 304 351 l 304 239 q 260 196 304 196 q 217 239 217 196 l 217 630 q 230 660 217 646 q 260 673 243 673 l 369 673 q 476 628 432 673 q 521 521 521 583 q 488 427 521 468 q 405 373 455 385 l 508 270 q 521 239 521 256 m 434 521 q 415 567 434 547 q 369 586 396 586 l 304 586 l 304 456 l 369 456 q 415 475 396 456 q 434 521 434 494 z "},"°":{"ha":694,"x_min":130,"x_max":564,"o":"m 564 651 q 501 498 564 561 q 347 434 437 434 q 194 498 258 434 q 130 651 130 561 q 194 804 130 741 q 347 868 258 868 q 501 804 437 868 q 564 651 564 741 m 477 651 q 439 743 477 705 q 347 781 401 781 q 255 743 293 781 q 217 651 217 705 q 255 559 217 597 q 347 521 293 521 q 439 559 401 521 q 477 651 477 597 z "},"±":{"ha":694,"x_min":43,"x_max":651,"o":"m 651 477 q 608 434 651 434 l 391 434 l 391 217 q 347 174 391 174 q 304 217 304 174 l 304 434 l 87 434 q 43 477 43 434 q 87 521 43 521 l 304 521 l 304 738 q 347 781 304 781 q 391 738 391 781 l 391 521 l 608 521 q 651 477 651 521 m 651 43 q 608 0 651 0 l 87 0 q 43 43 43 0 q 87 87 43 87 l 608 87 q 651 43 651 87 z "},"²":{"ha":694,"x_min":134,"x_max":553,"o":"m 553 369 q 510 325 553 325 l 185 325 q 134 364 134 325 q 159 405 134 384 q 237 444 186 418 q 466 672 466 568 q 430 751 466 719 q 347 781 395 781 q 264 751 300 781 q 228 672 228 719 q 185 629 228 629 q 141 672 141 629 q 203 813 141 755 q 347 868 264 868 q 491 813 431 868 q 553 672 553 755 q 473 516 553 584 q 321 413 397 464 l 510 412 q 553 369 553 412 z "},"³":{"ha":694,"x_min":136,"x_max":564,"o":"m 564 830 q 543 792 564 810 l 378 652 q 506 579 455 637 q 558 445 558 521 q 491 294 558 356 q 335 234 425 234 q 226 262 279 234 q 144 339 169 291 q 136 362 136 352 q 150 392 136 380 q 182 405 164 405 q 236 363 196 405 q 335 321 276 321 q 430 356 389 321 q 471 445 471 392 q 429 534 471 498 q 335 568 389 568 q 256 543 295 568 q 207 519 217 519 q 177 532 189 519 q 164 562 164 545 q 181 596 164 582 l 397 781 l 180 781 q 137 825 137 781 q 180 868 137 868 l 514 868 q 564 830 564 868 z "},"´":{"ha":694,"x_min":216,"x_max":478,"o":"m 478 823 q 454 786 478 798 l 280 699 q 259 694 270 694 q 229 708 241 694 q 216 739 216 722 q 241 777 216 764 l 414 863 q 435 869 425 869 q 466 855 453 869 q 478 823 478 841 z "},"µ":{"ha":694,"x_min":101,"x_max":593,"o":"m 593 43 q 550 0 593 0 q 506 58 506 0 q 347 0 438 0 q 188 58 257 0 l 188 -217 q 145 -260 188 -260 q 101 -217 101 -260 l 101 564 q 145 608 101 608 q 188 564 188 608 l 188 246 q 235 133 188 180 q 347 87 281 87 q 459 133 413 87 q 506 245 506 180 l 506 564 q 550 608 506 608 q 593 564 593 608 l 593 43 z "},"¶":{"ha":694,"x_min":43,"x_max":622,"o":"m 622 43 q 579 0 622 0 q 535 43 535 0 l 535 781 l 362 781 l 362 43 q 318 0 362 0 q 275 43 275 0 l 275 434 l 260 434 q 107 498 171 434 q 43 651 43 561 q 107 804 43 741 q 260 868 171 868 l 579 868 q 609 855 596 868 q 622 825 622 842 l 622 43 m 275 521 l 275 781 l 260 781 q 168 743 207 781 q 130 651 130 705 q 168 559 130 597 q 260 521 207 521 l 275 521 z "},"·":{"ha":694,"x_min":281,"x_max":413,"o":"m 413 369 q 394 323 413 342 q 347 303 374 303 q 301 323 320 303 q 281 369 281 342 q 301 415 281 396 q 347 433 320 433 q 394 415 374 433 q 413 369 413 396 z "},"¸":{"ha":694,"x_min":182,"x_max":512,"o":"m 512 -87 q 461 -209 512 -159 q 339 -260 410 -260 q 252 -237 293 -260 q 188 -173 208 -212 q 182 -150 182 -161 q 196 -120 182 -133 q 227 -108 209 -108 q 272 -141 244 -108 q 339 -174 300 -174 q 400 -148 374 -174 q 425 -87 425 -123 q 400 -25 425 -51 q 339 0 374 0 q 295 43 295 0 q 339 87 295 87 q 461 36 410 87 q 512 -87 512 -15 z "},"¹":{"ha":694,"x_min":194,"x_max":499,"o":"m 499 369 q 456 325 499 325 l 282 325 q 239 369 239 325 q 269 410 239 402 q 326 413 279 413 l 326 725 l 269 671 q 239 659 255 659 q 208 673 221 659 q 194 704 194 686 q 209 735 194 721 l 333 851 q 369 869 352 869 q 413 817 413 869 l 413 413 q 426 413 417 413 q 439 413 435 413 q 499 369 499 413 z "},"º":{"ha":694,"x_min":109,"x_max":586,"o":"m 586 642 q 514 481 586 547 q 347 417 444 417 q 181 481 251 417 q 109 642 109 547 q 181 804 109 738 q 347 868 251 868 q 514 804 444 868 q 586 642 586 738 m 586 304 q 543 260 586 260 l 152 260 q 109 304 109 260 q 152 347 109 347 l 543 347 q 586 304 586 347 m 499 642 q 453 742 499 702 q 347 781 407 781 q 242 742 287 781 q 196 642 196 702 q 241 543 196 583 q 347 503 287 503 q 453 543 407 503 q 499 642 499 583 z "},"»":{"ha":694,"x_min":86,"x_max":608,"o":"m 608 304 q 600 279 608 295 l 473 24 q 435 -1 461 -1 q 404 12 418 -1 q 390 42 390 24 q 395 63 390 53 l 516 304 l 395 545 q 390 565 390 555 q 404 596 390 583 q 435 608 418 608 q 473 584 461 608 l 600 329 q 608 304 608 313 m 304 304 q 296 279 304 295 l 169 24 q 131 -1 157 -1 q 100 12 114 -1 q 86 42 86 24 q 91 63 86 53 l 212 304 l 91 545 q 86 565 86 555 q 100 596 86 583 q 131 608 114 608 q 169 584 157 608 l 296 329 q 304 304 304 313 z "},"¼":{"ha":694,"x_min":43,"x_max":652,"o":"m 293 542 q 249 499 293 499 l 119 499 q 76 542 76 499 q 141 586 76 586 l 141 875 q 88 833 108 833 q 56 846 70 833 q 43 877 43 859 q 53 904 43 891 l 146 1020 q 183 1042 164 1042 q 228 991 228 1042 l 228 586 q 293 542 293 586 m 652 825 q 644 800 652 813 l 123 19 q 88 -1 109 -1 q 57 12 71 -1 q 43 43 43 25 q 51 68 43 56 l 572 849 q 606 869 585 869 q 638 856 624 869 q 652 825 652 843 m 651 -35 q 616 -77 651 -69 q 553 -78 610 -78 l 553 -217 q 510 -260 553 -260 q 466 -217 466 -260 l 466 -78 l 315 -78 q 269 -41 269 -78 q 277 -14 269 -28 l 472 350 q 514 380 488 380 q 553 330 553 380 l 553 9 q 571 9 559 9 q 589 10 583 10 q 651 -35 651 10 m 466 9 l 466 157 l 387 9 l 466 9 z "},"½":{"ha":694,"x_min":43,"x_max":652,"o":"m 293 542 q 249 499 293 499 l 119 499 q 76 542 76 499 q 141 586 76 586 l 141 875 q 88 833 108 833 q 56 846 70 833 q 43 877 43 859 q 53 904 43 891 l 146 1020 q 183 1042 164 1042 q 228 991 228 1042 l 228 586 q 293 542 293 586 m 652 825 q 644 800 652 813 l 123 19 q 88 -1 109 -1 q 57 12 71 -1 q 43 43 43 25 q 51 68 43 56 l 572 849 q 606 869 585 869 q 638 856 624 869 q 652 825 652 843 m 651 174 q 593 24 651 90 q 473 -87 533 -31 l 608 -87 q 651 -130 651 -87 q 608 -174 651 -174 l 363 -174 q 314 -137 314 -174 q 379 -61 314 -111 q 499 39 475 13 q 564 174 564 107 q 545 245 564 212 q 486 282 522 282 q 427 245 449 282 q 407 174 407 212 q 363 130 407 130 q 320 174 320 130 q 364 307 320 249 q 486 369 412 369 q 607 307 559 369 q 651 174 651 249 z "},"¾":{"ha":694,"x_min":43,"x_max":652,"o":"m 652 825 q 644 800 652 813 l 123 19 q 88 -1 109 -1 q 57 12 71 -1 q 43 43 43 25 q 51 68 43 56 l 300 442 q 203 408 257 408 q 111 439 154 408 q 47 517 67 470 q 43 536 43 528 q 57 566 43 554 q 89 579 71 579 q 137 537 109 579 q 203 495 165 495 q 271 537 245 495 q 294 619 294 574 q 271 700 294 663 q 203 742 245 742 q 150 717 176 742 q 107 692 124 692 q 76 705 90 692 q 63 735 63 718 q 76 766 63 751 l 242 955 l 87 955 q 43 998 43 955 q 87 1042 43 1042 l 337 1042 q 385 1013 385 1042 q 326 915 385 982 q 242 824 285 869 q 345 745 306 807 q 381 619 381 688 q 370 546 381 582 l 572 849 q 606 869 585 869 q 638 856 624 869 q 652 825 652 843 m 651 -35 q 616 -77 651 -69 q 553 -78 610 -78 l 553 -217 q 510 -260 553 -260 q 466 -217 466 -260 l 466 -78 l 315 -78 q 269 -41 269 -78 q 277 -14 269 -28 l 472 350 q 514 380 488 380 q 553 330 553 380 l 553 9 q 571 9 559 9 q 589 10 583 10 q 651 -35 651 10 m 466 9 l 466 157 l 387 9 l 466 9 z "},"¿":{"ha":694,"x_min":43,"x_max":651,"o":"m 413 542 q 394 496 413 514 q 347 477 374 477 q 301 496 320 477 q 281 542 281 514 q 301 588 281 569 q 347 608 320 608 q 394 588 374 608 q 413 542 413 569 m 651 -43 q 546 -208 651 -146 q 347 -260 457 -260 q 148 -208 237 -260 q 43 -43 43 -146 q 148 121 43 59 q 347 174 237 174 q 458 218 426 174 q 466 239 466 229 q 450 269 466 253 q 347 304 416 304 q 300 296 328 304 q 264 289 272 289 q 234 302 247 289 q 222 334 222 316 q 347 391 222 391 q 483 354 423 391 q 553 239 553 310 q 483 124 553 167 q 347 87 423 87 q 148 5 204 87 q 130 -43 130 -20 q 148 -92 130 -67 q 347 -174 204 -174 q 547 -92 490 -174 q 564 -43 564 -67 q 608 0 564 0 q 651 -43 651 0 z "},"À":{"ha":694,"x_min":43,"x_max":652,"o":"m 478 999 q 466 968 478 982 q 435 954 453 954 q 414 959 425 954 l 241 1046 q 216 1084 216 1058 q 229 1115 216 1101 q 259 1129 241 1129 q 280 1124 270 1129 l 454 1037 q 478 999 478 1025 m 652 42 q 606 0 652 0 q 567 30 576 0 l 490 260 l 205 260 l 128 30 q 88 0 118 0 q 43 42 43 0 q 46 57 43 49 l 304 832 q 347 868 316 868 q 391 832 378 868 l 649 57 q 652 42 652 49 m 461 347 l 347 688 l 234 347 l 461 347 z "},"Á":{"ha":694,"x_min":43,"x_max":652,"o":"m 487 1084 q 462 1046 487 1058 l 289 959 q 268 954 278 954 q 238 968 250 954 q 225 999 225 982 q 249 1037 225 1025 l 423 1124 q 444 1129 433 1129 q 474 1115 462 1129 q 487 1084 487 1101 m 652 42 q 606 0 652 0 q 567 30 576 0 l 490 260 l 205 260 l 128 30 q 88 0 118 0 q 43 42 43 0 q 46 57 43 49 l 304 832 q 347 868 316 868 q 391 832 378 868 l 649 57 q 652 42 652 49 m 461 347 l 347 688 l 234 347 l 461 347 z "},"Â":{"ha":694,"x_min":43,"x_max":652,"o":"m 521 999 q 508 968 521 982 q 478 954 495 954 q 453 962 465 954 l 347 1033 l 241 962 q 216 954 229 954 q 186 968 199 954 q 173 999 173 982 q 193 1034 173 1021 l 319 1119 q 347 1129 335 1129 q 375 1119 359 1129 l 502 1034 q 521 999 521 1021 m 652 42 q 606 0 652 0 q 567 30 576 0 l 490 260 l 205 260 l 128 30 q 88 0 118 0 q 43 42 43 0 q 46 57 43 49 l 304 832 q 347 868 316 868 q 391 832 378 868 l 649 57 q 652 42 652 49 m 461 347 l 347 688 l 234 347 l 461 347 z "},"Ã":{"ha":694,"x_min":43,"x_max":652,"o":"m 573 1043 q 563 1012 573 1030 q 443 955 530 955 q 341 998 394 955 q 269 1042 288 1042 q 223 1028 240 1042 q 183 998 214 998 q 138 1040 138 998 q 149 1071 138 1054 q 269 1128 182 1128 q 371 1085 318 1128 q 443 1042 424 1042 q 493 1063 478 1042 q 528 1085 508 1085 q 573 1043 573 1085 m 652 42 q 606 0 652 0 q 567 30 576 0 l 490 260 l 205 260 l 128 30 q 88 0 118 0 q 43 42 43 0 q 46 57 43 49 l 304 832 q 347 868 316 868 q 391 832 378 868 l 649 57 q 652 42 652 49 m 461 347 l 347 688 l 234 347 l 461 347 z "},"Ä":{"ha":694,"x_min":43,"x_max":652,"o":"m 543 1020 q 524 974 543 993 q 477 955 505 955 q 431 974 450 955 q 413 1020 413 993 q 431 1066 413 1047 q 477 1085 450 1085 q 524 1066 505 1085 q 543 1020 543 1047 m 282 1020 q 263 974 282 993 q 217 955 244 955 q 171 974 190 955 q 152 1020 152 993 q 171 1066 152 1047 q 217 1085 190 1085 q 263 1066 244 1085 q 282 1020 282 1047 m 652 42 q 606 0 652 0 q 567 30 576 0 l 490 260 l 205 260 l 128 30 q 88 0 118 0 q 43 42 43 0 q 46 57 43 49 l 304 832 q 347 868 316 868 q 391 832 378 868 l 649 57 q 652 42 652 49 m 461 347 l 347 688 l 234 347 l 461 347 z "},"Å":{"ha":694,"x_min":43,"x_max":652,"o":"m 473 1002 q 436 914 473 950 q 347 878 399 878 q 258 914 295 878 q 222 1002 222 950 q 258 1090 222 1053 q 347 1127 295 1127 q 436 1090 399 1127 q 473 1002 473 1053 m 652 42 q 606 0 652 0 q 567 30 576 0 l 490 260 l 205 260 l 128 30 q 88 0 118 0 q 43 42 43 0 q 46 57 43 49 l 304 832 q 347 868 316 868 q 391 832 378 868 l 649 57 q 652 42 652 49 m 387 1002 q 347 1041 387 1041 q 308 1002 308 1041 q 347 965 308 965 q 387 1002 387 965 m 461 347 l 347 688 l 234 347 l 461 347 z "},"Æ":{"ha":694,"x_min":43,"x_max":651,"o":"m 651 434 q 608 391 651 391 l 443 391 l 443 87 l 608 87 q 651 43 651 87 q 608 0 651 0 l 399 0 q 356 43 356 0 l 356 260 l 220 260 l 127 27 q 88 -1 116 -1 q 57 12 71 -1 q 43 42 43 24 q 46 60 43 50 l 357 836 q 370 858 363 851 l 368 856 q 398 869 381 869 l 608 868 q 651 825 651 868 q 608 781 651 781 l 443 781 l 443 477 l 608 477 q 651 434 651 477 m 374 861 q 370 858 373 861 l 374 861 m 368 856 m 356 347 l 356 600 l 255 347 l 356 347 z "},"Ç":{"ha":694,"x_min":43,"x_max":652,"o":"m 652 158 q 600 85 652 130 q 520 30 557 49 q 565 -87 565 -20 q 514 -209 565 -159 q 392 -260 464 -260 q 241 -173 289 -260 q 235 -150 235 -161 q 249 -120 235 -133 q 281 -108 263 -108 q 326 -141 297 -108 q 392 -174 354 -174 q 453 -148 428 -174 q 479 -87 479 -123 q 453 -25 479 -51 q 392 0 428 0 q 134 142 235 0 q 43 434 43 270 q 134 726 43 598 q 392 868 235 868 q 532 832 463 868 q 642 737 601 795 q 652 710 652 723 q 638 679 652 693 q 606 666 624 666 q 573 683 590 666 q 548 712 565 693 q 392 781 480 781 q 242 718 310 781 q 153 578 182 662 q 130 434 130 510 q 153 291 130 358 q 242 150 182 206 q 392 87 310 87 q 548 156 480 87 q 573 185 556 166 q 606 202 590 202 q 638 189 624 202 q 652 158 652 175 z "},"È":{"ha":694,"x_min":101,"x_max":651,"o":"m 521 999 q 509 968 521 982 q 479 954 497 954 q 458 959 468 954 l 284 1046 q 260 1084 260 1058 q 272 1115 260 1101 q 303 1129 285 1129 q 323 1124 313 1129 l 497 1037 q 521 999 521 1025 m 651 43 q 608 0 651 0 l 145 0 q 114 13 127 0 q 101 43 101 26 l 101 825 q 114 855 101 842 q 145 868 127 868 l 608 868 q 651 825 651 868 q 608 781 651 781 l 188 781 l 188 477 l 608 477 q 651 434 651 477 q 608 391 651 391 l 188 391 l 188 87 l 608 87 q 651 43 651 87 z "},"É":{"ha":694,"x_min":101,"x_max":651,"o":"m 521 1084 q 497 1046 521 1058 l 323 959 q 303 954 313 954 q 272 968 285 954 q 260 999 260 982 q 284 1037 260 1025 l 458 1124 q 479 1129 468 1129 q 509 1115 497 1129 q 521 1084 521 1101 m 651 43 q 608 0 651 0 l 145 0 q 114 13 127 0 q 101 43 101 26 l 101 825 q 114 855 101 842 q 145 868 127 868 l 608 868 q 651 825 651 868 q 608 781 651 781 l 188 781 l 188 477 l 608 477 q 651 434 651 477 q 608 391 651 391 l 188 391 l 188 87 l 608 87 q 651 43 651 87 z "},"Ê":{"ha":694,"x_min":101,"x_max":651,"o":"m 565 999 q 552 968 565 982 q 521 954 539 954 q 497 962 509 954 l 391 1033 l 285 962 q 260 954 273 954 q 229 968 242 954 q 216 999 216 982 q 236 1034 216 1021 l 363 1119 q 391 1129 378 1129 q 418 1119 403 1129 l 545 1034 q 565 999 565 1021 m 651 43 q 608 0 651 0 l 145 0 q 114 13 127 0 q 101 43 101 26 l 101 825 q 114 855 101 842 q 145 868 127 868 l 608 868 q 651 825 651 868 q 608 781 651 781 l 188 781 l 188 477 l 608 477 q 651 434 651 477 q 608 391 651 391 l 188 391 l 188 87 l 608 87 q 651 43 651 87 z "},"Ë":{"ha":694,"x_min":101,"x_max":651,"o":"m 586 1020 q 567 974 586 993 q 520 955 547 955 q 475 974 494 955 q 455 1020 455 993 q 475 1066 455 1047 q 520 1085 494 1085 q 567 1066 547 1085 q 586 1020 586 1047 m 325 1020 q 306 974 325 993 q 260 955 287 955 q 214 974 233 955 q 195 1020 195 993 q 214 1066 195 1047 q 260 1085 233 1085 q 306 1066 287 1085 q 325 1020 325 1047 m 651 43 q 608 0 651 0 l 145 0 q 114 13 127 0 q 101 43 101 26 l 101 825 q 114 855 101 842 q 145 868 127 868 l 608 868 q 651 825 651 868 q 608 781 651 781 l 188 781 l 188 477 l 608 477 q 651 434 651 477 q 608 391 651 391 l 188 391 l 188 87 l 608 87 q 651 43 651 87 z "},"Ì":{"ha":694,"x_min":130,"x_max":564,"o":"m 478 999 q 466 968 478 982 q 435 954 453 954 q 414 959 425 954 l 241 1046 q 216 1084 216 1058 q 229 1115 216 1101 q 259 1129 241 1129 q 280 1124 270 1129 l 454 1037 q 478 999 478 1025 m 564 43 q 521 0 564 0 l 174 0 q 130 43 130 0 q 174 87 130 87 l 302 87 l 302 781 l 174 781 q 130 825 130 781 q 174 868 130 868 l 521 868 q 564 825 564 868 q 521 781 564 781 l 389 781 l 389 87 l 521 87 q 564 43 564 87 z "},"Í":{"ha":694,"x_min":130,"x_max":564,"o":"m 478 1084 q 454 1046 478 1058 l 280 959 q 259 954 270 954 q 229 968 241 954 q 216 999 216 982 q 241 1037 216 1025 l 414 1124 q 435 1129 425 1129 q 466 1115 453 1129 q 478 1084 478 1101 m 564 43 q 521 0 564 0 l 174 0 q 130 43 130 0 q 174 87 130 87 l 302 87 l 302 781 l 174 781 q 130 825 130 781 q 174 868 130 868 l 521 868 q 564 825 564 868 q 521 781 564 781 l 389 781 l 389 87 l 521 87 q 564 43 564 87 z "},"Î":{"ha":694,"x_min":130,"x_max":564,"o":"m 521 999 q 508 968 521 982 q 478 954 495 954 q 453 962 465 954 l 347 1033 l 241 962 q 216 954 229 954 q 186 968 199 954 q 173 999 173 982 q 193 1034 173 1021 l 319 1119 q 347 1129 335 1129 q 375 1119 359 1129 l 502 1034 q 521 999 521 1021 m 564 43 q 521 0 564 0 l 174 0 q 130 43 130 0 q 174 87 130 87 l 304 87 l 304 781 l 174 781 q 130 825 130 781 q 174 868 130 868 l 521 868 q 564 825 564 868 q 521 781 564 781 l 391 781 l 391 87 l 521 87 q 564 43 564 87 z "},"Ï":{"ha":694,"x_min":130,"x_max":564,"o":"m 543 1020 q 523 974 543 993 q 477 955 504 955 q 431 974 450 955 q 413 1020 413 993 q 431 1066 413 1047 q 477 1085 450 1085 q 523 1066 504 1085 q 543 1020 543 1047 m 282 1020 q 263 974 282 993 q 217 955 244 955 q 171 974 190 955 q 152 1020 152 993 q 171 1066 152 1047 q 217 1085 190 1085 q 263 1066 244 1085 q 282 1020 282 1047 m 564 43 q 521 0 564 0 l 174 0 q 130 43 130 0 q 174 87 130 87 l 304 87 l 304 781 l 174 781 q 130 825 130 781 q 174 868 130 868 l 521 868 q 564 825 564 868 q 521 781 564 781 l 391 781 l 391 87 l 521 87 q 564 43 564 87 z "},"Ð":{"ha":694,"x_min":43,"x_max":651,"o":"m 651 434 q 524 127 651 255 q 217 0 396 0 q 187 13 200 0 q 174 43 174 26 l 174 391 l 87 391 q 43 434 43 391 q 87 477 43 477 l 174 477 l 174 825 q 187 855 174 842 q 217 868 200 868 q 524 741 396 868 q 651 434 651 613 m 564 434 q 477 663 564 565 q 260 778 391 762 l 260 477 l 347 477 q 391 434 391 477 q 347 391 391 391 l 260 391 l 260 90 q 477 205 391 106 q 564 434 564 303 z "},"Ñ":{"ha":694,"x_min":101,"x_max":594,"o":"m 565 1043 q 554 1012 565 1030 q 434 955 521 955 q 332 998 385 955 q 260 1042 279 1042 q 215 1028 231 1042 q 175 998 205 998 q 130 1040 130 998 q 140 1071 130 1054 q 260 1128 174 1128 q 363 1085 310 1128 q 434 1042 416 1042 q 484 1063 469 1042 q 520 1085 499 1085 q 565 1043 565 1085 m 594 43 q 549 -1 594 -1 q 509 29 524 -1 l 188 646 l 188 43 q 145 0 188 0 q 101 43 101 0 l 101 825 q 146 869 101 869 q 186 839 171 869 l 506 222 l 506 825 q 550 868 506 868 q 593 825 593 868 l 594 43 z "},"Ò":{"ha":694,"x_min":43,"x_max":651,"o":"m 487 999 q 474 968 487 982 q 444 954 462 954 q 423 959 433 954 l 249 1046 q 225 1084 225 1058 q 238 1115 225 1101 q 268 1129 250 1129 q 289 1124 278 1129 l 462 1037 q 487 999 487 1025 m 651 434 q 578 151 651 278 q 347 0 491 0 q 116 151 203 0 q 43 434 43 278 q 116 717 43 590 q 347 868 203 868 q 578 717 491 868 q 651 434 651 590 m 564 434 q 545 576 564 510 q 476 712 523 655 q 347 781 418 781 q 219 712 277 781 q 149 576 172 655 q 130 434 130 510 q 149 292 130 358 q 219 156 172 213 q 347 87 277 87 q 476 156 418 87 q 545 292 523 213 q 564 434 564 358 z "},"Ó":{"ha":694,"x_min":43,"x_max":651,"o":"m 487 1084 q 462 1046 487 1058 l 289 959 q 268 954 278 954 q 238 968 250 954 q 225 999 225 982 q 249 1037 225 1025 l 423 1124 q 444 1129 433 1129 q 474 1115 462 1129 q 487 1084 487 1101 m 651 434 q 578 151 651 278 q 347 0 491 0 q 116 151 203 0 q 43 434 43 278 q 116 717 43 590 q 347 868 203 868 q 578 717 491 868 q 651 434 651 590 m 564 434 q 545 576 564 510 q 476 712 523 655 q 347 781 418 781 q 219 712 277 781 q 149 576 172 655 q 130 434 130 510 q 149 292 130 358 q 219 156 172 213 q 347 87 277 87 q 476 156 418 87 q 545 292 523 213 q 564 434 564 358 z "},"Ô":{"ha":694,"x_min":43,"x_max":651,"o":"m 521 999 q 508 968 521 982 q 478 954 495 954 q 453 962 465 954 l 347 1033 l 241 962 q 216 954 229 954 q 186 968 199 954 q 173 999 173 982 q 193 1034 173 1021 l 319 1119 q 347 1129 335 1129 q 375 1119 359 1129 l 502 1034 q 521 999 521 1021 m 651 434 q 578 151 651 278 q 347 0 491 0 q 116 151 203 0 q 43 434 43 278 q 116 717 43 590 q 347 868 203 868 q 578 717 491 868 q 651 434 651 590 m 564 434 q 545 576 564 510 q 476 712 523 655 q 347 781 418 781 q 219 712 277 781 q 149 576 172 655 q 130 434 130 510 q 149 292 130 358 q 219 156 172 213 q 347 87 277 87 q 476 156 418 87 q 545 292 523 213 q 564 434 564 358 z "},"Õ":{"ha":694,"x_min":43,"x_max":651,"o":"m 573 1043 q 563 1012 573 1030 q 443 955 530 955 q 341 998 394 955 q 269 1042 288 1042 q 223 1028 240 1042 q 183 998 214 998 q 138 1040 138 998 q 149 1071 138 1054 q 269 1128 182 1128 q 371 1085 318 1128 q 443 1042 424 1042 q 493 1063 478 1042 q 528 1085 508 1085 q 573 1043 573 1085 m 651 434 q 578 151 651 278 q 347 0 491 0 q 116 151 203 0 q 43 434 43 278 q 116 717 43 590 q 347 868 203 868 q 578 717 491 868 q 651 434 651 590 m 564 434 q 545 576 564 510 q 476 712 523 655 q 347 781 418 781 q 219 712 277 781 q 149 576 172 655 q 130 434 130 510 q 149 292 130 358 q 219 156 172 213 q 347 87 277 87 q 476 156 418 87 q 545 292 523 213 q 564 434 564 358 z "},"Ö":{"ha":694,"x_min":43,"x_max":651,"o":"m 543 1020 q 524 974 543 993 q 477 955 505 955 q 431 974 450 955 q 413 1020 413 993 q 431 1066 413 1047 q 477 1085 450 1085 q 524 1066 505 1085 q 543 1020 543 1047 m 282 1020 q 263 974 282 993 q 217 955 244 955 q 171 974 190 955 q 152 1020 152 993 q 171 1066 152 1047 q 217 1085 190 1085 q 263 1066 244 1085 q 282 1020 282 1047 m 651 434 q 578 151 651 278 q 347 0 491 0 q 116 151 203 0 q 43 434 43 278 q 116 717 43 590 q 347 868 203 868 q 578 717 491 868 q 651 434 651 590 m 564 434 q 545 576 564 510 q 476 712 523 655 q 347 781 418 781 q 219 712 277 781 q 149 576 172 655 q 130 434 130 510 q 149 292 130 358 q 219 156 172 213 q 347 87 277 87 q 476 156 418 87 q 545 292 523 213 q 564 434 564 358 z "},"×":{"ha":694,"x_min":119,"x_max":576,"o":"m 576 120 q 562 89 576 102 q 531 75 549 75 q 501 89 514 75 l 347 242 l 194 89 q 163 75 181 75 q 132 89 146 75 q 119 120 119 102 q 133 150 119 137 l 286 304 l 133 457 q 119 488 119 470 q 132 519 119 505 q 163 532 146 532 q 194 519 181 532 l 347 365 l 501 519 q 531 532 514 532 q 562 519 549 532 q 576 488 576 505 q 562 457 576 470 l 409 304 l 562 150 q 576 120 576 137 z "},"Ø":{"ha":694,"x_min":43,"x_max":652,"o":"m 652 825 q 583 709 652 811 q 651 434 651 588 q 578 151 651 278 q 347 0 491 0 q 166 84 245 0 l 123 19 q 88 -1 109 -1 q 57 12 71 -1 q 43 43 43 25 q 112 159 43 57 q 43 434 43 280 q 116 717 43 590 q 347 868 203 868 q 528 784 450 868 l 572 849 q 606 869 585 869 q 638 856 624 869 q 652 825 652 843 m 478 709 q 347 781 418 781 q 222 716 279 781 q 152 586 176 662 q 130 434 130 516 q 167 242 130 328 l 478 709 m 564 434 q 528 626 564 541 l 216 159 q 347 87 276 87 q 472 153 416 87 q 542 282 519 206 q 564 434 564 352 z "},"Ù":{"ha":694,"x_min":72,"x_max":622,"o":"m 478 999 q 466 968 478 982 q 435 954 453 954 q 414 959 425 954 l 241 1046 q 216 1084 216 1058 q 229 1115 216 1101 q 259 1129 241 1129 q 280 1124 270 1129 l 454 1037 q 478 999 478 1025 m 622 275 q 542 80 622 161 q 347 0 461 0 q 153 80 233 0 q 72 275 72 161 l 72 825 q 116 868 72 868 q 159 825 159 868 l 159 275 q 214 142 159 197 q 347 87 270 87 q 480 142 425 87 q 535 275 535 197 l 535 825 q 579 868 535 868 q 622 825 622 868 l 622 275 z "},"Ú":{"ha":694,"x_min":72,"x_max":622,"o":"m 478 1084 q 454 1046 478 1058 l 280 959 q 259 954 270 954 q 229 968 241 954 q 216 999 216 982 q 241 1037 216 1025 l 414 1124 q 435 1129 425 1129 q 466 1115 453 1129 q 478 1084 478 1101 m 622 275 q 542 80 622 161 q 347 0 461 0 q 153 80 233 0 q 72 275 72 161 l 72 825 q 116 868 72 868 q 159 825 159 868 l 159 275 q 214 142 159 197 q 347 87 270 87 q 480 142 425 87 q 535 275 535 197 l 535 825 q 579 868 535 868 q 622 825 622 868 l 622 275 z "},"Û":{"ha":694,"x_min":72,"x_max":622,"o":"m 521 999 q 508 968 521 982 q 478 954 495 954 q 453 962 465 954 l 347 1033 l 241 962 q 216 954 229 954 q 186 968 199 954 q 173 999 173 982 q 193 1034 173 1021 l 319 1119 q 347 1129 335 1129 q 375 1119 359 1129 l 502 1034 q 521 999 521 1021 m 622 275 q 542 80 622 161 q 347 0 461 0 q 153 80 233 0 q 72 275 72 161 l 72 825 q 116 868 72 868 q 159 825 159 868 l 159 275 q 214 142 159 197 q 347 87 270 87 q 480 142 425 87 q 535 275 535 197 l 535 825 q 579 868 535 868 q 622 825 622 868 l 622 275 z "},"Ü":{"ha":694,"x_min":72,"x_max":622,"o":"m 543 1020 q 524 974 543 993 q 477 955 505 955 q 431 974 450 955 q 413 1020 413 993 q 431 1066 413 1047 q 477 1085 450 1085 q 524 1066 505 1085 q 543 1020 543 1047 m 282 1020 q 263 974 282 993 q 217 955 244 955 q 171 974 190 955 q 152 1020 152 993 q 171 1066 152 1047 q 217 1085 190 1085 q 263 1066 244 1085 q 282 1020 282 1047 m 622 275 q 542 80 622 161 q 347 0 461 0 q 153 80 233 0 q 72 275 72 161 l 72 825 q 116 868 72 868 q 159 825 159 868 l 159 275 q 214 142 159 197 q 347 87 270 87 q 480 142 425 87 q 535 275 535 197 l 535 825 q 579 868 535 868 q 622 825 622 868 l 622 275 z "},"Ý":{"ha":694,"x_min":43,"x_max":652,"o":"m 478 1084 q 454 1046 478 1058 l 280 959 q 259 954 270 954 q 229 968 241 954 q 216 999 216 982 q 241 1037 216 1025 l 414 1124 q 435 1129 425 1129 q 466 1115 453 1129 q 478 1084 478 1101 m 652 825 q 644 800 652 813 l 391 421 l 391 43 q 347 0 391 0 q 304 43 304 0 l 304 421 l 51 800 q 43 825 43 813 q 57 856 43 843 q 88 869 71 869 q 123 849 109 869 l 347 512 l 572 849 q 606 869 585 869 q 638 856 624 869 q 652 825 652 843 z "},"Þ":{"ha":694,"x_min":101,"x_max":651,"o":"m 651 434 q 562 219 651 308 q 347 130 473 130 l 188 130 l 188 43 q 145 0 188 0 q 101 43 101 0 l 101 825 q 145 868 101 868 q 188 825 188 868 l 188 738 l 347 738 q 562 649 473 738 q 651 434 651 560 m 564 434 q 501 587 564 524 q 347 651 437 651 l 188 651 l 188 217 l 347 217 q 501 281 437 217 q 564 434 564 344 z "},"ß":{"ha":694,"x_min":100,"x_max":651,"o":"m 651 196 q 594 57 651 115 q 456 0 536 0 q 345 35 395 0 q 273 126 295 69 q 270 143 270 135 q 284 173 270 160 q 315 185 297 185 q 352 160 336 185 q 386 112 380 119 q 456 87 413 87 q 532 119 501 87 q 564 196 564 150 q 532 272 564 240 q 456 304 501 304 q 348 348 393 304 q 304 456 304 393 q 360 571 304 519 q 416 675 416 623 q 384 750 416 719 q 310 781 353 781 q 223 745 259 781 q 186 658 186 709 l 186 43 q 143 0 186 0 q 100 43 100 0 l 100 658 q 161 806 100 745 q 310 868 223 868 q 446 812 389 868 q 502 675 502 755 q 421 511 502 578 q 391 456 391 486 q 410 410 391 429 q 456 391 429 391 q 594 333 536 391 q 651 196 651 276 z "},"à":{"ha":694,"x_min":43,"x_max":622,"o":"m 464 739 q 451 708 464 722 q 421 694 439 694 q 400 699 410 694 l 226 786 q 202 823 202 798 q 214 855 202 841 q 245 869 227 869 q 266 863 255 869 l 439 777 q 464 739 464 764 m 622 43 q 579 0 622 0 q 535 61 534 0 q 333 0 450 0 q 141 54 226 0 q 43 217 43 116 q 141 380 43 318 q 333 434 226 434 q 535 373 450 434 l 535 391 q 517 442 535 416 q 333 521 464 521 q 184 478 258 521 q 158 469 169 469 q 128 483 141 469 q 115 514 115 497 q 205 586 115 557 q 333 608 276 608 q 524 554 439 608 q 622 391 622 491 l 622 43 m 535 217 q 496 293 535 258 q 418 335 463 322 q 333 347 378 347 q 146 265 198 347 q 130 217 130 241 q 146 169 130 193 q 333 87 198 87 q 418 99 378 87 q 496 141 463 112 q 535 217 535 176 z "},"á":{"ha":694,"x_min":43,"x_max":622,"o":"m 464 823 q 439 786 464 798 l 266 699 q 245 694 255 694 q 214 708 227 694 q 202 739 202 722 q 226 777 202 764 l 400 863 q 421 869 410 869 q 451 855 439 869 q 464 823 464 841 m 622 43 q 579 0 622 0 q 535 61 534 0 q 333 0 450 0 q 141 54 226 0 q 43 217 43 116 q 141 380 43 318 q 333 434 226 434 q 535 373 450 434 l 535 391 q 517 442 535 416 q 333 521 464 521 q 184 478 258 521 q 158 469 169 469 q 128 483 141 469 q 115 514 115 497 q 205 586 115 557 q 333 608 276 608 q 524 554 439 608 q 622 391 622 491 l 622 43 m 535 217 q 496 293 535 258 q 418 335 463 322 q 333 347 378 347 q 146 265 198 347 q 130 217 130 241 q 146 169 130 193 q 333 87 198 87 q 418 99 378 87 q 496 141 463 112 q 535 217 535 176 z "},"â":{"ha":694,"x_min":43,"x_max":622,"o":"m 507 739 q 494 708 507 722 q 464 694 481 694 q 439 702 451 694 l 333 773 l 227 702 q 202 694 215 694 q 172 708 185 694 q 159 739 159 722 q 178 774 159 760 l 305 858 q 333 869 321 869 q 361 858 345 869 l 487 774 q 507 739 507 760 m 622 43 q 579 0 622 0 q 535 61 534 0 q 333 0 450 0 q 141 54 226 0 q 43 217 43 116 q 141 380 43 318 q 333 434 226 434 q 535 373 450 434 l 535 391 q 517 442 535 416 q 333 521 464 521 q 184 478 258 521 q 158 469 169 469 q 128 483 141 469 q 115 514 115 497 q 205 586 115 557 q 333 608 276 608 q 524 554 439 608 q 622 391 622 491 l 622 43 m 535 217 q 496 293 535 258 q 418 335 463 322 q 333 347 378 347 q 146 265 198 347 q 130 217 130 241 q 146 169 130 193 q 333 87 198 87 q 418 99 378 87 q 496 141 463 112 q 535 217 535 176 z "},"ã":{"ha":694,"x_min":43,"x_max":622,"o":"m 550 783 q 540 752 550 769 q 420 694 506 694 q 317 738 370 694 q 246 781 264 781 q 200 767 216 781 q 160 738 190 738 q 115 780 115 738 q 126 811 115 793 q 246 868 159 868 q 348 825 295 868 q 420 781 401 781 q 470 803 455 781 q 505 825 484 825 q 550 783 550 825 m 622 43 q 579 0 622 0 q 535 61 534 0 q 333 0 450 0 q 141 54 226 0 q 43 217 43 116 q 141 380 43 318 q 333 434 226 434 q 535 373 450 434 l 535 391 q 517 442 535 416 q 333 521 464 521 q 184 478 258 521 q 158 469 169 469 q 128 483 141 469 q 115 514 115 497 q 205 586 115 557 q 333 608 276 608 q 524 554 439 608 q 622 391 622 491 l 622 43 m 535 217 q 496 293 535 258 q 418 335 463 322 q 333 347 378 347 q 146 265 198 347 q 130 217 130 241 q 146 169 130 193 q 333 87 198 87 q 418 99 378 87 q 496 141 463 112 q 535 217 535 176 z "},"ä":{"ha":694,"x_min":43,"x_max":622,"o":"m 528 760 q 509 714 528 733 q 463 694 490 694 q 417 714 436 694 q 398 760 398 733 q 417 806 398 787 q 463 825 436 825 q 509 806 490 825 q 528 760 528 787 m 268 760 q 249 714 268 733 q 203 694 229 694 q 157 714 175 694 q 138 760 138 733 q 157 806 138 787 q 203 825 175 825 q 249 806 229 825 q 268 760 268 787 m 622 43 q 579 0 622 0 q 535 61 534 0 q 333 0 450 0 q 141 54 226 0 q 43 217 43 116 q 141 380 43 318 q 333 434 226 434 q 535 373 450 434 l 535 391 q 517 442 535 416 q 333 521 464 521 q 184 478 258 521 q 158 469 169 469 q 128 483 141 469 q 115 514 115 497 q 205 586 115 557 q 333 608 276 608 q 524 554 439 608 q 622 391 622 491 l 622 43 m 535 217 q 496 293 535 258 q 418 335 463 322 q 333 347 378 347 q 146 265 198 347 q 130 217 130 241 q 146 169 130 193 q 333 87 198 87 q 418 99 378 87 q 496 141 463 112 q 535 217 535 176 z "},"å":{"ha":694,"x_min":43,"x_max":622,"o":"m 459 759 q 422 671 459 707 q 333 635 385 635 q 244 671 281 635 q 207 759 207 707 q 244 847 207 810 q 333 884 281 884 q 422 847 385 884 q 459 759 459 810 m 622 43 q 579 0 622 0 q 535 61 534 0 q 333 0 450 0 q 141 54 226 0 q 43 217 43 116 q 141 380 43 318 q 333 434 226 434 q 535 373 450 434 l 535 391 q 517 442 535 416 q 333 521 464 521 q 184 478 258 521 q 158 469 169 469 q 128 483 141 469 q 115 514 115 497 q 205 586 115 557 q 333 608 276 608 q 524 554 439 608 q 622 391 622 491 l 622 43 m 372 759 q 333 797 372 797 q 294 759 294 797 q 333 722 294 722 q 372 759 372 722 m 535 217 q 496 293 535 258 q 418 335 463 322 q 333 347 378 347 q 146 265 198 347 q 130 217 130 241 q 146 169 130 193 q 333 87 198 87 q 418 99 378 87 q 496 141 463 112 q 535 217 535 176 z "},"æ":{"ha":694,"x_min":43,"x_max":652,"o":"m 652 439 q 639 405 652 420 q 542 296 606 369 q 418 161 502 249 q 487 87 446 87 q 566 186 525 87 q 606 217 579 217 q 652 175 652 217 q 649 161 652 168 q 592 53 630 97 q 487 0 546 0 q 356 87 406 0 q 217 0 306 0 q 88 71 138 0 q 43 217 43 135 q 88 363 43 299 q 217 434 138 434 q 303 406 264 434 q 279 480 300 447 q 217 521 253 521 q 167 495 191 521 q 126 469 143 469 q 94 482 108 469 q 80 513 80 495 q 90 539 80 525 q 217 608 135 608 q 356 520 306 608 q 487 608 407 608 q 595 549 539 608 q 652 439 652 491 m 558 444 q 487 521 527 521 q 451 502 470 521 q 391 304 391 441 q 393 267 391 288 l 558 444 m 304 217 q 283 300 304 262 q 217 347 258 347 q 151 300 177 347 q 130 217 130 262 q 151 134 130 172 q 217 87 177 87 q 283 134 258 87 q 304 217 304 172 z "},"ç":{"ha":694,"x_min":43,"x_max":652,"o":"m 652 489 q 638 457 652 471 q 608 444 625 444 q 579 455 595 444 q 392 521 486 521 q 215 463 292 521 q 130 304 130 400 q 215 145 130 208 q 392 87 292 87 q 579 152 486 87 q 607 163 595 163 q 638 150 625 163 q 652 119 652 136 q 526 23 652 69 q 565 -87 565 -25 q 514 -209 565 -159 q 392 -260 464 -260 q 241 -173 289 -260 q 235 -150 235 -161 q 249 -120 235 -133 q 281 -108 263 -108 q 326 -141 298 -108 q 392 -174 353 -174 q 453 -148 428 -174 q 479 -87 479 -123 q 453 -25 479 -51 q 392 0 428 0 q 153 83 256 0 q 43 304 43 171 q 153 525 43 437 q 392 608 256 608 q 522 586 455 608 q 636 521 597 561 q 652 489 652 505 z "},"è":{"ha":694,"x_min":43,"x_max":652,"o":"m 497 739 q 484 708 497 722 q 454 694 472 694 q 433 699 444 694 l 260 786 q 236 823 236 798 q 248 855 236 841 q 278 869 260 869 q 299 863 288 869 l 472 777 q 497 739 497 764 m 652 174 q 645 150 652 163 q 525 40 605 81 q 366 0 449 0 q 141 86 236 0 q 43 304 43 175 q 141 521 43 433 q 366 608 236 608 q 465 591 413 608 q 580 530 523 572 q 651 431 651 478 q 628 396 651 408 l 190 160 q 366 87 261 87 q 546 164 477 87 q 571 196 554 175 q 606 218 587 218 q 638 205 624 218 q 652 174 652 192 m 542 448 q 366 521 472 521 q 203 460 272 521 q 130 304 130 396 q 143 233 130 267 l 542 448 z "},"é":{"ha":694,"x_min":43,"x_max":652,"o":"m 497 823 q 472 786 497 798 l 299 699 q 278 694 288 694 q 248 708 260 694 q 236 739 236 722 q 260 777 236 764 l 433 863 q 454 869 444 869 q 484 855 472 869 q 497 823 497 841 m 652 174 q 645 150 652 163 q 525 40 605 81 q 366 0 449 0 q 141 86 236 0 q 43 304 43 175 q 141 521 43 433 q 366 608 236 608 q 465 591 413 608 q 580 530 523 572 q 651 431 651 478 q 628 396 651 408 l 190 160 q 366 87 261 87 q 546 164 477 87 q 571 196 554 175 q 606 218 587 218 q 638 205 624 218 q 652 174 652 192 m 542 448 q 366 521 472 521 q 203 460 272 521 q 130 304 130 396 q 143 233 130 267 l 542 448 z "},"ê":{"ha":694,"x_min":43,"x_max":652,"o":"m 540 739 q 527 708 540 722 q 497 694 514 694 q 472 702 484 694 l 366 773 l 260 702 q 235 694 248 694 q 205 708 218 694 q 192 739 192 722 q 212 774 192 760 l 339 858 q 366 869 354 869 q 394 858 378 869 l 520 774 q 540 739 540 760 m 652 174 q 645 150 652 163 q 525 40 605 81 q 366 0 449 0 q 141 86 236 0 q 43 304 43 175 q 141 521 43 433 q 366 608 236 608 q 465 591 413 608 q 580 530 523 572 q 651 431 651 478 q 628 396 651 408 l 190 160 q 366 87 261 87 q 546 164 477 87 q 571 196 554 175 q 606 218 587 218 q 638 205 624 218 q 652 174 652 192 m 542 448 q 366 521 472 521 q 203 460 272 521 q 130 304 130 396 q 143 233 130 267 l 542 448 z "},"ë":{"ha":694,"x_min":43,"x_max":652,"o":"m 561 760 q 542 714 561 733 q 496 694 523 694 q 450 714 469 694 q 431 760 431 733 q 450 806 431 787 q 496 825 469 825 q 542 806 523 825 q 561 760 561 787 m 301 760 q 282 714 301 733 q 236 694 262 694 q 190 714 208 694 q 171 760 171 733 q 190 806 171 787 q 236 825 208 825 q 282 806 263 825 q 301 760 301 787 m 652 174 q 645 150 652 163 q 525 40 605 81 q 366 0 449 0 q 141 86 236 0 q 43 304 43 175 q 141 521 43 433 q 366 608 236 608 q 465 591 413 608 q 580 530 523 572 q 651 431 651 478 q 628 396 651 408 l 190 160 q 366 87 261 87 q 546 164 477 87 q 571 196 554 175 q 606 218 587 218 q 638 205 624 218 q 652 174 652 192 m 542 448 q 366 521 472 521 q 203 460 272 521 q 130 304 130 396 q 143 233 130 267 l 542 448 z "},"ì":{"ha":694,"x_min":130,"x_max":564,"o":"m 478 739 q 466 708 478 722 q 435 694 453 694 q 414 699 425 694 l 241 786 q 216 823 216 798 q 229 855 216 841 q 259 869 241 869 q 280 863 270 869 l 454 777 q 478 739 478 764 m 564 43 q 521 0 564 0 l 347 0 q 304 43 304 0 l 304 521 l 174 521 q 130 564 130 521 q 174 608 130 608 l 348 608 q 391 564 391 608 l 391 87 l 521 87 q 564 43 564 87 z "},"í":{"ha":694,"x_min":130,"x_max":564,"o":"m 478 823 q 454 786 478 798 l 280 699 q 259 694 270 694 q 229 708 241 694 q 216 739 216 722 q 241 777 216 764 l 414 863 q 435 869 425 869 q 466 855 453 869 q 478 823 478 841 m 564 43 q 521 0 564 0 l 347 0 q 304 43 304 0 l 304 521 l 174 521 q 130 564 130 521 q 174 608 130 608 l 348 608 q 391 564 391 608 l 391 87 l 521 87 q 564 43 564 87 z "},"î":{"ha":694,"x_min":130,"x_max":564,"o":"m 521 739 q 508 708 521 722 q 478 694 495 694 q 453 702 465 694 l 347 773 l 241 702 q 216 694 229 694 q 186 708 199 694 q 173 739 173 722 q 193 774 173 760 l 319 858 q 347 869 335 869 q 375 858 359 869 l 502 774 q 521 739 521 760 m 564 43 q 521 0 564 0 l 347 0 q 304 43 304 0 l 304 521 l 174 521 q 130 564 130 521 q 174 608 130 608 l 348 608 q 391 564 391 608 l 391 87 l 521 87 q 564 43 564 87 z "},"ï":{"ha":694,"x_min":130,"x_max":564,"o":"m 543 760 q 523 714 543 733 q 477 694 504 694 q 431 714 450 694 q 413 760 413 733 q 431 806 413 787 q 477 825 450 825 q 523 806 504 825 q 543 760 543 787 m 282 760 q 263 714 282 733 q 216 694 244 694 q 171 714 190 694 q 152 760 152 733 q 171 806 152 787 q 216 825 190 825 q 263 806 244 825 q 282 760 282 787 m 564 43 q 521 0 564 0 l 347 0 q 303 43 303 0 l 304 521 l 174 521 q 130 564 130 521 q 174 608 130 608 l 347 608 q 391 559 391 608 l 391 87 l 521 87 q 564 43 564 87 z "},"ð":{"ha":694,"x_min":43,"x_max":651,"o":"m 651 304 q 562 89 651 178 q 347 0 473 0 q 133 89 222 0 q 43 304 43 178 q 134 521 43 430 q 351 608 225 611 l 264 694 l 130 694 q 87 738 87 694 q 119 779 87 771 q 177 781 130 782 q 151 824 151 804 q 164 855 151 842 q 196 869 178 869 q 226 855 212 869 l 300 781 l 564 781 q 608 738 608 781 q 564 694 608 694 l 387 694 l 566 516 q 651 304 651 431 m 564 304 q 501 457 564 394 q 347 521 437 521 q 194 457 258 521 q 130 304 130 394 q 194 150 130 214 q 347 87 258 87 q 501 150 437 87 q 564 304 564 214 z "},"ñ":{"ha":694,"x_min":101,"x_max":622,"o":"m 579 783 q 569 752 579 769 q 448 694 535 694 q 346 738 399 694 q 275 781 293 781 q 229 767 245 781 q 189 738 219 738 q 144 780 144 738 q 155 811 144 793 q 275 868 188 868 q 377 825 324 868 q 448 781 430 781 q 499 803 484 781 q 534 825 513 825 q 579 783 579 825 m 622 43 q 579 0 622 0 q 535 43 535 0 l 535 347 q 484 470 535 419 q 362 521 433 521 q 239 470 290 521 q 188 347 188 419 l 188 43 q 145 0 188 0 q 101 43 101 0 l 101 564 q 145 608 101 608 q 188 541 189 608 q 362 608 262 608 q 546 531 469 608 q 622 347 622 455 l 622 43 z "},"ò":{"ha":694,"x_min":43,"x_max":651,"o":"m 478 739 q 466 708 478 722 q 435 694 453 694 q 414 699 425 694 l 241 786 q 216 823 216 798 q 229 855 216 841 q 259 869 241 869 q 280 863 270 869 l 454 777 q 478 739 478 764 m 651 304 q 562 89 651 178 q 347 0 473 0 q 133 89 222 0 q 43 304 43 178 q 133 519 43 429 q 347 608 222 608 q 562 519 473 608 q 651 304 651 429 m 564 304 q 501 457 564 394 q 347 521 437 521 q 194 457 258 521 q 130 304 130 394 q 194 150 130 214 q 347 87 258 87 q 501 150 437 87 q 564 304 564 214 z "},"ó":{"ha":694,"x_min":43,"x_max":651,"o":"m 478 823 q 454 786 478 798 l 280 699 q 259 694 270 694 q 229 708 241 694 q 216 739 216 722 q 241 777 216 764 l 414 863 q 435 869 425 869 q 466 855 453 869 q 478 823 478 841 m 651 304 q 562 89 651 178 q 347 0 473 0 q 133 89 222 0 q 43 304 43 178 q 133 519 43 429 q 347 608 222 608 q 562 519 473 608 q 651 304 651 429 m 564 304 q 501 457 564 394 q 347 521 437 521 q 194 457 258 521 q 130 304 130 394 q 194 150 130 214 q 347 87 258 87 q 501 150 437 87 q 564 304 564 214 z "},"ô":{"ha":694,"x_min":43,"x_max":651,"o":"m 521 739 q 508 708 521 722 q 478 694 495 694 q 453 702 465 694 l 347 773 l 241 702 q 216 694 229 694 q 186 708 199 694 q 173 739 173 722 q 193 774 173 760 l 319 858 q 347 869 335 869 q 375 858 359 869 l 502 774 q 521 739 521 760 m 651 304 q 562 89 651 178 q 347 0 473 0 q 133 89 222 0 q 43 304 43 178 q 133 519 43 429 q 347 608 222 608 q 562 519 473 608 q 651 304 651 429 m 564 304 q 501 457 564 394 q 347 521 437 521 q 194 457 258 521 q 130 304 130 394 q 194 150 130 214 q 347 87 258 87 q 501 150 437 87 q 564 304 564 214 z "},"õ":{"ha":694,"x_min":43,"x_max":651,"o":"m 565 783 q 554 752 565 769 q 434 694 521 694 q 332 738 385 694 q 260 781 279 781 q 215 767 231 781 q 175 738 205 738 q 130 780 130 738 q 140 811 130 793 q 260 868 174 868 q 363 825 310 868 q 434 781 416 781 q 484 803 469 781 q 520 825 499 825 q 565 783 565 825 m 651 304 q 562 89 651 178 q 347 0 473 0 q 133 89 222 0 q 43 304 43 178 q 133 519 43 429 q 347 608 222 608 q 562 519 473 608 q 651 304 651 429 m 564 304 q 501 457 564 394 q 347 521 437 521 q 194 457 258 521 q 130 304 130 394 q 194 150 130 214 q 347 87 258 87 q 501 150 437 87 q 564 304 564 214 z "},"ö":{"ha":694,"x_min":43,"x_max":651,"o":"m 543 760 q 524 714 543 733 q 477 694 505 694 q 431 714 450 694 q 413 760 413 733 q 431 806 413 787 q 477 825 450 825 q 524 806 505 825 q 543 760 543 787 m 282 760 q 263 714 282 733 q 217 694 244 694 q 171 714 190 694 q 152 760 152 733 q 171 806 152 787 q 217 825 190 825 q 263 806 244 825 q 282 760 282 787 m 651 304 q 562 89 651 178 q 347 0 473 0 q 133 89 222 0 q 43 304 43 178 q 133 519 43 429 q 347 608 222 608 q 562 519 473 608 q 651 304 651 429 m 564 304 q 501 457 564 394 q 347 521 437 521 q 194 457 258 521 q 130 304 130 394 q 194 150 130 214 q 347 87 258 87 q 501 150 437 87 q 564 304 564 214 z "},"÷":{"ha":694,"x_min":130,"x_max":564,"o":"m 413 609 q 394 562 413 582 q 347 543 374 543 q 301 562 320 543 q 281 609 281 582 q 301 654 281 635 q 347 673 320 673 q 394 654 374 673 q 413 609 413 635 m 564 369 q 521 326 564 326 l 174 326 q 130 369 130 326 q 174 413 130 413 l 521 413 q 564 369 564 413 m 413 131 q 394 85 413 104 q 347 65 374 65 q 301 85 320 65 q 281 131 281 104 q 301 177 281 158 q 347 196 320 196 q 394 177 374 196 q 413 131 413 158 z "},"ø":{"ha":694,"x_min":43,"x_max":652,"o":"m 652 564 q 590 486 652 545 q 651 304 651 405 q 562 89 651 178 q 347 0 473 0 q 166 61 246 0 q 87 -1 106 -1 q 56 13 69 -1 q 43 44 43 26 q 104 122 43 63 q 43 304 43 203 q 133 519 43 429 q 347 608 222 608 q 529 547 448 608 q 607 608 589 608 q 638 595 625 608 q 652 564 652 582 m 467 485 q 347 521 413 521 q 194 457 258 521 q 130 304 130 394 q 166 184 130 238 l 467 485 m 564 304 q 528 424 564 369 l 227 123 q 347 87 282 87 q 501 150 437 87 q 564 304 564 214 z "},"ù":{"ha":694,"x_min":72,"x_max":622,"o":"m 478 739 q 466 708 478 722 q 435 694 453 694 q 414 699 425 694 l 241 786 q 216 823 216 798 q 229 855 216 841 q 259 869 241 869 q 280 863 270 869 l 454 777 q 478 739 478 764 m 622 275 q 542 80 622 161 q 347 0 461 0 q 153 80 233 0 q 72 275 72 161 l 72 564 q 116 608 72 608 q 159 564 159 608 l 159 275 q 214 142 159 197 q 347 87 270 87 q 480 142 425 87 q 535 275 535 197 l 535 564 q 579 608 535 608 q 622 564 622 608 l 622 275 z "},"ú":{"ha":694,"x_min":72,"x_max":622,"o":"m 478 823 q 454 786 478 798 l 280 699 q 259 694 270 694 q 229 708 241 694 q 216 739 216 722 q 241 777 216 764 l 414 863 q 435 869 425 869 q 466 855 453 869 q 478 823 478 841 m 622 275 q 542 80 622 161 q 347 0 461 0 q 153 80 233 0 q 72 275 72 161 l 72 564 q 116 608 72 608 q 159 564 159 608 l 159 275 q 214 142 159 197 q 347 87 270 87 q 480 142 425 87 q 535 275 535 197 l 535 564 q 579 608 535 608 q 622 564 622 608 l 622 275 z "},"û":{"ha":694,"x_min":72,"x_max":622,"o":"m 521 739 q 508 708 521 722 q 478 694 495 694 q 453 702 465 694 l 347 773 l 241 702 q 216 694 229 694 q 186 708 199 694 q 173 739 173 722 q 193 774 173 760 l 319 858 q 347 869 335 869 q 375 858 359 869 l 502 774 q 521 739 521 760 m 622 275 q 542 80 622 161 q 347 0 461 0 q 153 80 233 0 q 72 275 72 161 l 72 564 q 116 608 72 608 q 159 564 159 608 l 159 275 q 214 142 159 197 q 347 87 270 87 q 480 142 425 87 q 535 275 535 197 l 535 564 q 579 608 535 608 q 622 564 622 608 l 622 275 z "},"ü":{"ha":694,"x_min":72,"x_max":622,"o":"m 543 760 q 524 714 543 733 q 477 694 505 694 q 431 714 450 694 q 413 760 413 733 q 431 806 413 787 q 477 825 450 825 q 524 806 505 825 q 543 760 543 787 m 282 760 q 263 714 282 733 q 217 694 244 694 q 171 714 190 694 q 152 760 152 733 q 171 806 152 787 q 217 825 190 825 q 263 806 244 825 q 282 760 282 787 m 622 275 q 542 80 622 161 q 347 0 461 0 q 153 80 233 0 q 72 275 72 161 l 72 564 q 116 608 72 608 q 159 564 159 608 l 159 275 q 214 142 159 197 q 347 87 270 87 q 480 142 425 87 q 535 275 535 197 l 535 564 q 579 608 535 608 q 622 564 622 608 l 622 275 z "},"ý":{"ha":694,"x_min":72,"x_max":593,"o":"m 464 823 q 439 786 464 798 l 266 699 q 245 694 255 694 q 214 708 227 694 q 202 739 202 722 q 226 777 202 764 l 400 863 q 421 869 410 869 q 451 855 439 869 q 464 823 464 841 m 593 564 l 593 0 q 517 -184 593 -108 q 333 -260 440 -260 q 203 -226 264 -260 q 108 -131 139 -190 q 101 -108 101 -119 q 115 -78 101 -91 q 146 -65 129 -65 q 183 -87 166 -65 q 333 -174 248 -174 q 455 -123 405 -174 q 506 0 506 -72 l 506 67 q 333 0 432 0 q 149 76 225 0 q 72 260 72 153 l 72 564 q 116 608 72 608 q 159 564 159 608 l 159 260 q 210 138 159 189 q 333 87 261 87 q 455 138 405 87 q 506 260 506 189 l 506 564 q 550 608 506 608 q 593 564 593 608 z "},"þ":{"ha":694,"x_min":101,"x_max":651,"o":"m 651 304 q 575 94 651 183 q 376 0 495 0 q 188 82 267 0 l 188 -217 q 145 -260 188 -260 q 101 -217 101 -260 l 101 825 q 145 868 101 868 q 188 825 188 868 l 188 525 q 376 608 267 608 q 575 514 495 608 q 651 304 651 424 m 564 304 q 513 452 564 388 q 376 521 458 521 q 239 452 294 521 q 188 304 188 388 q 239 156 188 219 q 376 87 294 87 q 513 156 458 87 q 564 304 564 219 z "},"ÿ":{"ha":694,"x_min":72,"x_max":593,"o":"m 528 752 q 509 706 528 725 q 463 687 490 687 q 417 706 436 687 q 398 752 398 725 q 417 798 398 780 q 463 817 436 817 q 509 798 490 817 q 528 752 528 780 m 268 752 q 249 706 268 725 q 203 687 230 687 q 157 706 175 687 q 138 752 138 725 q 157 798 138 780 q 203 817 175 817 q 249 798 230 817 q 268 752 268 780 m 593 564 l 593 0 q 517 -184 593 -108 q 333 -260 440 -260 q 203 -226 264 -260 q 108 -131 139 -190 q 101 -108 101 -119 q 115 -78 101 -91 q 146 -65 129 -65 q 183 -87 166 -65 q 333 -174 248 -174 q 455 -123 405 -174 q 506 0 506 -72 l 506 67 q 333 0 432 0 q 149 76 225 0 q 72 260 72 153 l 72 564 q 116 608 72 608 q 159 564 159 608 l 159 260 q 210 138 159 189 q 333 87 261 87 q 455 138 405 87 q 506 260 506 189 l 506 564 q 550 608 506 608 q 593 564 593 608 z "},"Ā":{"ha":694,"x_min":43,"x_max":652,"o":"m 651 1042 q 608 998 651 998 l 87 998 q 43 1042 43 998 q 87 1085 43 1085 l 608 1085 q 651 1042 651 1085 m 652 42 q 606 0 652 0 q 567 30 576 0 l 490 260 l 205 260 l 128 30 q 88 0 118 0 q 43 42 43 0 q 46 57 43 49 l 304 832 q 347 868 316 868 q 391 832 378 868 l 649 57 q 652 42 652 49 m 461 347 l 347 688 l 234 347 l 461 347 z "},"ā":{"ha":694,"x_min":43,"x_max":622,"o":"m 622 781 q 579 738 622 738 l 87 738 q 43 781 43 738 q 87 825 43 825 l 579 825 q 622 781 622 825 m 622 43 q 579 0 622 0 q 535 61 534 0 q 333 0 450 0 q 141 54 226 0 q 43 217 43 116 q 141 380 43 318 q 333 434 226 434 q 535 373 450 434 l 535 391 q 517 442 535 416 q 333 521 464 521 q 184 478 258 521 q 158 469 169 469 q 128 483 141 469 q 115 514 115 497 q 205 586 115 557 q 333 608 276 608 q 524 554 439 608 q 622 391 622 491 l 622 43 m 535 217 q 496 293 535 258 q 418 335 463 322 q 333 347 378 347 q 146 265 198 347 q 130 217 130 241 q 146 169 130 193 q 333 87 198 87 q 418 99 378 87 q 496 141 463 112 q 535 217 535 176 z "},"Ă":{"ha":694,"x_min":43,"x_max":652,"o":"m 523 1085 q 498 1042 523 1069 q 347 955 418 955 q 256 989 306 955 q 183 1058 211 1020 q 173 1085 173 1072 q 187 1116 173 1103 q 218 1129 200 1129 q 277 1085 235 1129 q 347 1042 319 1042 q 417 1085 375 1042 q 476 1129 459 1129 q 508 1116 494 1129 q 523 1085 523 1103 m 652 42 q 606 0 652 0 q 567 30 576 0 l 490 260 l 205 260 l 128 30 q 88 0 118 0 q 43 42 43 0 q 46 57 43 49 l 304 832 q 347 868 316 868 q 391 832 378 868 l 649 57 q 652 42 652 49 m 461 347 l 347 688 l 234 347 l 461 347 z "},"ă":{"ha":694,"x_min":43,"x_max":622,"o":"m 508 825 q 483 782 508 808 q 329 696 404 696 q 168 797 241 696 q 159 825 159 812 q 172 856 159 843 q 204 869 186 869 q 260 826 222 869 q 332 782 299 782 q 405 826 366 782 q 462 869 444 869 q 494 856 480 869 q 508 825 508 843 m 622 43 q 579 0 622 0 q 535 61 534 0 q 333 0 450 0 q 141 54 226 0 q 43 217 43 116 q 141 380 43 318 q 333 434 226 434 q 535 373 450 434 l 535 391 q 517 442 535 416 q 333 521 464 521 q 184 478 258 521 q 158 469 169 469 q 128 483 141 469 q 115 514 115 497 q 205 586 115 557 q 333 608 276 608 q 524 554 439 608 q 622 391 622 491 l 622 43 m 535 217 q 496 293 535 258 q 418 335 463 322 q 333 347 378 347 q 146 265 198 347 q 130 217 130 241 q 146 169 130 193 q 333 87 198 87 q 418 99 378 87 q 496 141 463 112 q 535 217 535 176 z "},"Ą":{"ha":694,"x_min":43,"x_max":652,"o":"m 652 39 q 608 0 652 0 q 546 -25 572 0 q 521 -87 521 -51 q 546 -148 521 -123 q 608 -174 572 -174 q 651 -217 651 -174 q 608 -260 651 -260 q 485 -209 536 -260 q 434 -87 434 -159 q 466 14 434 -32 q 550 77 498 59 l 490 260 l 205 260 l 128 30 q 88 0 118 0 q 43 42 43 0 q 241 644 43 57 q 304 832 260 707 q 347 868 318 868 q 391 832 377 868 q 454 643 391 831 q 652 39 652 57 m 461 347 l 347 688 l 234 347 l 461 347 z "},"ą":{"ha":694,"x_min":43,"x_max":659,"o":"m 659 -223 q 578 -260 659 -260 q 455 -209 506 -260 q 404 -87 404 -159 q 436 14 404 -31 q 333 0 385 0 q 141 54 226 0 q 43 217 43 116 q 141 380 43 318 q 333 434 226 434 q 535 373 450 434 l 535 391 q 517 442 535 416 q 333 521 464 521 q 184 478 258 521 q 158 469 169 469 q 128 483 141 469 q 115 514 115 497 q 134 549 115 532 q 333 608 202 608 q 524 554 440 608 q 622 391 622 491 l 622 205 q 622 124 622 179 q 621 43 621 70 q 608 13 621 26 q 578 0 594 0 q 516 -25 542 0 q 491 -87 491 -51 q 516 -148 491 -123 q 578 -174 542 -174 q 628 -186 602 -174 q 659 -223 659 -201 m 535 217 q 462 317 535 279 q 333 347 401 347 q 150 272 207 347 q 130 217 130 245 q 150 162 130 189 q 333 87 207 87 q 462 117 401 87 q 535 217 535 155 m 535 226 q 535 208 536 216 l 535 226 z "},"Ć":{"ha":694,"x_min":43,"x_max":652,"o":"m 523 1084 q 498 1046 523 1058 l 325 959 q 304 954 314 954 q 274 968 286 954 q 262 999 262 982 q 286 1037 262 1025 l 459 1124 q 480 1129 470 1129 q 510 1115 498 1129 q 523 1084 523 1101 m 652 158 q 642 131 652 145 q 532 36 601 73 q 392 0 463 0 q 134 142 235 0 q 43 434 43 270 q 134 726 43 598 q 392 868 235 868 q 532 832 463 868 q 642 737 601 795 q 652 710 652 723 q 638 679 652 693 q 606 666 624 666 q 580 677 595 666 q 562 697 565 688 q 550 711 562 698 q 392 781 479 781 q 244 719 311 781 q 155 582 185 665 q 130 434 130 513 q 155 286 130 355 q 244 149 185 203 q 392 87 311 87 q 550 157 479 87 q 562 170 555 161 q 579 190 563 179 q 606 202 596 202 q 638 189 624 202 q 652 158 652 175 z "},"ć":{"ha":694,"x_min":43,"x_max":652,"o":"m 523 823 q 498 786 523 798 l 325 699 q 304 694 314 694 q 274 708 286 694 q 262 739 262 722 q 286 777 262 764 l 459 863 q 480 869 470 869 q 510 855 498 869 q 523 823 523 841 m 652 489 q 638 457 652 471 q 608 444 625 444 q 579 455 595 444 q 392 521 486 521 q 215 463 292 521 q 130 304 130 400 q 215 145 130 208 q 392 87 292 87 q 579 152 486 87 q 607 163 595 163 q 638 150 625 163 q 652 119 652 136 q 635 86 652 102 q 522 22 595 46 q 392 0 455 0 q 153 83 256 0 q 43 304 43 171 q 153 525 43 437 q 392 608 256 608 q 522 586 455 608 q 636 521 595 561 q 652 489 652 505 z "},"Ĉ":{"ha":694,"x_min":43,"x_max":652,"o":"m 566 999 q 553 968 566 982 q 523 954 541 954 q 498 962 510 954 l 392 1033 l 286 962 q 261 954 274 954 q 231 968 244 954 q 218 999 218 982 q 238 1034 218 1021 l 365 1119 q 392 1129 380 1129 q 420 1119 404 1129 l 546 1034 q 566 999 566 1021 m 652 158 q 642 131 652 145 q 532 36 601 73 q 392 0 463 0 q 134 142 235 0 q 43 434 43 270 q 134 726 43 598 q 392 868 235 868 q 532 832 463 868 q 642 737 601 795 q 652 710 652 723 q 638 679 652 693 q 606 666 624 666 q 580 677 595 666 q 562 697 565 688 q 550 711 562 698 q 392 781 479 781 q 244 719 311 781 q 155 582 185 665 q 130 434 130 513 q 155 286 130 355 q 244 149 185 203 q 392 87 311 87 q 550 157 479 87 q 562 170 555 161 q 579 190 563 179 q 606 202 596 202 q 638 189 624 202 q 652 158 652 175 z "},"ĉ":{"ha":694,"x_min":43,"x_max":652,"o":"m 566 739 q 553 708 566 722 q 523 694 541 694 q 498 702 510 694 l 392 773 l 286 702 q 261 694 274 694 q 231 708 244 694 q 218 739 218 722 q 238 774 218 760 l 365 858 q 392 869 380 869 q 420 858 404 869 l 546 774 q 566 739 566 760 m 652 489 q 638 457 652 471 q 608 444 625 444 q 579 455 595 444 q 392 521 486 521 q 215 463 292 521 q 130 304 130 400 q 215 145 130 208 q 392 87 292 87 q 579 152 486 87 q 607 163 595 163 q 638 150 625 163 q 652 119 652 136 q 635 86 652 102 q 522 22 595 46 q 392 0 455 0 q 153 83 256 0 q 43 304 43 171 q 153 525 43 437 q 392 608 256 608 q 522 586 455 608 q 636 521 595 561 q 652 489 652 505 z "},"Ċ":{"ha":694,"x_min":43,"x_max":652,"o":"m 457 1020 q 438 974 457 993 q 392 955 419 955 q 346 974 365 955 q 327 1020 327 993 q 346 1066 327 1047 q 392 1085 365 1085 q 438 1066 419 1085 q 457 1020 457 1047 m 652 158 q 642 131 652 145 q 532 36 601 73 q 392 0 463 0 q 134 142 235 0 q 43 434 43 270 q 134 726 43 598 q 392 868 235 868 q 532 832 463 868 q 642 737 601 795 q 652 710 652 723 q 638 679 652 693 q 606 666 624 666 q 580 677 595 666 q 562 697 565 688 q 550 711 562 698 q 392 781 479 781 q 244 719 311 781 q 155 582 185 665 q 130 434 130 513 q 155 286 130 355 q 244 149 185 203 q 392 87 311 87 q 550 157 479 87 q 562 170 555 161 q 579 190 563 179 q 606 202 596 202 q 638 189 624 202 q 652 158 652 175 z "},"ċ":{"ha":694,"x_min":43,"x_max":652,"o":"m 458 802 q 438 756 458 775 q 392 738 419 738 q 345 756 365 738 q 326 802 326 775 q 345 849 326 829 q 392 868 365 868 q 438 849 419 868 q 458 802 458 829 m 652 489 q 638 457 652 471 q 608 444 625 444 q 579 455 595 444 q 392 521 486 521 q 215 463 292 521 q 130 304 130 400 q 215 145 130 208 q 392 87 292 87 q 579 152 486 87 q 607 163 595 163 q 638 150 625 163 q 652 119 652 136 q 635 86 652 102 q 522 22 595 46 q 392 0 455 0 q 153 83 256 0 q 43 304 43 171 q 153 525 43 437 q 392 608 256 608 q 522 586 455 608 q 636 521 595 561 q 652 489 652 505 z "},"Č":{"ha":694,"x_min":43,"x_max":652,"o":"m 566 1084 q 546 1049 566 1063 l 420 965 q 392 954 404 954 q 365 965 380 954 l 238 1049 q 218 1084 218 1063 q 231 1115 218 1101 q 261 1129 244 1129 q 286 1121 274 1129 l 392 1050 l 498 1121 q 523 1129 510 1129 q 553 1115 541 1129 q 566 1084 566 1101 m 652 158 q 642 131 652 145 q 532 36 601 73 q 392 0 463 0 q 134 142 235 0 q 43 434 43 270 q 134 726 43 598 q 392 868 235 868 q 532 832 463 868 q 642 737 601 795 q 652 710 652 723 q 638 679 652 693 q 606 666 624 666 q 580 677 595 666 q 562 697 565 688 q 550 711 562 698 q 392 781 479 781 q 244 719 311 781 q 155 582 185 665 q 130 434 130 513 q 155 286 130 355 q 244 149 185 203 q 392 87 311 87 q 550 157 479 87 q 562 170 555 161 q 579 190 563 179 q 606 202 596 202 q 638 189 624 202 q 652 158 652 175 z "},"č":{"ha":694,"x_min":43,"x_max":652,"o":"m 566 823 q 546 789 566 803 q 392 696 422 696 q 238 789 362 696 q 218 823 218 803 q 231 855 218 841 q 261 869 244 869 q 286 861 274 869 l 392 790 l 498 861 q 523 869 510 869 q 553 855 541 869 q 566 823 566 841 m 652 489 q 638 457 652 471 q 608 444 625 444 q 579 455 595 444 q 392 521 486 521 q 215 463 292 521 q 130 304 130 400 q 215 145 130 208 q 392 87 292 87 q 579 152 486 87 q 607 163 595 163 q 638 150 625 163 q 652 119 652 136 q 635 86 652 102 q 522 22 595 46 q 392 0 455 0 q 153 83 256 0 q 43 304 43 171 q 153 525 43 437 q 392 608 256 608 q 522 586 455 608 q 636 521 595 561 q 652 489 652 505 z "},"Ď":{"ha":694,"x_min":101,"x_max":651,"o":"m 449 1084 q 429 1049 449 1063 l 303 965 q 275 954 287 954 q 247 965 263 954 l 120 1049 q 101 1084 101 1063 q 114 1115 101 1101 q 144 1129 127 1129 q 169 1121 157 1129 l 275 1050 l 381 1121 q 406 1129 393 1129 q 436 1115 423 1129 q 449 1084 449 1101 m 651 434 q 524 127 651 255 q 217 0 396 0 l 145 0 q 114 13 127 0 q 101 43 101 26 l 101 825 q 114 855 101 842 q 145 868 127 868 l 217 868 q 524 741 396 868 q 651 434 651 613 m 564 434 q 462 679 564 578 q 217 781 361 781 l 188 781 l 188 87 l 217 87 q 462 189 361 87 q 564 434 564 291 z "},"ď":{"ha":694,"x_min":43,"x_max":593,"o":"m 492 1084 q 473 1049 492 1063 l 346 965 q 318 954 330 954 q 291 965 306 954 l 164 1049 q 144 1084 144 1063 q 157 1115 144 1101 q 188 1129 170 1129 q 212 1121 200 1129 l 318 1050 l 424 1121 q 449 1129 436 1129 q 479 1115 466 1129 q 492 1084 492 1101 m 593 43 q 550 0 593 0 q 510 28 518 0 q 506 82 506 40 q 318 0 428 0 q 120 94 200 0 q 43 304 43 183 q 120 514 43 424 q 318 608 200 608 q 506 525 428 608 l 506 825 q 550 868 506 868 q 593 825 593 868 l 593 43 m 506 304 q 455 452 506 388 q 318 521 400 521 q 181 452 236 521 q 130 304 130 388 q 181 156 130 219 q 318 87 236 87 q 455 156 400 87 q 506 304 506 219 z "},"Đ":{"ha":694,"x_min":43,"x_max":651,"o":"m 651 434 q 524 127 651 255 q 217 0 396 0 q 187 13 200 0 q 174 43 174 26 l 174 391 l 87 391 q 43 434 43 391 q 87 477 43 477 l 174 477 l 174 825 q 187 855 174 842 q 217 868 200 868 q 524 741 396 868 q 651 434 651 613 m 564 434 q 477 663 564 565 q 260 778 391 762 l 260 477 l 347 477 q 391 434 391 477 q 347 391 391 391 l 260 391 l 260 90 q 477 205 391 106 q 564 434 564 303 z "},"đ":{"ha":694,"x_min":43,"x_max":651,"o":"m 651 694 q 593 651 651 650 l 593 43 q 550 0 593 0 q 510 28 518 0 q 506 82 506 40 q 318 0 428 0 q 120 94 200 0 q 43 304 43 183 q 120 514 43 424 q 318 608 200 608 q 506 525 428 608 l 506 651 l 318 651 q 275 694 275 651 q 318 738 275 738 l 506 738 l 506 825 q 550 868 506 868 q 593 825 593 868 l 593 738 q 651 694 651 738 m 506 304 q 455 452 506 388 q 318 521 400 521 q 181 452 236 521 q 130 304 130 388 q 181 156 130 219 q 318 87 236 87 q 455 156 400 87 q 506 304 506 219 z "},"Ē":{"ha":694,"x_min":101,"x_max":651,"o":"m 651 1042 q 608 998 651 998 l 145 998 q 101 1042 101 998 q 145 1085 101 1085 l 608 1085 q 651 1042 651 1085 m 651 43 q 608 0 651 0 l 145 0 q 114 13 127 0 q 101 43 101 26 l 101 825 q 114 855 101 842 q 145 868 127 868 l 608 868 q 651 825 651 868 q 608 781 651 781 l 188 781 l 188 477 l 608 477 q 651 434 651 477 q 608 391 651 391 l 188 391 l 188 87 l 608 87 q 651 43 651 87 z "},"ē":{"ha":694,"x_min":43,"x_max":652,"o":"m 651 781 q 608 738 651 738 l 87 738 q 43 781 43 738 q 87 825 43 825 l 608 825 q 651 781 651 825 m 652 174 q 645 150 652 163 q 525 40 605 81 q 366 0 449 0 q 141 86 236 0 q 43 304 43 175 q 141 521 43 433 q 366 608 236 608 q 465 591 413 608 q 580 530 523 572 q 651 431 651 478 q 628 396 651 408 l 190 160 q 366 87 261 87 q 546 164 477 87 q 571 196 554 175 q 606 218 587 218 q 638 205 624 218 q 652 174 652 192 m 542 448 q 366 521 472 521 q 203 460 272 521 q 130 304 130 396 q 143 233 130 267 l 542 448 z "},"Ĕ":{"ha":694,"x_min":101,"x_max":651,"o":"m 552 1085 q 527 1042 552 1069 q 376 955 447 955 q 285 989 335 955 q 212 1058 240 1020 q 202 1085 202 1072 q 216 1116 202 1103 q 247 1129 229 1129 q 306 1085 264 1129 q 376 1042 348 1042 q 446 1085 404 1042 q 505 1129 488 1129 q 537 1116 523 1129 q 552 1085 552 1103 m 651 43 q 608 0 651 0 l 145 0 q 114 13 127 0 q 101 43 101 26 l 101 825 q 114 855 101 842 q 145 868 127 868 l 608 868 q 651 825 651 868 q 608 781 651 781 l 188 781 l 188 477 l 608 477 q 651 434 651 477 q 608 391 651 391 l 188 391 l 188 87 l 608 87 q 651 43 651 87 z "},"ĕ":{"ha":694,"x_min":43,"x_max":652,"o":"m 541 825 q 516 782 541 808 q 363 696 437 696 q 201 797 274 696 q 192 825 192 812 q 205 856 192 843 q 237 869 219 869 q 293 826 255 869 q 366 782 332 782 q 438 826 399 782 q 495 869 477 869 q 527 856 513 869 q 541 825 541 843 m 652 174 q 645 150 652 163 q 525 40 605 81 q 366 0 449 0 q 141 86 236 0 q 43 304 43 175 q 141 521 43 433 q 366 608 236 608 q 465 591 413 608 q 580 530 523 572 q 651 431 651 478 q 628 396 651 408 l 190 160 q 366 87 261 87 q 546 164 477 87 q 571 196 554 175 q 606 218 587 218 q 638 205 624 218 q 652 174 652 192 m 542 448 q 366 521 472 521 q 203 460 272 521 q 130 304 130 396 q 143 233 130 267 l 542 448 z "},"Ė":{"ha":694,"x_min":101,"x_max":651,"o":"m 442 1020 q 422 974 442 993 q 376 955 403 955 q 330 974 349 955 q 311 1020 311 993 q 330 1066 311 1047 q 376 1085 349 1085 q 422 1066 403 1085 q 442 1020 442 1047 m 651 43 q 608 0 651 0 l 145 0 q 114 13 127 0 q 101 43 101 26 l 101 825 q 114 855 101 842 q 145 868 127 868 l 608 868 q 651 825 651 868 q 608 781 651 781 l 188 781 l 188 477 l 608 477 q 651 434 651 477 q 608 391 651 391 l 188 391 l 188 87 l 608 87 q 651 43 651 87 z "},"ė":{"ha":694,"x_min":43,"x_max":652,"o":"m 432 802 q 412 756 432 775 q 366 738 393 738 q 319 756 339 738 q 300 802 300 775 q 319 849 300 829 q 366 868 339 868 q 412 849 393 868 q 432 802 432 829 m 652 174 q 645 150 652 163 q 525 40 605 81 q 366 0 449 0 q 141 86 236 0 q 43 304 43 175 q 141 521 43 433 q 366 608 236 608 q 465 591 413 608 q 580 530 523 572 q 651 431 651 478 q 628 396 651 408 l 190 160 q 366 87 261 87 q 546 164 477 87 q 571 196 554 175 q 606 218 587 218 q 638 205 624 218 q 652 174 652 192 m 542 448 q 366 521 472 521 q 203 460 272 521 q 130 304 130 396 q 143 233 130 267 l 542 448 z "},"Ę":{"ha":694,"x_min":101,"x_max":653,"o":"m 653 43 q 608 0 653 0 q 546 -25 572 0 q 521 -87 521 -51 q 546 -148 521 -123 q 608 -174 572 -174 q 651 -217 651 -174 q 608 -260 651 -260 q 485 -209 536 -260 q 434 -87 434 -159 q 457 0 434 -40 l 145 0 q 114 13 127 0 q 101 43 101 26 l 101 825 q 114 855 101 842 q 145 868 127 868 l 608 868 q 651 825 651 868 q 608 781 651 781 l 188 781 l 188 477 l 608 477 q 651 434 651 477 q 608 391 651 391 l 188 391 l 188 87 l 608 87 q 653 43 653 87 z "},"ę":{"ha":694,"x_min":43,"x_max":652,"o":"m 652 174 q 645 150 652 164 q 525 39 605 81 q 365 0 448 0 q 303 -25 329 0 q 278 -87 278 -51 q 303 -148 278 -123 q 365 -174 329 -174 q 431 -141 404 -174 q 476 -108 459 -108 q 508 -120 494 -108 q 521 -150 521 -133 q 515 -173 521 -161 q 365 -260 468 -260 q 242 -209 293 -260 q 191 -87 191 -159 q 233 27 191 -22 q 97 137 148 63 q 43 304 43 213 q 141 521 43 433 q 366 608 236 608 q 473 588 417 608 q 583 528 528 568 q 651 431 651 476 q 628 396 651 408 l 190 160 q 366 87 261 87 q 547 164 477 87 q 571 196 554 175 q 606 218 587 218 q 638 205 624 218 q 652 174 652 192 m 542 448 q 366 521 472 521 q 203 460 272 521 q 130 304 130 396 q 143 233 130 267 l 542 448 z "},"Ě":{"ha":694,"x_min":101,"x_max":651,"o":"m 550 1084 q 531 1049 550 1063 l 404 965 q 376 954 388 954 q 348 965 364 954 l 222 1049 q 202 1084 202 1063 q 215 1115 202 1101 q 245 1129 228 1129 q 270 1121 258 1129 l 376 1050 l 482 1121 q 507 1129 494 1129 q 537 1115 524 1129 q 550 1084 550 1101 m 651 43 q 608 0 651 0 l 145 0 q 114 13 127 0 q 101 43 101 26 l 101 825 q 114 855 101 842 q 145 868 127 868 l 608 868 q 651 825 651 868 q 608 781 651 781 l 188 781 l 188 477 l 608 477 q 651 434 651 477 q 608 391 651 391 l 188 391 l 188 87 l 608 87 q 651 43 651 87 z "},"ě":{"ha":694,"x_min":43,"x_max":652,"o":"m 540 823 q 520 789 540 803 q 366 696 396 696 q 212 789 336 696 q 192 823 192 803 q 205 855 192 841 q 235 869 218 869 q 260 861 248 869 l 366 790 l 472 861 q 497 869 484 869 q 527 855 514 869 q 540 823 540 841 m 652 174 q 645 150 652 163 q 525 40 605 81 q 366 0 449 0 q 141 86 236 0 q 43 304 43 175 q 141 521 43 433 q 366 608 236 608 q 465 591 413 608 q 580 530 523 572 q 651 431 651 478 q 628 396 651 408 l 190 160 q 366 87 261 87 q 546 164 477 87 q 571 196 554 175 q 606 218 587 218 q 638 205 624 218 q 652 174 652 192 m 542 448 q 366 521 472 521 q 203 460 272 521 q 130 304 130 396 q 143 233 130 267 l 542 448 z "},"Ĝ":{"ha":694,"x_min":43,"x_max":623,"o":"m 549 999 q 536 968 549 982 q 506 954 524 954 q 481 962 493 954 l 375 1033 l 269 962 q 244 954 257 954 q 214 968 227 954 q 201 999 201 982 q 220 1034 201 1021 l 347 1119 q 375 1129 363 1129 q 403 1119 387 1129 l 530 1034 q 549 999 549 1021 m 623 710 q 609 679 623 693 q 578 666 595 666 q 544 685 560 666 q 520 714 536 694 q 375 781 454 781 q 232 715 296 781 q 151 575 177 658 q 130 434 130 509 q 151 293 130 359 q 232 153 177 210 q 375 87 296 87 q 535 172 466 87 l 535 434 q 579 477 535 477 q 622 434 622 477 l 622 157 q 526 46 622 98 q 375 0 441 0 q 127 146 223 0 q 43 434 43 273 q 127 722 43 595 q 375 868 223 868 q 510 831 444 868 q 613 736 574 795 q 623 710 623 723 z "},"ĝ":{"ha":694,"x_min":43,"x_max":651,"o":"m 521 739 q 508 708 521 722 q 478 694 495 694 q 453 702 465 694 l 347 773 l 241 702 q 216 694 229 694 q 186 708 199 694 q 173 739 173 722 q 193 774 173 760 l 319 858 q 347 869 335 869 q 375 858 359 869 l 502 774 q 521 739 521 760 m 651 564 q 613 522 651 529 q 549 521 604 520 q 599 391 599 464 q 506 222 599 286 q 651 0 651 146 q 554 -190 651 -115 q 347 -260 465 -260 q 140 -190 229 -260 q 43 0 43 -115 q 87 43 43 43 q 130 0 130 43 q 202 -128 130 -78 q 347 -174 266 -174 q 492 -128 428 -174 q 564 0 564 -78 q 492 128 564 78 q 347 174 428 174 q 175 232 249 174 q 95 391 95 295 q 175 549 95 486 q 347 608 249 608 l 608 608 q 651 564 651 608 m 512 391 q 457 487 512 449 q 347 521 409 521 q 237 487 286 521 q 182 391 182 449 q 237 294 182 332 q 347 260 286 260 q 457 294 409 260 q 512 391 512 332 z "},"Ğ":{"ha":694,"x_min":43,"x_max":623,"o":"m 550 1085 q 525 1042 550 1069 q 375 955 446 955 q 284 989 334 955 q 211 1058 239 1020 q 201 1085 201 1072 q 214 1116 201 1103 q 246 1129 228 1129 q 305 1085 263 1129 q 375 1042 347 1042 q 445 1085 403 1042 q 504 1129 487 1129 q 536 1116 522 1129 q 550 1085 550 1103 m 623 710 q 609 679 623 693 q 578 666 595 666 q 544 685 560 666 q 520 714 536 694 q 375 781 454 781 q 232 715 296 781 q 151 575 177 658 q 130 434 130 509 q 151 293 130 359 q 232 153 177 210 q 375 87 296 87 q 535 172 466 87 l 535 434 q 579 477 535 477 q 622 434 622 477 l 622 157 q 526 46 622 98 q 375 0 441 0 q 127 146 223 0 q 43 434 43 273 q 127 722 43 595 q 375 868 223 868 q 510 831 444 868 q 613 736 574 795 q 623 710 623 723 z "},"ğ":{"ha":694,"x_min":43,"x_max":651,"o":"m 523 825 q 498 782 523 809 q 347 694 418 694 q 256 729 306 694 q 183 797 211 759 q 173 825 173 812 q 187 856 173 843 q 218 869 200 869 q 277 825 235 869 q 347 781 319 781 q 417 825 375 781 q 476 869 459 869 q 508 856 494 869 q 523 825 523 843 m 651 564 q 613 522 651 529 q 549 521 604 520 q 599 391 599 464 q 506 222 599 286 q 651 0 651 146 q 554 -190 651 -115 q 347 -260 465 -260 q 140 -190 229 -260 q 43 0 43 -115 q 87 43 43 43 q 130 0 130 43 q 202 -128 130 -78 q 347 -174 266 -174 q 492 -128 428 -174 q 564 0 564 -78 q 492 128 564 78 q 347 174 428 174 q 175 232 249 174 q 95 391 95 295 q 175 549 95 486 q 347 608 249 608 l 608 608 q 651 564 651 608 m 512 391 q 457 487 512 449 q 347 521 409 521 q 237 487 286 521 q 182 391 182 449 q 237 294 182 332 q 347 260 286 260 q 457 294 409 260 q 512 391 512 332 z "},"Ġ":{"ha":694,"x_min":43,"x_max":623,"o":"m 448 1020 q 429 974 448 993 q 383 955 410 955 q 337 974 356 955 q 318 1020 318 993 q 337 1066 318 1047 q 383 1085 356 1085 q 429 1066 410 1085 q 448 1020 448 1047 m 623 710 q 609 679 623 693 q 578 666 595 666 q 544 685 560 666 q 520 714 536 694 q 375 781 454 781 q 232 715 296 781 q 151 575 177 658 q 130 434 130 509 q 151 293 130 359 q 232 153 177 210 q 375 87 296 87 q 535 172 466 87 l 535 434 q 579 477 535 477 q 622 434 622 477 l 622 157 q 526 46 622 98 q 375 0 441 0 q 127 146 223 0 q 43 434 43 273 q 127 722 43 595 q 375 868 223 868 q 510 831 444 868 q 613 736 574 795 q 623 710 623 723 z "},"ġ":{"ha":694,"x_min":43,"x_max":651,"o":"m 413 802 q 394 756 413 775 q 347 738 374 738 q 301 756 320 738 q 281 802 281 775 q 301 849 281 829 q 347 868 320 868 q 394 849 374 868 q 413 802 413 829 m 651 564 q 613 522 651 529 q 549 521 604 520 q 599 391 599 464 q 506 222 599 286 q 651 0 651 146 q 554 -190 651 -115 q 347 -260 465 -260 q 140 -190 229 -260 q 43 0 43 -115 q 87 43 43 43 q 130 0 130 43 q 202 -128 130 -78 q 347 -174 266 -174 q 492 -128 428 -174 q 564 0 564 -78 q 492 128 564 78 q 347 174 428 174 q 175 232 249 174 q 95 391 95 295 q 175 549 95 486 q 347 608 249 608 l 608 608 q 651 564 651 608 m 512 391 q 457 487 512 449 q 347 521 409 521 q 237 487 286 521 q 182 391 182 449 q 237 294 182 332 q 347 260 286 260 q 457 294 409 260 q 512 391 512 332 z "},"Ģ":{"ha":694,"x_min":43,"x_max":623,"o":"m 623 710 q 609 679 623 693 q 578 666 595 666 q 544 685 560 666 q 516 716 535 696 q 375 781 454 781 q 234 716 297 781 q 152 579 179 661 q 130 434 130 511 q 152 289 130 357 q 234 152 179 207 q 375 87 297 87 q 535 172 466 87 l 535 434 q 579 477 535 477 q 622 434 622 477 l 622 157 q 500 34 622 88 q 549 -87 549 -17 q 498 -209 549 -159 q 375 -260 447 -260 q 225 -173 273 -260 q 218 -150 218 -161 q 232 -120 218 -133 q 263 -108 246 -108 q 308 -141 280 -108 q 375 -174 337 -174 q 436 -148 411 -174 q 462 -87 462 -123 q 436 -25 462 -51 q 375 0 411 0 q 127 146 223 0 q 43 434 43 273 q 127 722 43 595 q 375 868 223 868 q 509 831 443 868 q 613 736 575 794 q 623 710 623 722 z "},"ģ":{"ha":694,"x_min":43,"x_max":651,"o":"m 504 859 q 490 829 504 842 q 459 817 476 817 q 414 850 442 817 q 347 883 386 883 q 286 857 311 883 q 260 796 260 832 q 286 734 260 760 q 347 709 311 709 q 391 666 391 709 q 347 622 391 622 q 225 673 275 622 q 174 796 174 724 q 225 918 174 867 q 347 969 275 969 q 435 945 393 969 q 498 882 477 921 q 504 859 504 870 m 651 564 q 613 522 651 529 q 549 521 604 520 q 599 391 599 464 q 506 222 599 286 q 651 0 651 146 q 554 -190 651 -115 q 347 -260 465 -260 q 140 -190 229 -260 q 43 0 43 -115 q 87 43 43 43 q 130 0 130 43 q 202 -128 130 -78 q 347 -174 266 -174 q 492 -128 428 -174 q 564 0 564 -78 q 492 128 564 78 q 347 174 428 174 q 175 232 249 174 q 95 391 95 295 q 175 549 95 486 q 347 608 249 608 l 608 608 q 651 564 651 608 m 512 391 q 457 487 512 449 q 347 521 409 521 q 237 487 286 521 q 182 391 182 449 q 237 294 182 332 q 347 260 286 260 q 457 294 409 260 q 512 391 512 332 z "},"Ĥ":{"ha":694,"x_min":101,"x_max":593,"o":"m 521 999 q 508 968 521 982 q 478 954 495 954 q 453 962 465 954 l 347 1033 l 241 962 q 216 954 229 954 q 186 968 199 954 q 173 999 173 982 q 193 1034 173 1021 l 319 1119 q 347 1129 335 1129 q 375 1119 359 1129 l 502 1034 q 521 999 521 1021 m 593 43 q 550 0 593 0 q 506 43 506 0 l 506 391 l 188 391 l 188 43 q 145 0 188 0 q 101 43 101 0 l 101 825 q 145 868 101 868 q 188 825 188 868 l 188 477 l 506 477 l 506 825 q 550 868 506 868 q 593 825 593 868 l 593 43 z "},"ĥ":{"ha":694,"x_min":101,"x_max":622,"o":"m 536 999 q 523 968 536 982 q 492 954 510 954 q 468 962 480 954 l 362 1033 l 256 962 q 231 954 244 954 q 201 968 214 954 q 188 999 188 982 q 207 1034 188 1021 l 334 1119 q 362 1129 350 1129 q 389 1119 374 1129 l 516 1034 q 536 999 536 1021 m 622 43 q 579 0 622 0 q 535 43 535 0 l 535 347 q 484 470 535 419 q 362 521 433 521 q 239 470 290 521 q 188 347 188 419 l 188 43 q 145 0 188 0 q 101 43 101 0 l 101 825 q 145 868 101 868 q 188 825 188 868 l 188 541 q 362 608 262 608 q 546 531 469 608 q 622 347 622 455 l 622 43 z "},"Ħ":{"ha":694,"x_min":43,"x_max":651,"o":"m 651 694 q 593 651 651 651 l 593 43 q 550 0 593 0 q 506 43 506 0 l 506 391 l 188 391 l 188 43 q 145 0 188 0 q 101 43 101 0 l 101 651 q 43 694 43 651 q 101 738 43 738 l 101 825 q 145 868 101 868 q 188 825 188 868 l 188 738 l 506 738 l 506 825 q 550 868 506 868 q 593 825 593 868 l 593 738 q 651 694 651 738 m 506 477 l 506 651 l 188 651 l 188 477 l 506 477 z "},"ħ":{"ha":694,"x_min":43,"x_max":622,"o":"m 622 43 q 579 0 622 0 q 535 43 535 0 l 535 347 q 484 470 535 419 q 362 521 433 521 q 239 470 290 521 q 188 347 188 419 l 188 43 q 145 0 188 0 q 101 43 101 0 l 101 651 q 43 694 43 650 q 101 738 43 738 l 101 825 q 145 868 101 868 q 188 825 188 868 l 188 738 l 362 738 q 405 694 405 738 q 362 651 405 651 l 188 651 l 188 541 q 362 608 262 608 q 546 531 469 608 q 622 347 622 455 l 622 43 z "},"Ĩ":{"ha":694,"x_min":130,"x_max":565,"o":"m 565 1043 q 554 1012 565 1030 q 434 955 521 955 q 332 998 385 955 q 260 1042 279 1042 q 215 1028 231 1042 q 175 998 205 998 q 130 1040 130 998 q 140 1071 130 1054 q 260 1128 174 1128 q 363 1085 310 1128 q 434 1042 416 1042 q 484 1063 469 1042 q 520 1085 499 1085 q 565 1043 565 1085 m 564 43 q 521 0 564 0 l 174 0 q 130 43 130 0 q 174 87 130 87 l 304 87 l 304 781 l 174 781 q 130 825 130 781 q 174 868 130 868 l 521 868 q 564 825 564 868 q 521 781 564 781 l 391 781 l 391 87 l 521 87 q 564 43 564 87 z "},"ĩ":{"ha":694,"x_min":130,"x_max":565,"o":"m 565 783 q 554 752 565 769 q 434 694 521 694 q 332 738 385 694 q 260 781 279 781 q 215 767 231 781 q 175 738 205 738 q 130 780 130 738 q 140 811 130 793 q 260 868 174 868 q 363 825 310 868 q 434 781 416 781 q 484 803 469 781 q 520 825 499 825 q 565 783 565 825 m 564 43 q 521 0 564 0 l 347 0 q 304 43 304 0 l 304 521 l 174 521 q 130 564 130 521 q 174 608 130 608 l 348 608 q 391 564 391 608 l 391 87 l 521 87 q 564 43 564 87 z "},"Ī":{"ha":694,"x_min":130,"x_max":564,"o":"m 521 1042 q 477 998 521 998 l 217 998 q 174 1042 174 998 q 217 1085 174 1085 l 477 1085 q 521 1042 521 1085 m 564 43 q 521 0 564 0 l 174 0 q 130 43 130 0 q 174 87 130 87 l 304 87 l 304 781 l 174 781 q 130 825 130 781 q 174 868 130 868 l 521 868 q 564 825 564 868 q 521 781 564 781 l 391 781 l 391 87 l 521 87 q 564 43 564 87 z "},"ī":{"ha":694,"x_min":130,"x_max":564,"o":"m 492 781 q 448 738 492 738 l 246 738 q 203 781 203 738 q 246 825 203 825 l 448 825 q 492 781 492 825 m 564 43 q 521 0 564 0 l 347 0 q 304 43 304 0 l 304 521 l 174 521 q 130 564 130 521 q 174 608 130 608 l 347 608 q 378 595 365 608 q 391 564 391 582 l 391 87 l 521 87 q 564 43 564 87 z "},"Ĭ":{"ha":694,"x_min":130,"x_max":564,"o":"m 523 1085 q 498 1042 523 1069 q 347 955 418 955 q 256 989 306 955 q 183 1058 211 1020 q 173 1085 173 1072 q 187 1116 173 1103 q 218 1129 200 1129 q 277 1085 235 1129 q 347 1042 319 1042 q 417 1085 375 1042 q 476 1129 459 1129 q 508 1116 494 1129 q 523 1085 523 1103 m 564 43 q 521 0 564 0 l 174 0 q 130 43 130 0 q 174 87 130 87 l 304 87 l 304 781 l 174 781 q 130 825 130 781 q 174 868 130 868 l 521 868 q 564 825 564 868 q 521 781 564 781 l 391 781 l 391 87 l 521 87 q 564 43 564 87 z "},"ĭ":{"ha":694,"x_min":130,"x_max":564,"o":"m 523 825 q 498 782 523 809 q 347 694 418 694 q 256 729 306 694 q 183 797 211 759 q 173 825 173 812 q 187 856 173 843 q 218 869 200 869 q 277 825 235 869 q 347 781 319 781 q 417 825 375 781 q 476 869 459 869 q 508 856 494 869 q 523 825 523 843 m 564 43 q 521 0 564 0 l 347 0 q 304 43 304 0 l 304 521 l 174 521 q 130 564 130 521 q 174 608 130 608 l 347 608 q 378 595 365 608 q 391 564 391 582 l 391 87 l 521 87 q 564 43 564 87 z "},"Į":{"ha":694,"x_min":130,"x_max":564,"o":"m 564 43 q 521 0 564 0 l 356 0 q 295 -25 320 0 q 269 -87 269 -51 q 295 -148 269 -123 q 356 -174 320 -174 q 422 -141 395 -174 q 468 -108 450 -108 q 499 -120 485 -108 q 513 -150 513 -133 q 506 -173 513 -161 q 444 -237 486 -213 q 356 -260 402 -260 q 233 -209 284 -260 q 182 -87 182 -159 q 205 0 182 -40 q 155 4 167 0 q 130 43 130 13 q 174 87 130 87 l 313 87 l 313 781 l 174 781 q 130 825 130 781 q 174 868 130 868 l 521 868 q 564 825 564 868 q 521 781 564 781 l 399 781 l 399 87 l 521 87 q 564 43 564 87 z "},"į":{"ha":694,"x_min":130,"x_max":564,"o":"m 413 802 q 394 756 413 775 q 347 738 374 738 q 301 756 320 738 q 281 802 281 775 q 301 849 281 829 q 347 868 320 868 q 394 849 374 868 q 413 802 413 829 m 564 43 q 521 0 564 0 l 347 0 q 286 -25 311 0 q 260 -87 260 -51 q 286 -148 260 -123 q 347 -174 311 -174 q 414 -141 387 -174 q 459 -108 442 -108 q 490 -120 476 -108 q 504 -150 504 -133 q 498 -173 504 -160 q 435 -236 478 -212 q 347 -260 392 -260 q 225 -209 275 -260 q 174 -87 174 -159 q 210 19 174 -28 q 304 82 247 67 l 304 521 l 174 521 q 130 564 130 521 q 174 608 130 608 l 347 608 q 378 595 365 608 q 391 564 391 582 l 391 87 l 521 87 q 564 43 564 87 z "},"İ":{"ha":694,"x_min":130,"x_max":564,"o":"m 413 1020 q 393 974 413 993 q 347 955 374 955 q 301 974 320 955 q 282 1020 282 993 q 301 1066 282 1047 q 347 1085 320 1085 q 394 1066 374 1085 q 413 1020 413 1047 m 564 43 q 521 0 564 0 l 174 0 q 130 43 130 0 q 174 87 130 87 l 304 87 l 304 781 l 174 781 q 130 825 130 781 q 174 868 130 868 l 521 868 q 564 825 564 868 q 521 781 564 781 l 391 781 l 391 87 l 521 87 q 564 43 564 87 z "},"ı":{"ha":694,"x_min":130,"x_max":564,"o":"m 564 43 q 521 0 564 0 l 347 0 q 304 43 304 0 l 304 521 l 174 521 q 130 564 130 521 q 174 608 130 608 l 347 608 q 378 595 365 608 q 391 564 391 582 l 391 87 l 521 87 q 564 43 564 87 z "},"Ĳ":{"ha":694,"x_min":43,"x_max":593,"o":"m 593 43 q 504 -171 593 -82 q 289 -260 415 -260 q 158 -230 223 -260 q 53 -148 89 -199 q 43 -120 43 -133 q 56 -89 43 -102 q 88 -76 70 -76 q 120 -93 104 -76 q 289 -174 203 -174 q 443 -110 379 -174 q 506 43 506 -46 l 506 781 l 376 781 q 333 825 333 781 q 376 868 333 868 l 550 868 q 593 825 593 868 l 593 43 m 304 43 q 260 0 304 0 l 87 0 q 43 43 43 0 q 73 84 43 76 q 130 87 83 87 l 130 781 q 117 781 126 781 q 104 781 108 781 q 43 825 43 781 q 87 868 43 868 l 260 868 q 304 825 304 868 q 274 784 304 792 q 217 781 264 781 l 217 87 q 230 87 221 87 q 244 87 239 87 q 304 43 304 87 z "},"ĳ":{"ha":694,"x_min":43,"x_max":616,"o":"m 616 802 q 596 756 616 775 q 550 738 577 738 q 503 756 523 738 q 484 802 484 775 q 503 849 484 829 q 550 868 523 868 q 596 849 577 868 q 616 802 616 829 m 283 802 q 264 756 283 775 q 217 738 244 738 q 170 756 190 738 q 151 802 151 775 q 170 849 151 829 q 217 868 190 868 q 264 849 244 868 q 283 802 283 829 m 391 43 q 347 0 391 0 l 217 0 q 174 43 174 0 l 174 521 l 87 521 q 43 564 43 521 q 87 608 43 608 l 217 608 q 247 595 234 608 q 260 564 260 582 l 260 87 l 347 87 q 391 43 391 87 m 593 564 l 593 43 q 504 -171 593 -82 q 289 -260 415 -260 q 158 -230 223 -260 q 53 -148 89 -199 q 43 -120 43 -133 q 56 -89 43 -102 q 88 -76 70 -76 q 120 -93 104 -76 q 149 -122 130 -103 q 289 -174 208 -174 q 443 -110 379 -174 q 506 43 506 -46 l 506 521 l 420 521 q 376 564 376 521 q 420 608 376 608 l 550 608 q 580 595 567 608 q 593 564 593 582 z "},"Ĵ":{"ha":694,"x_min":43,"x_max":593,"o":"m 492 999 q 479 968 492 982 q 449 954 466 954 q 424 962 436 954 l 318 1033 l 212 962 q 188 954 200 954 q 157 968 170 954 q 144 999 144 982 q 164 1034 144 1021 l 291 1119 q 318 1129 306 1129 q 346 1119 330 1129 l 473 1034 q 492 999 492 1021 m 593 43 q 504 -171 593 -82 q 289 -260 415 -260 q 158 -230 223 -260 q 53 -148 89 -199 q 43 -120 43 -133 q 56 -89 43 -102 q 88 -76 70 -76 q 120 -93 104 -76 q 289 -174 203 -174 q 443 -110 379 -174 q 506 43 506 -46 l 506 781 l 87 781 q 43 825 43 781 q 87 868 43 868 l 550 868 q 593 825 593 868 l 593 43 z "},"ĵ":{"ha":694,"x_min":43,"x_max":594,"o":"m 594 739 q 581 708 594 722 q 550 694 568 694 q 525 702 538 694 l 420 773 l 314 702 q 289 694 302 694 q 258 708 271 694 q 245 739 245 722 q 265 774 245 760 l 392 858 q 420 869 407 869 q 447 858 432 869 l 574 774 q 594 739 594 760 m 593 43 q 504 -171 593 -82 q 289 -260 415 -260 q 158 -230 223 -260 q 53 -148 89 -199 q 43 -120 43 -133 q 56 -89 43 -102 q 88 -76 70 -76 q 120 -93 104 -76 q 289 -174 203 -174 q 443 -110 379 -174 q 506 43 506 -46 l 506 521 l 376 521 q 333 564 333 521 q 376 608 333 608 l 550 608 q 593 565 593 608 l 593 43 z "},"Ķ":{"ha":694,"x_min":101,"x_max":652,"o":"m 652 43 q 638 13 652 26 q 607 -1 625 -1 q 576 13 590 -1 l 200 404 q 188 426 189 416 l 188 43 q 145 0 188 0 q 101 43 101 0 l 101 825 q 145 868 101 868 q 188 825 188 868 l 188 442 q 200 464 190 454 l 576 855 q 607 869 590 869 q 638 855 625 869 q 652 825 652 842 q 639 795 652 808 l 292 434 l 639 73 q 652 43 652 60 m 499 -87 q 448 -209 499 -159 q 326 -260 397 -260 q 238 -236 280 -260 q 175 -173 196 -212 q 168 -150 168 -161 q 182 -120 168 -133 q 214 -108 196 -108 q 259 -141 231 -108 q 326 -174 286 -174 q 387 -148 362 -174 q 413 -87 413 -123 q 387 -25 413 -51 q 326 0 362 0 q 282 43 282 0 q 326 87 282 87 q 448 36 397 87 q 499 -87 499 -15 m 193 414 q 188 427 189 420 l 188 426 q 193 414 188 422 m 198 407 q 193 414 195 410 q 198 407 195 410 m 198 406 q 191 417 193 411 q 198 406 195 410 z "},"ķ":{"ha":694,"x_min":101,"x_max":652,"o":"m 652 45 q 639 13 652 27 q 608 -1 626 -1 q 583 8 595 -1 l 212 264 q 188 296 191 279 l 188 43 q 145 0 188 0 q 101 43 101 0 l 101 825 q 145 868 101 868 q 188 825 188 868 l 188 312 q 212 343 191 329 l 583 600 q 608 608 595 608 q 639 594 626 608 q 652 563 652 580 q 633 528 652 542 l 308 304 l 633 79 q 652 45 652 66 m 512 -87 q 461 -209 512 -159 q 339 -260 410 -260 q 252 -237 293 -260 q 188 -173 208 -212 q 182 -150 182 -161 q 196 -120 182 -133 q 227 -108 209 -108 q 272 -141 244 -108 q 339 -174 300 -174 q 400 -148 374 -174 q 425 -87 425 -123 q 400 -25 425 -51 q 339 0 374 0 q 295 43 295 0 q 339 87 295 87 q 461 36 410 87 q 512 -87 512 -15 z "},"ĸ":{"ha":694,"x_min":101,"x_max":652,"o":"m 652 45 q 639 13 652 27 q 608 -1 626 -1 q 583 8 595 -1 l 212 264 q 188 296 191 279 l 188 43 q 145 0 188 0 q 101 43 101 0 l 101 564 q 145 608 101 608 q 188 564 188 608 l 188 312 q 212 343 191 329 l 583 600 q 608 608 595 608 q 639 594 626 608 q 652 563 652 580 q 633 528 652 542 l 308 304 l 633 79 q 652 45 652 66 z "},"Ĺ":{"ha":694,"x_min":101,"x_max":651,"o":"m 478 1084 q 454 1046 478 1058 l 280 959 q 259 954 270 954 q 229 968 241 954 q 216 999 216 982 q 241 1037 216 1025 l 414 1124 q 435 1129 425 1129 q 466 1115 453 1129 q 478 1084 478 1101 m 651 43 q 608 0 651 0 l 145 0 q 101 43 101 0 l 101 825 q 145 868 101 868 q 188 825 188 868 l 188 87 l 608 87 q 651 43 651 87 z "},"ĺ":{"ha":694,"x_min":174,"x_max":652,"o":"m 435 1084 q 410 1046 435 1058 l 237 959 q 216 954 226 954 q 186 968 198 954 q 174 999 174 982 q 198 1037 174 1025 l 372 1124 q 392 1129 382 1129 q 422 1115 410 1129 q 435 1084 435 1101 m 652 131 q 642 104 652 119 q 551 28 612 57 q 434 0 493 0 q 250 76 326 0 q 174 260 174 153 l 174 825 q 217 868 174 868 q 260 825 260 868 l 260 260 q 311 138 260 189 q 434 87 362 87 q 547 130 497 87 q 606 174 596 174 q 638 161 624 174 q 652 131 652 148 z "},"Ļ":{"ha":694,"x_min":101,"x_max":651,"o":"m 651 43 q 608 0 651 0 l 527 0 q 550 -87 550 -40 q 499 -209 550 -159 q 376 -260 448 -260 q 288 -236 331 -260 q 226 -173 246 -212 q 219 -150 219 -161 q 233 -120 219 -133 q 264 -108 247 -108 q 310 -141 282 -108 q 376 -174 337 -174 q 438 -148 412 -174 q 463 -87 463 -123 q 438 -25 463 -51 q 376 0 412 0 l 145 0 q 101 43 101 0 l 101 825 q 145 868 101 868 q 188 825 188 868 l 188 87 l 608 87 q 651 43 651 87 z "},"ļ":{"ha":694,"x_min":174,"x_max":652,"o":"m 652 131 q 617 73 652 106 q 560 32 590 48 q 608 -87 608 -18 q 557 -209 608 -159 q 434 -260 506 -260 q 346 -237 388 -260 q 284 -173 304 -213 q 277 -150 277 -161 q 291 -120 277 -133 q 322 -108 305 -108 q 367 -141 339 -108 q 434 -174 395 -174 q 495 -148 470 -174 q 521 -87 521 -123 q 495 -25 521 -51 q 434 0 470 0 q 250 76 326 0 q 174 260 174 153 l 174 825 q 217 868 174 868 q 260 825 260 868 l 260 260 q 311 138 260 189 q 434 87 362 87 q 547 130 497 87 q 606 174 597 174 q 638 161 624 174 q 652 131 652 148 z "},"Ľ":{"ha":694,"x_min":101,"x_max":651,"o":"m 521 1084 q 502 1049 521 1063 l 375 965 q 347 954 359 954 q 319 965 335 954 l 193 1049 q 173 1084 173 1063 q 186 1115 173 1101 q 216 1129 199 1129 q 241 1121 229 1129 l 347 1050 l 453 1121 q 478 1129 465 1129 q 508 1115 495 1129 q 521 1084 521 1101 m 651 43 q 608 0 651 0 l 145 0 q 101 43 101 0 l 101 825 q 145 868 101 868 q 188 825 188 868 l 188 87 l 608 87 q 651 43 651 87 z "},"ľ":{"ha":694,"x_min":87,"x_max":652,"o":"m 435 1084 q 416 1049 435 1063 l 289 965 q 261 954 273 954 q 233 965 249 954 l 106 1049 q 87 1084 87 1063 q 100 1115 87 1101 q 130 1129 113 1129 q 155 1121 143 1129 l 261 1050 l 367 1121 q 392 1129 379 1129 q 422 1115 410 1129 q 435 1084 435 1101 m 652 131 q 642 104 652 119 q 551 28 612 57 q 434 0 493 0 q 250 76 326 0 q 174 260 174 153 l 174 825 q 217 868 174 868 q 260 825 260 868 l 260 260 q 311 138 260 189 q 434 87 362 87 q 547 130 497 87 q 606 174 596 174 q 638 161 624 174 q 652 131 652 148 z "},"Ŀ":{"ha":694,"x_min":101,"x_max":651,"o":"m 557 434 q 538 388 557 407 q 492 369 519 369 q 446 388 465 369 q 427 434 427 407 q 446 480 427 461 q 492 499 465 499 q 538 480 519 499 q 557 434 557 461 m 651 43 q 608 0 651 0 l 145 0 q 101 43 101 0 l 101 825 q 145 868 101 868 q 188 825 188 868 l 188 87 l 608 87 q 651 43 651 87 z "},"ŀ":{"ha":694,"x_min":174,"x_max":652,"o":"m 630 434 q 611 388 630 407 q 564 369 591 369 q 518 388 537 369 q 499 434 499 407 q 518 480 499 461 q 564 499 537 499 q 611 480 591 499 q 630 434 630 461 m 652 131 q 642 104 652 119 q 551 28 612 57 q 434 0 493 0 q 250 76 326 0 q 174 260 174 153 l 174 825 q 217 868 174 868 q 260 825 260 868 l 260 260 q 311 138 260 189 q 434 87 362 87 q 547 130 497 87 q 606 174 596 174 q 638 161 624 174 q 652 131 652 148 z "},"Ł":{"ha":694,"x_min":43,"x_max":651,"o":"m 651 43 q 608 0 651 0 l 145 0 q 101 43 101 0 l 101 350 q 85 347 93 347 q 43 392 43 347 q 63 427 43 414 q 101 441 69 431 l 101 825 q 145 868 101 868 q 188 825 188 868 l 188 470 q 349 521 341 521 q 391 476 391 521 q 361 436 391 446 l 188 378 l 188 87 l 608 87 q 651 43 651 87 z "},"ł":{"ha":694,"x_min":43,"x_max":652,"o":"m 652 131 q 642 104 652 119 q 551 28 611 57 q 434 0 493 0 q 250 76 326 0 q 174 260 174 153 l 174 374 q 85 347 94 347 q 43 392 43 347 q 73 432 43 422 l 174 465 l 174 825 q 217 868 174 868 q 260 825 260 868 l 260 494 q 349 521 340 521 q 391 476 391 521 q 361 436 391 446 l 260 403 l 260 260 q 311 138 260 189 q 434 87 362 87 q 519 109 483 87 q 569 152 536 120 q 606 174 592 174 q 638 161 624 174 q 652 131 652 148 z "},"Ń":{"ha":694,"x_min":101,"x_max":594,"o":"m 478 1084 q 454 1046 478 1058 l 280 959 q 259 954 270 954 q 229 968 241 954 q 216 999 216 982 q 241 1037 216 1025 l 414 1124 q 435 1129 425 1129 q 466 1115 453 1129 q 478 1084 478 1101 m 594 43 q 549 -1 594 -1 q 509 29 524 -1 l 188 646 l 188 43 q 145 0 188 0 q 101 43 101 0 l 101 825 q 146 869 101 869 q 186 839 171 869 l 506 222 l 506 825 q 550 868 506 868 q 593 825 593 868 l 594 43 z "},"ń":{"ha":694,"x_min":101,"x_max":622,"o":"m 492 823 q 468 786 492 798 l 295 699 q 274 694 284 694 q 243 708 256 694 q 231 739 231 722 q 255 777 231 764 l 429 863 q 450 869 439 869 q 480 855 468 869 q 492 823 492 841 m 622 43 q 579 0 622 0 q 535 43 535 0 l 535 347 q 484 470 535 419 q 362 521 433 521 q 239 470 290 521 q 188 347 188 419 l 188 43 q 145 0 188 0 q 101 43 101 0 l 101 564 q 145 608 101 608 q 188 541 189 608 q 362 608 262 608 q 546 531 469 608 q 622 347 622 455 l 622 43 z "},"Ņ":{"ha":694,"x_min":101,"x_max":594,"o":"m 594 43 q 549 -1 594 -1 q 509 29 524 -1 l 188 646 l 188 43 q 145 0 188 0 q 101 43 101 0 l 101 825 q 146 869 101 869 q 186 839 171 869 l 506 222 l 506 825 q 550 868 506 868 q 593 825 593 868 l 594 43 m 521 -87 q 470 -209 521 -159 q 347 -260 419 -260 q 259 -236 302 -260 q 197 -173 217 -212 q 190 -150 190 -161 q 204 -120 190 -133 q 236 -108 218 -108 q 281 -141 253 -108 q 347 -174 308 -174 q 409 -148 383 -174 q 434 -87 434 -123 q 409 -25 434 -51 q 347 0 383 0 q 304 43 304 0 q 347 87 304 87 q 470 36 419 87 q 521 -87 521 -15 z "},"ņ":{"ha":694,"x_min":101,"x_max":622,"o":"m 622 43 q 579 0 622 0 q 535 43 535 0 l 535 347 q 484 470 535 419 q 362 521 433 521 q 239 470 290 521 q 188 347 188 419 l 188 43 q 145 0 188 0 q 101 43 101 0 l 101 564 q 145 608 101 608 q 188 541 189 608 q 362 608 262 608 q 546 531 469 608 q 622 347 622 455 l 622 43 m 535 -87 q 484 -209 535 -159 q 362 -260 433 -260 q 274 -236 316 -260 q 211 -173 231 -212 q 205 -150 205 -161 q 219 -120 205 -133 q 250 -108 233 -108 q 295 -141 267 -108 q 362 -174 323 -174 q 423 -148 398 -174 q 448 -87 448 -123 q 423 -25 448 -51 q 362 0 398 0 q 318 43 318 0 q 362 87 318 87 q 484 36 433 87 q 535 -87 535 -15 z "},"Ň":{"ha":694,"x_min":101,"x_max":594,"o":"m 521 1084 q 502 1049 521 1063 l 375 965 q 347 954 359 954 q 319 965 335 954 l 193 1049 q 173 1084 173 1063 q 186 1115 173 1101 q 216 1129 199 1129 q 241 1121 229 1129 l 347 1050 l 453 1121 q 478 1129 465 1129 q 508 1115 495 1129 q 521 1084 521 1101 m 594 43 q 549 -1 594 -1 q 509 29 524 -1 l 188 646 l 188 43 q 145 0 188 0 q 101 43 101 0 l 101 825 q 146 869 101 869 q 186 839 171 869 l 506 222 l 506 825 q 550 868 506 868 q 593 825 593 868 l 594 43 z "},"ň":{"ha":694,"x_min":101,"x_max":622,"o":"m 536 823 q 516 789 536 802 l 389 704 q 362 694 374 694 q 334 704 350 694 l 207 789 q 188 823 188 802 q 201 855 188 841 q 231 869 214 869 q 256 861 244 869 l 362 790 l 468 861 q 492 869 480 869 q 523 855 510 869 q 536 823 536 841 m 622 43 q 579 0 622 0 q 535 43 535 0 l 535 347 q 484 470 535 419 q 362 521 433 521 q 239 470 290 521 q 188 347 188 419 l 188 43 q 145 0 188 0 q 101 43 101 0 l 101 564 q 145 608 101 608 q 188 541 189 608 q 362 608 262 608 q 546 531 469 608 q 622 347 622 455 l 622 43 z "},"ŉ":{"ha":694,"x_min":43,"x_max":622,"o":"m 218 826 q 214 808 218 818 l 127 591 q 88 564 116 564 q 57 576 71 564 q 43 606 43 589 q 46 624 43 615 l 133 841 q 172 869 144 869 q 204 856 190 869 q 218 826 218 844 m 622 43 q 579 0 622 0 q 535 43 535 0 l 535 391 q 497 483 535 444 q 405 521 459 521 q 313 483 351 521 q 275 391 275 444 l 275 43 q 231 0 275 0 q 188 43 188 0 l 188 564 q 231 608 188 608 q 275 564 275 608 q 405 608 333 608 q 558 544 495 608 q 622 391 622 480 l 622 43 z "},"Ŋ":{"ha":694,"x_min":43,"x_max":594,"o":"m 594 42 q 504 -171 594 -82 q 289 -260 414 -260 q 159 -231 222 -260 q 53 -148 92 -200 q 43 -120 43 -134 q 56 -89 43 -102 q 88 -76 70 -76 q 120 -93 104 -76 q 289 -174 200 -174 q 439 -113 376 -174 q 506 33 502 -53 l 188 646 l 188 43 q 145 0 188 0 q 101 43 101 0 l 101 825 q 146 869 101 869 q 186 839 171 869 l 506 222 l 506 825 q 550 868 506 868 q 593 825 593 868 l 594 42 z "},"ŋ":{"ha":694,"x_min":72,"x_max":622,"o":"m 622 43 q 533 -171 622 -82 q 318 -260 444 -260 q 187 -230 252 -260 q 82 -148 119 -199 q 72 -120 72 -133 q 85 -89 72 -102 q 117 -76 99 -76 q 158 -101 131 -76 q 218 -148 194 -135 q 318 -174 262 -174 q 472 -110 408 -174 q 535 43 535 -46 l 535 347 q 484 470 535 419 q 362 521 433 521 q 239 470 290 521 q 188 347 188 419 l 188 43 q 145 0 188 0 q 101 43 101 0 l 101 564 q 145 608 101 608 q 188 541 189 608 q 362 608 262 608 q 546 531 469 608 q 622 347 622 455 l 622 43 z "},"Ō":{"ha":694,"x_min":43,"x_max":651,"o":"m 651 1042 q 608 998 651 998 l 87 998 q 43 1042 43 998 q 87 1085 43 1085 l 608 1085 q 651 1042 651 1085 m 651 434 q 578 151 651 278 q 347 0 491 0 q 116 151 203 0 q 43 434 43 278 q 116 717 43 590 q 347 868 203 868 q 578 717 491 868 q 651 434 651 590 m 564 434 q 545 576 564 510 q 476 712 523 655 q 347 781 418 781 q 219 712 277 781 q 149 576 172 655 q 130 434 130 510 q 149 292 130 358 q 219 156 172 213 q 347 87 277 87 q 476 156 418 87 q 545 292 523 213 q 564 434 564 358 z "},"ō":{"ha":694,"x_min":43,"x_max":651,"o":"m 651 781 q 608 738 651 738 l 87 738 q 43 781 43 738 q 87 825 43 825 l 608 825 q 651 781 651 825 m 651 304 q 562 89 651 178 q 347 0 473 0 q 133 89 222 0 q 43 304 43 178 q 133 519 43 429 q 347 608 222 608 q 562 519 473 608 q 651 304 651 429 m 564 304 q 501 457 564 394 q 347 521 437 521 q 194 457 258 521 q 130 304 130 394 q 194 150 130 214 q 347 87 258 87 q 501 150 437 87 q 564 304 564 214 z "},"Ŏ":{"ha":694,"x_min":43,"x_max":651,"o":"m 523 1085 q 498 1042 523 1069 q 347 955 418 955 q 256 989 306 955 q 183 1058 211 1020 q 173 1085 173 1072 q 187 1116 173 1103 q 218 1129 200 1129 q 277 1085 235 1129 q 347 1042 319 1042 q 417 1085 375 1042 q 476 1129 459 1129 q 508 1116 494 1129 q 523 1085 523 1103 m 651 434 q 578 151 651 278 q 347 0 491 0 q 116 151 203 0 q 43 434 43 278 q 116 717 43 590 q 347 868 203 868 q 578 717 491 868 q 651 434 651 590 m 564 434 q 545 576 564 510 q 476 712 523 655 q 347 781 418 781 q 219 712 277 781 q 149 576 172 655 q 130 434 130 510 q 149 292 130 358 q 219 156 172 213 q 347 87 277 87 q 476 156 418 87 q 545 292 523 213 q 564 434 564 358 z "},"ŏ":{"ha":694,"x_min":43,"x_max":651,"o":"m 523 825 q 498 782 523 809 q 347 694 418 694 q 256 729 306 694 q 183 797 211 759 q 173 825 173 812 q 187 856 173 843 q 218 869 200 869 q 277 825 235 869 q 347 781 319 781 q 417 825 375 781 q 476 869 459 869 q 508 856 494 869 q 523 825 523 843 m 651 304 q 562 89 651 178 q 347 0 473 0 q 133 89 222 0 q 43 304 43 178 q 133 519 43 429 q 347 608 222 608 q 562 519 473 608 q 651 304 651 429 m 564 304 q 501 457 564 394 q 347 521 437 521 q 194 457 258 521 q 130 304 130 394 q 194 150 130 214 q 347 87 258 87 q 501 150 437 87 q 564 304 564 214 z "},"Ő":{"ha":694,"x_min":43,"x_max":651,"o":"m 608 1084 q 584 1046 608 1058 l 410 959 q 389 954 400 954 q 359 968 372 954 q 347 999 347 982 q 371 1037 347 1025 l 545 1124 q 565 1129 555 1129 q 596 1115 583 1129 q 608 1084 608 1101 m 348 1084 q 323 1046 348 1058 l 150 959 q 129 954 139 954 q 99 968 111 954 q 86 999 86 982 q 111 1037 86 1025 l 284 1124 q 305 1129 295 1129 q 335 1115 323 1129 q 348 1084 348 1101 m 651 434 q 578 151 651 278 q 347 0 491 0 q 116 151 203 0 q 43 434 43 278 q 116 717 43 590 q 347 868 203 868 q 578 717 491 868 q 651 434 651 590 m 564 434 q 545 576 564 510 q 476 712 523 655 q 347 781 418 781 q 219 712 277 781 q 149 576 172 655 q 130 434 130 510 q 149 292 130 358 q 219 156 172 213 q 347 87 277 87 q 476 156 418 87 q 545 292 523 213 q 564 434 564 358 z "},"ő":{"ha":694,"x_min":43,"x_max":651,"o":"m 608 823 q 584 786 608 798 l 410 699 q 389 694 400 694 q 359 708 372 694 q 347 739 347 722 q 371 777 347 764 l 545 863 q 565 869 555 869 q 596 855 583 869 q 608 823 608 841 m 348 823 q 323 786 348 798 l 150 699 q 129 694 139 694 q 99 708 111 694 q 86 739 86 722 q 111 777 86 764 l 284 863 q 305 869 295 869 q 335 855 323 869 q 348 823 348 841 m 651 304 q 562 89 651 178 q 347 0 473 0 q 133 89 222 0 q 43 304 43 178 q 133 519 43 429 q 347 608 222 608 q 562 519 473 608 q 651 304 651 429 m 564 304 q 501 457 564 394 q 347 521 437 521 q 194 457 258 521 q 130 304 130 394 q 194 150 130 214 q 347 87 258 87 q 501 150 437 87 q 564 304 564 214 z "},"Œ":{"ha":694,"x_min":43,"x_max":651,"o":"m 651 43 q 608 0 651 0 l 347 0 q 116 151 203 0 q 43 434 43 278 q 116 717 43 590 q 347 868 203 868 l 608 868 q 651 825 651 868 q 608 781 651 781 l 531 781 q 651 434 651 650 q 531 87 651 218 l 608 87 q 651 43 651 87 m 564 434 q 524 632 564 539 q 391 774 477 744 l 391 477 l 521 477 q 564 434 564 477 q 521 391 564 391 l 391 391 l 391 94 q 525 236 477 124 q 564 434 564 328 m 304 94 l 304 774 q 170 632 217 743 q 130 434 130 541 q 170 236 130 328 q 304 94 217 125 z "},"œ":{"ha":694,"x_min":43,"x_max":652,"o":"m 652 439 q 640 405 652 422 q 553 306 611 372 q 425 163 512 256 q 491 87 451 87 q 539 125 517 87 q 566 186 542 130 q 606 217 580 217 q 652 175 652 217 q 649 161 652 168 q 491 0 602 0 q 356 101 405 0 q 222 0 306 0 q 82 112 131 0 q 43 304 43 200 q 82 495 43 408 q 222 608 131 608 q 356 506 306 608 q 491 608 406 608 q 597 549 542 608 q 652 439 652 491 m 558 444 q 491 521 529 521 q 462 506 478 521 q 400 304 400 448 q 402 270 400 289 l 558 444 m 313 304 q 256 501 313 439 q 222 521 237 521 q 193 506 209 521 q 130 304 130 448 q 193 102 130 160 q 222 87 209 87 q 256 107 237 87 q 313 304 313 169 z "},"Ŕ":{"ha":694,"x_min":87,"x_max":608,"o":"m 478 1084 q 454 1046 478 1058 l 280 959 q 259 954 270 954 q 229 968 241 954 q 216 999 216 982 q 241 1037 216 1025 l 414 1124 q 435 1129 425 1129 q 466 1115 453 1129 q 478 1084 478 1101 m 608 44 q 595 13 608 26 q 564 -1 582 -1 q 534 13 547 -1 l 192 354 q 174 383 177 370 l 174 43 q 130 0 174 0 q 87 43 87 0 l 87 825 q 130 868 87 868 l 347 868 q 531 792 455 868 q 608 608 608 715 q 531 424 608 500 q 347 347 455 347 l 322 347 l 595 74 q 608 44 608 61 m 521 608 q 470 730 521 679 q 347 781 419 781 l 174 781 l 174 398 q 225 434 181 434 l 347 434 q 470 485 419 434 q 521 608 521 536 z "},"ŕ":{"ha":694,"x_min":182,"x_max":513,"o":"m 487 823 q 462 786 487 798 l 289 699 q 268 694 278 694 q 238 708 250 694 q 225 739 225 722 q 249 777 225 764 l 423 863 q 444 869 433 869 q 474 855 462 869 q 487 823 487 841 m 513 498 q 499 468 513 480 q 468 455 485 455 q 422 488 450 455 q 356 521 395 521 q 295 495 320 521 q 269 434 269 470 l 269 43 q 226 0 269 0 q 182 43 182 0 l 182 564 q 226 608 182 608 q 266 582 255 608 q 356 608 307 608 q 443 584 401 608 q 506 521 486 560 q 513 498 513 508 z "},"Ŗ":{"ha":694,"x_min":87,"x_max":608,"o":"m 608 44 q 595 13 608 26 q 564 -1 582 -1 q 534 13 547 -1 l 192 354 q 174 383 177 370 l 174 43 q 130 0 174 0 q 87 43 87 0 l 87 825 q 130 868 87 868 l 347 868 q 531 792 455 868 q 608 608 608 715 q 531 424 608 500 q 347 347 455 347 l 322 347 l 595 74 q 608 44 608 61 m 521 -87 q 470 -209 521 -159 q 347 -260 419 -260 q 259 -236 302 -260 q 197 -173 217 -212 q 190 -150 190 -161 q 204 -120 190 -133 q 236 -108 218 -108 q 281 -141 253 -108 q 347 -174 308 -174 q 409 -148 383 -174 q 434 -87 434 -123 q 409 -25 434 -51 q 347 0 383 0 q 304 43 304 0 q 347 87 304 87 q 470 36 419 87 q 521 -87 521 -15 m 521 608 q 470 730 521 679 q 347 781 419 781 l 174 781 l 174 398 q 225 434 181 434 l 347 434 q 470 485 419 434 q 521 608 521 536 z "},"ŗ":{"ha":694,"x_min":125,"x_max":569,"o":"m 569 498 q 556 468 569 480 q 524 455 542 455 q 479 488 507 455 q 413 521 451 521 q 351 495 377 521 q 326 434 326 470 l 326 82 q 420 19 383 67 q 456 -87 456 -28 q 405 -209 456 -159 q 282 -260 354 -260 q 195 -237 237 -260 q 131 -173 152 -212 q 125 -150 125 -160 q 139 -120 125 -133 q 171 -108 153 -108 q 215 -141 188 -108 q 282 -174 243 -174 q 344 -148 318 -174 q 369 -87 369 -123 q 344 -25 369 -51 q 282 0 318 0 q 252 13 265 0 q 239 43 239 26 l 239 564 q 282 608 239 608 q 322 582 312 608 q 413 608 363 608 q 500 584 457 608 q 563 521 543 560 q 569 498 569 508 z "},"Ř":{"ha":694,"x_min":101,"x_max":652,"o":"m 521 1084 q 502 1049 521 1063 l 375 965 q 347 954 359 954 q 319 965 335 954 l 193 1049 q 173 1084 173 1063 q 186 1115 173 1101 q 216 1129 199 1129 q 241 1121 229 1129 l 347 1050 l 453 1121 q 478 1129 465 1129 q 508 1115 495 1129 q 521 1084 521 1101 m 652 44 q 638 13 652 26 q 607 -1 625 -1 q 577 13 590 -1 l 236 354 q 216 390 216 373 q 269 434 216 434 l 391 434 q 513 485 462 434 q 564 608 564 536 q 513 730 564 679 q 391 781 462 781 l 188 781 l 188 43 q 145 0 188 0 q 101 43 101 0 l 101 825 q 144 868 101 868 l 391 868 q 575 792 498 868 q 651 608 651 715 q 575 424 651 500 q 391 347 498 347 l 365 347 l 638 74 q 652 44 652 61 z "},"ř":{"ha":694,"x_min":101,"x_max":652,"o":"m 579 823 q 560 789 579 802 l 433 704 q 405 694 417 694 q 377 704 393 694 l 251 789 q 231 823 231 802 q 244 855 231 841 q 274 869 257 869 q 299 861 287 869 l 405 790 l 511 861 q 536 869 523 869 q 566 855 553 869 q 579 823 579 841 m 652 468 q 638 437 652 450 q 606 424 624 424 q 574 440 590 424 q 405 521 494 521 q 252 457 315 521 q 188 304 188 394 l 188 43 q 145 0 188 0 q 101 43 101 0 l 101 564 q 145 608 101 608 q 186 575 178 608 q 188 516 189 565 q 405 608 277 608 q 536 578 471 608 q 641 495 605 546 q 652 468 652 480 z "},"Ś":{"ha":694,"x_min":43,"x_max":651,"o":"m 464 1084 q 439 1046 464 1058 l 266 959 q 245 954 255 954 q 214 968 227 954 q 202 999 202 982 q 227 1037 202 1025 l 400 1124 q 421 1129 411 1129 q 451 1115 439 1129 q 464 1084 464 1101 m 651 260 q 546 68 651 143 q 329 0 451 0 q 175 31 249 0 q 52 126 93 66 q 43 153 43 140 q 56 183 43 170 q 88 196 70 196 q 122 178 105 196 q 147 150 130 168 q 329 87 218 87 q 484 130 414 87 q 564 260 564 181 q 484 391 564 340 q 329 434 414 434 q 149 491 227 434 q 62 651 62 553 q 149 811 62 749 q 329 868 227 868 q 455 842 394 868 q 556 764 522 814 q 566 738 566 751 q 552 707 566 720 q 521 694 538 694 q 487 712 505 694 q 329 781 419 781 q 211 749 264 781 q 149 651 149 711 q 211 553 149 591 q 329 521 264 521 q 546 453 451 521 q 651 260 651 378 z "},"ś":{"ha":694,"x_min":83,"x_max":611,"o":"m 470 823 q 446 786 470 798 l 272 699 q 251 694 262 694 q 221 708 234 694 q 209 739 209 722 q 233 777 209 764 l 407 863 q 428 869 417 869 q 457 855 445 869 q 470 823 470 841 m 611 196 q 518 47 611 103 q 340 0 439 0 q 198 28 266 0 q 89 120 120 61 q 83 142 83 132 q 97 172 83 160 q 128 185 111 185 q 164 163 148 185 q 340 87 222 87 q 506 151 457 87 q 524 196 524 174 q 484 261 524 231 q 410 295 451 284 q 331 304 375 304 q 197 341 256 304 q 129 456 129 385 q 199 571 129 527 q 336 608 259 608 q 430 591 383 608 q 509 539 484 572 q 520 510 520 524 q 507 480 520 493 q 475 466 493 466 q 427 494 468 466 q 336 521 387 521 q 225 478 259 521 q 216 456 216 466 q 288 396 216 414 q 346 391 313 391 q 521 343 443 391 q 611 196 611 286 z "},"Ŝ":{"ha":694,"x_min":43,"x_max":651,"o":"m 507 999 q 494 968 507 982 q 464 954 481 954 q 439 962 451 954 l 333 1033 l 227 962 q 202 954 215 954 q 172 968 185 954 q 159 999 159 982 q 178 1034 159 1021 l 305 1119 q 333 1129 321 1129 q 361 1119 345 1129 l 487 1034 q 507 999 507 1021 m 651 260 q 546 68 651 143 q 329 0 451 0 q 175 31 249 0 q 52 126 93 66 q 43 153 43 140 q 56 183 43 170 q 88 196 70 196 q 122 178 105 196 q 147 150 130 168 q 329 87 218 87 q 484 130 414 87 q 564 260 564 181 q 484 391 564 340 q 329 434 414 434 q 149 491 227 434 q 62 651 62 553 q 149 811 62 749 q 329 868 227 868 q 455 842 394 868 q 556 764 522 814 q 566 738 566 751 q 552 707 566 720 q 521 694 538 694 q 487 712 505 694 q 329 781 419 781 q 211 749 264 781 q 149 651 149 711 q 211 553 149 591 q 329 521 264 521 q 546 453 451 521 q 651 260 651 378 z "},"ŝ":{"ha":694,"x_min":83,"x_max":611,"o":"m 513 739 q 501 708 513 722 q 470 694 488 694 q 446 702 458 694 l 339 773 l 233 702 q 208 694 221 694 q 178 708 191 694 q 165 739 165 722 q 185 774 165 760 l 312 858 q 339 869 328 869 q 367 858 351 869 l 494 774 q 513 739 513 760 m 611 196 q 518 47 611 103 q 340 0 439 0 q 198 28 266 0 q 89 120 120 61 q 83 142 83 132 q 97 172 83 160 q 128 185 111 185 q 164 163 148 185 q 340 87 222 87 q 506 151 457 87 q 524 196 524 174 q 484 261 524 231 q 410 295 451 284 q 331 304 375 304 q 197 341 256 304 q 129 456 129 385 q 199 571 129 527 q 336 608 259 608 q 430 591 383 608 q 509 539 484 572 q 520 510 520 524 q 507 480 520 493 q 475 466 493 466 q 427 494 468 466 q 336 521 387 521 q 225 478 259 521 q 216 456 216 466 q 288 396 216 414 q 346 391 313 391 q 521 343 443 391 q 611 196 611 286 z "},"Ş":{"ha":694,"x_min":43,"x_max":651,"o":"m 651 260 q 596 115 651 179 q 466 25 546 56 q 506 -87 506 -24 q 455 -209 506 -159 q 333 -260 405 -260 q 182 -173 230 -260 q 176 -150 176 -161 q 190 -120 176 -133 q 221 -108 204 -108 q 266 -141 238 -108 q 333 -174 295 -174 q 394 -148 369 -174 q 420 -87 420 -123 q 393 -25 420 -49 q 329 0 367 0 q 175 31 249 0 q 52 126 92 67 q 43 153 43 140 q 56 183 43 170 q 88 196 70 196 q 122 178 105 196 q 149 149 130 168 q 329 87 218 87 q 484 130 414 87 q 564 260 564 181 q 484 391 564 340 q 329 434 414 434 q 149 491 227 434 q 62 651 62 553 q 149 811 62 749 q 329 868 227 868 q 455 842 394 868 q 556 764 523 814 q 566 738 566 751 q 552 707 566 720 q 521 694 538 694 q 487 712 505 694 q 329 781 419 781 q 211 749 264 781 q 149 651 149 711 q 211 553 149 591 q 329 521 264 521 q 546 453 451 521 q 651 260 651 378 z "},"ş":{"ha":694,"x_min":83,"x_max":611,"o":"m 611 196 q 475 25 611 80 q 516 -87 516 -23 q 465 -209 516 -159 q 342 -260 414 -260 q 255 -236 297 -260 q 192 -173 212 -212 q 185 -150 185 -161 q 199 -120 185 -133 q 231 -108 213 -108 q 275 -141 248 -108 q 342 -174 303 -174 q 403 -148 378 -174 q 429 -87 429 -123 q 403 -25 429 -50 q 340 0 377 0 q 198 28 266 0 q 89 120 119 61 q 83 142 83 132 q 97 172 83 160 q 128 185 111 185 q 164 163 148 185 q 340 87 220 87 q 506 150 455 87 q 524 196 524 174 q 485 260 524 230 q 414 294 454 283 q 331 304 377 304 q 197 341 256 304 q 129 456 129 385 q 199 571 129 527 q 336 608 259 608 q 430 591 383 608 q 509 539 484 572 q 520 510 520 524 q 507 480 520 493 q 475 466 493 466 q 427 494 468 466 q 336 521 387 521 q 227 480 259 521 q 216 456 216 467 q 227 432 216 445 q 346 391 260 391 q 521 343 443 391 q 611 196 611 286 z "},"Š":{"ha":694,"x_min":43,"x_max":651,"o":"m 507 1084 q 487 1049 507 1064 q 333 957 363 957 q 178 1049 303 957 q 159 1084 159 1064 q 172 1115 159 1101 q 202 1129 185 1129 q 227 1121 215 1129 l 333 1050 l 439 1121 q 464 1129 451 1129 q 494 1115 481 1129 q 507 1084 507 1101 m 651 260 q 546 68 651 143 q 329 0 451 0 q 175 31 249 0 q 52 126 93 66 q 43 153 43 140 q 56 183 43 170 q 88 196 70 196 q 122 178 105 196 q 147 150 130 168 q 329 87 218 87 q 484 130 414 87 q 564 260 564 181 q 484 391 564 340 q 329 434 414 434 q 149 491 227 434 q 62 651 62 553 q 149 811 62 749 q 329 868 227 868 q 455 842 394 868 q 556 764 522 814 q 566 738 566 751 q 552 707 566 720 q 521 694 538 694 q 487 712 505 694 q 329 781 419 781 q 211 749 264 781 q 149 651 149 711 q 211 553 149 591 q 329 521 264 521 q 546 453 451 521 q 651 260 651 378 z "},"š":{"ha":694,"x_min":83,"x_max":611,"o":"m 515 823 q 495 789 515 803 q 341 696 371 696 q 186 789 311 696 q 167 823 167 803 q 179 855 167 841 q 210 869 192 869 q 235 861 223 869 l 341 790 l 447 861 q 472 869 459 869 q 502 855 489 869 q 515 823 515 841 m 611 196 q 518 47 611 103 q 340 0 439 0 q 198 28 266 0 q 89 120 120 61 q 83 142 83 132 q 97 172 83 160 q 128 185 111 185 q 164 163 148 185 q 340 87 222 87 q 506 151 457 87 q 524 196 524 174 q 484 261 524 231 q 410 295 451 284 q 331 304 375 304 q 197 341 256 304 q 129 456 129 385 q 199 571 129 527 q 336 608 259 608 q 430 591 383 608 q 509 539 484 572 q 520 510 520 524 q 507 480 520 493 q 475 466 493 466 q 427 494 468 466 q 336 521 387 521 q 225 478 259 521 q 216 456 216 466 q 288 396 216 414 q 346 391 313 391 q 521 343 443 391 q 611 196 611 286 z "},"Ţ":{"ha":694,"x_min":43,"x_max":651,"o":"m 651 825 q 608 781 651 781 l 391 781 l 391 82 q 484 19 448 67 q 521 -87 521 -28 q 470 -209 521 -159 q 347 -260 419 -260 q 259 -236 302 -260 q 197 -173 216 -212 q 190 -150 190 -160 q 204 -120 190 -133 q 236 -108 218 -108 q 280 -141 253 -108 q 347 -174 308 -174 q 409 -148 383 -174 q 434 -87 434 -123 q 409 -25 434 -51 q 347 0 383 0 q 317 13 330 0 q 304 43 304 26 l 304 781 l 87 781 q 43 825 43 781 q 87 868 43 868 l 608 868 q 651 825 651 868 z "},"ţ":{"ha":694,"x_min":43,"x_max":652,"o":"m 652 131 q 616 75 652 108 q 560 32 589 49 q 608 -87 608 -18 q 557 -209 608 -159 q 434 -260 506 -260 q 346 -236 389 -260 q 284 -173 304 -212 q 277 -150 277 -161 q 291 -120 277 -133 q 322 -108 305 -108 q 367 -141 340 -108 q 434 -174 395 -174 q 495 -148 470 -174 q 521 -87 521 -123 q 495 -25 521 -51 q 434 0 470 0 q 250 76 326 0 q 174 260 174 153 l 174 521 l 87 521 q 43 564 43 521 q 87 608 43 608 l 174 608 l 174 825 q 217 868 174 868 q 260 825 260 868 l 260 608 l 477 608 q 521 564 521 608 q 477 521 521 521 l 260 521 l 260 260 q 311 138 260 189 q 434 87 362 87 q 547 130 498 87 q 606 174 595 174 q 638 161 624 174 q 652 131 652 148 z "},"Ť":{"ha":694,"x_min":43,"x_max":651,"o":"m 521 1084 q 502 1049 521 1063 l 375 965 q 347 954 359 954 q 319 965 335 954 l 193 1049 q 173 1084 173 1063 q 186 1115 173 1101 q 216 1129 199 1129 q 241 1121 229 1129 l 347 1050 l 453 1121 q 478 1129 465 1129 q 508 1115 495 1129 q 521 1084 521 1101 m 651 825 q 608 781 651 781 l 391 781 l 391 43 q 347 0 391 0 q 304 43 304 0 l 304 781 l 87 781 q 43 825 43 781 q 87 868 43 868 l 608 868 q 651 825 651 868 z "},"ť":{"ha":694,"x_min":43,"x_max":652,"o":"m 391 1084 q 372 1049 391 1063 l 245 965 q 217 954 229 954 q 189 965 205 954 l 63 1049 q 43 1084 43 1063 q 56 1115 43 1101 q 86 1129 69 1129 q 111 1121 99 1129 l 217 1050 l 323 1121 q 348 1129 335 1129 q 378 1115 365 1129 q 391 1084 391 1101 m 652 131 q 642 104 652 119 q 551 28 612 57 q 434 0 493 0 q 250 76 326 0 q 174 260 174 153 l 174 521 l 87 521 q 43 564 43 521 q 87 608 43 608 l 174 608 l 174 825 q 217 868 174 868 q 260 825 260 868 l 260 608 l 477 608 q 521 564 521 608 q 477 521 521 521 l 260 521 l 260 260 q 311 138 260 189 q 434 87 362 87 q 519 109 483 87 q 569 152 536 120 q 606 174 592 174 q 638 161 624 174 q 652 131 652 148 z "},"Ŧ":{"ha":694,"x_min":43,"x_max":651,"o":"m 651 825 q 608 781 651 781 l 391 781 l 391 477 l 477 477 q 521 434 521 477 q 477 391 521 391 l 391 391 l 391 43 q 347 0 391 0 q 304 43 304 0 l 304 391 l 217 391 q 174 434 174 391 q 217 477 174 477 l 304 477 l 304 781 l 87 781 q 43 825 43 781 q 87 868 43 868 l 608 868 q 651 825 651 868 z "},"ŧ":{"ha":694,"x_min":43,"x_max":652,"o":"m 652 131 q 642 104 652 118 q 552 28 609 56 q 434 0 494 0 q 250 76 326 0 q 174 260 174 153 l 87 260 q 43 304 43 260 q 87 347 43 347 l 174 347 l 174 521 l 87 521 q 43 564 43 521 q 87 608 43 608 l 174 608 l 174 825 q 217 868 174 868 q 260 825 260 868 l 260 608 l 477 608 q 521 564 521 608 q 477 521 521 521 l 260 521 l 260 347 l 477 347 q 521 304 521 347 q 477 260 521 260 l 260 260 q 311 138 260 189 q 434 87 362 87 q 573 156 510 87 q 606 174 589 174 q 638 161 624 174 q 652 131 652 148 z "},"Ũ":{"ha":694,"x_min":72,"x_max":622,"o":"m 565 1043 q 554 1012 565 1030 q 434 955 521 955 q 332 998 385 955 q 260 1042 279 1042 q 215 1028 231 1042 q 175 998 205 998 q 130 1040 130 998 q 140 1071 130 1054 q 260 1128 174 1128 q 363 1085 310 1128 q 434 1042 416 1042 q 484 1063 469 1042 q 520 1085 499 1085 q 565 1043 565 1085 m 622 275 q 542 80 622 161 q 347 0 461 0 q 153 80 233 0 q 72 275 72 161 l 72 825 q 116 868 72 868 q 159 825 159 868 l 159 275 q 214 142 159 197 q 347 87 270 87 q 480 142 425 87 q 535 275 535 197 l 535 825 q 579 868 535 868 q 622 825 622 868 l 622 275 z "},"ũ":{"ha":694,"x_min":72,"x_max":622,"o":"m 565 783 q 554 752 565 769 q 434 694 521 694 q 332 738 385 694 q 260 781 279 781 q 215 767 231 781 q 175 738 205 738 q 130 780 130 738 q 140 811 130 793 q 260 868 174 868 q 363 825 310 868 q 434 781 416 781 q 484 803 469 781 q 520 825 499 825 q 565 783 565 825 m 622 275 q 542 80 622 161 q 347 0 461 0 q 153 80 233 0 q 72 275 72 161 l 72 564 q 116 608 72 608 q 159 564 159 608 l 159 275 q 214 142 159 197 q 347 87 270 87 q 480 142 425 87 q 535 275 535 197 l 535 564 q 579 608 535 608 q 622 564 622 608 l 622 275 z "},"Ū":{"ha":694,"x_min":72,"x_max":622,"o":"m 622 1042 q 579 998 622 998 l 116 998 q 72 1042 72 998 q 116 1085 72 1085 l 579 1085 q 622 1042 622 1085 m 622 275 q 542 80 622 161 q 347 0 461 0 q 153 80 233 0 q 72 275 72 161 l 72 825 q 116 868 72 868 q 159 825 159 868 l 159 275 q 214 142 159 197 q 347 87 270 87 q 480 142 425 87 q 535 275 535 197 l 535 825 q 579 868 535 868 q 622 825 622 868 l 622 275 z "},"ū":{"ha":694,"x_min":72,"x_max":622,"o":"m 564 781 q 521 738 564 738 l 174 738 q 130 781 130 738 q 174 825 130 825 l 521 825 q 564 781 564 825 m 622 275 q 542 80 622 161 q 347 0 461 0 q 153 80 233 0 q 72 275 72 161 l 72 564 q 116 608 72 608 q 159 564 159 608 l 159 275 q 214 142 159 197 q 347 87 270 87 q 480 142 425 87 q 535 275 535 197 l 535 564 q 579 608 535 608 q 622 564 622 608 l 622 275 z "},"Ŭ":{"ha":694,"x_min":72,"x_max":622,"o":"m 523 1085 q 498 1042 523 1069 q 347 955 418 955 q 256 989 306 955 q 183 1058 211 1020 q 173 1085 173 1072 q 187 1116 173 1103 q 218 1129 200 1129 q 277 1085 235 1129 q 347 1042 319 1042 q 417 1085 375 1042 q 476 1129 459 1129 q 508 1116 494 1129 q 523 1085 523 1103 m 622 275 q 542 80 622 161 q 347 0 461 0 q 153 80 233 0 q 72 275 72 161 l 72 825 q 116 868 72 868 q 159 825 159 868 l 159 275 q 214 142 159 197 q 347 87 270 87 q 480 142 425 87 q 535 275 535 197 l 535 825 q 579 868 535 868 q 622 825 622 868 l 622 275 z "},"ŭ":{"ha":694,"x_min":72,"x_max":622,"o":"m 523 825 q 498 782 523 809 q 347 694 418 694 q 256 729 306 694 q 183 797 211 759 q 173 825 173 812 q 187 856 173 843 q 218 869 200 869 q 277 825 235 869 q 347 781 319 781 q 417 825 375 781 q 476 869 459 869 q 508 856 494 869 q 523 825 523 843 m 622 275 q 542 80 622 161 q 347 0 461 0 q 153 80 233 0 q 72 275 72 161 l 72 564 q 116 608 72 608 q 159 564 159 608 l 159 275 q 214 142 159 197 q 347 87 270 87 q 480 142 425 87 q 535 275 535 197 l 535 564 q 579 608 535 608 q 622 564 622 608 l 622 275 z "},"Ů":{"ha":694,"x_min":72,"x_max":622,"o":"m 473 1002 q 436 914 473 950 q 347 878 399 878 q 258 914 295 878 q 221 1002 221 950 q 258 1090 221 1053 q 347 1127 295 1127 q 436 1090 399 1127 q 473 1002 473 1053 m 622 275 q 542 80 622 161 q 347 0 461 0 q 153 80 233 0 q 72 275 72 161 l 72 825 q 116 868 72 868 q 159 825 159 868 l 159 275 q 214 142 159 197 q 347 87 270 87 q 480 142 425 87 q 535 275 535 197 l 535 825 q 579 868 535 868 q 622 825 622 868 l 622 275 m 386 1002 q 347 1041 386 1041 q 308 1002 308 1041 q 347 965 308 965 q 386 1002 386 965 z "},"ů":{"ha":694,"x_min":72,"x_max":622,"o":"m 473 759 q 436 671 473 707 q 347 635 399 635 q 258 671 295 635 q 221 759 221 707 q 258 847 221 810 q 347 884 295 884 q 436 847 399 884 q 473 759 473 810 m 622 275 q 542 80 622 161 q 347 0 461 0 q 153 80 233 0 q 72 275 72 161 l 72 564 q 116 608 72 608 q 159 564 159 608 l 159 275 q 214 142 159 197 q 347 87 270 87 q 480 142 425 87 q 535 275 535 197 l 535 564 q 579 608 535 608 q 622 564 622 608 l 622 275 m 386 759 q 347 797 386 797 q 308 759 308 797 q 347 722 308 722 q 386 759 386 722 z "},"Ű":{"ha":694,"x_min":72,"x_max":622,"o":"m 608 1084 q 584 1046 608 1058 l 410 959 q 389 954 400 954 q 359 968 372 954 q 347 999 347 982 q 371 1037 347 1025 l 545 1124 q 565 1129 555 1129 q 596 1115 583 1129 q 608 1084 608 1101 m 348 1084 q 323 1046 348 1058 l 150 959 q 129 954 139 954 q 99 968 111 954 q 86 999 86 982 q 111 1037 86 1025 l 284 1124 q 305 1129 295 1129 q 335 1115 323 1129 q 348 1084 348 1101 m 622 275 q 542 80 622 161 q 347 0 461 0 q 153 80 233 0 q 72 275 72 161 l 72 825 q 116 868 72 868 q 159 825 159 868 l 159 275 q 214 142 159 197 q 347 87 270 87 q 480 142 425 87 q 535 275 535 197 l 535 825 q 579 868 535 868 q 622 825 622 868 l 622 275 z "},"ű":{"ha":694,"x_min":72,"x_max":622,"o":"m 608 823 q 584 786 608 798 l 410 699 q 389 694 400 694 q 359 708 372 694 q 347 739 347 722 q 371 777 347 764 l 545 863 q 565 869 555 869 q 596 855 583 869 q 608 823 608 841 m 348 823 q 323 786 348 798 l 150 699 q 129 694 139 694 q 99 708 111 694 q 86 739 86 722 q 111 777 86 764 l 284 863 q 305 869 295 869 q 335 855 323 869 q 348 823 348 841 m 622 275 q 542 80 622 161 q 347 0 461 0 q 153 80 233 0 q 72 275 72 161 l 72 564 q 116 608 72 608 q 159 564 159 608 l 159 275 q 214 142 159 197 q 347 87 270 87 q 480 142 425 87 q 535 275 535 197 l 535 564 q 579 608 535 608 q 622 564 622 608 l 622 275 z "},"Ų":{"ha":694,"x_min":72,"x_max":622,"o":"m 622 275 q 542 80 622 161 q 347 0 461 0 q 286 -25 311 0 q 260 -87 260 -51 q 286 -148 260 -123 q 347 -174 311 -174 q 414 -141 386 -174 q 459 -108 442 -108 q 490 -120 476 -108 q 504 -150 504 -133 q 498 -173 504 -161 q 347 -260 451 -260 q 225 -209 275 -260 q 174 -87 174 -159 q 220 31 174 -19 q 112 133 152 67 q 72 275 72 198 l 72 825 q 116 868 72 868 q 159 825 159 868 l 159 275 q 214 142 159 197 q 347 87 270 87 q 480 142 425 87 q 535 275 535 197 l 535 825 q 579 868 535 868 q 622 825 622 868 l 622 275 z "},"ų":{"ha":694,"x_min":72,"x_max":622,"o":"m 622 275 q 542 80 622 161 q 347 0 461 0 q 286 -25 311 0 q 260 -87 260 -51 q 286 -148 260 -123 q 347 -174 311 -174 q 414 -141 386 -174 q 459 -108 442 -108 q 490 -120 476 -108 q 504 -150 504 -133 q 498 -173 504 -161 q 347 -260 451 -260 q 225 -209 275 -260 q 174 -87 174 -159 q 220 31 174 -19 q 112 133 152 67 q 72 275 72 198 l 72 564 q 116 608 72 608 q 159 564 159 608 l 159 275 q 214 142 159 197 q 347 87 270 87 q 480 142 425 87 q 535 275 535 197 l 535 564 q 579 608 535 608 q 622 564 622 608 l 622 275 z "},"Ŵ":{"ha":694,"x_min":43,"x_max":651,"o":"m 521 999 q 508 968 521 982 q 478 954 495 954 q 453 962 465 954 l 347 1033 l 241 962 q 216 954 229 954 q 186 968 199 954 q 173 999 173 982 q 193 1034 173 1021 l 319 1119 q 347 1129 335 1129 q 375 1119 359 1129 l 502 1034 q 521 999 521 1021 m 651 826 q 650 818 651 822 l 521 42 q 477 0 514 0 q 434 38 444 0 l 347 385 l 260 38 q 218 0 251 0 q 174 42 180 0 l 44 818 q 43 826 43 822 q 87 868 43 868 q 130 832 124 868 l 226 256 l 304 569 q 347 608 313 608 q 391 569 381 608 l 469 256 l 565 832 q 607 868 571 868 q 651 826 651 868 z "},"ŵ":{"ha":694,"x_min":43,"x_max":652,"o":"m 521 739 q 508 708 521 722 q 478 694 495 694 q 453 702 465 694 l 347 773 l 241 702 q 216 694 229 694 q 186 708 199 694 q 173 739 173 722 q 193 774 173 760 l 319 858 q 347 869 335 869 q 375 858 359 869 l 502 774 q 521 739 521 760 m 652 566 q 649 552 652 559 l 495 38 q 451 0 484 0 q 408 38 419 0 l 347 239 l 286 38 q 243 0 275 0 q 200 38 211 0 l 45 552 q 43 566 43 559 q 88 608 43 608 q 128 577 119 608 l 243 194 l 302 390 q 251 566 251 559 q 296 608 251 608 q 337 577 328 608 l 451 194 l 566 577 q 606 608 575 608 q 652 566 652 608 z "},"Ŷ":{"ha":694,"x_min":43,"x_max":652,"o":"m 521 999 q 508 968 521 982 q 478 954 495 954 q 453 962 465 954 l 347 1033 l 241 962 q 216 954 229 954 q 186 968 199 954 q 173 999 173 982 q 193 1034 173 1021 l 319 1119 q 347 1129 335 1129 q 375 1119 359 1129 l 502 1034 q 521 999 521 1021 m 652 825 q 644 800 652 813 l 391 421 l 391 43 q 347 0 391 0 q 304 43 304 0 l 304 421 l 51 800 q 43 825 43 813 q 57 856 43 843 q 88 869 71 869 q 123 849 109 869 l 347 512 l 572 849 q 606 869 585 869 q 638 856 624 869 q 652 825 652 843 z "},"ŷ":{"ha":694,"x_min":72,"x_max":593,"o":"m 507 739 q 494 708 507 722 q 464 694 481 694 q 439 702 451 694 l 333 773 l 227 702 q 202 694 215 694 q 172 708 185 694 q 159 739 159 722 q 178 774 159 760 l 305 858 q 333 869 321 869 q 361 858 345 869 l 487 774 q 507 739 507 760 m 593 564 l 593 0 q 517 -184 593 -108 q 333 -260 440 -260 q 203 -226 264 -260 q 108 -131 139 -190 q 101 -108 101 -119 q 115 -78 101 -91 q 146 -65 129 -65 q 183 -87 166 -65 q 333 -174 248 -174 q 455 -123 405 -174 q 506 0 506 -72 l 506 67 q 333 0 432 0 q 149 76 225 0 q 72 260 72 153 l 72 564 q 116 608 72 608 q 159 564 159 608 l 159 260 q 210 138 159 189 q 333 87 261 87 q 455 138 405 87 q 506 260 506 189 l 506 564 q 550 608 506 608 q 593 564 593 608 z "},"Ÿ":{"ha":694,"x_min":43,"x_max":652,"o":"m 543 1020 q 523 974 543 993 q 477 955 504 955 q 431 974 450 955 q 413 1020 413 993 q 431 1066 413 1047 q 477 1085 450 1085 q 523 1066 504 1085 q 543 1020 543 1047 m 282 1020 q 263 974 282 993 q 217 955 244 955 q 171 974 190 955 q 152 1020 152 993 q 171 1066 152 1047 q 217 1085 190 1085 q 263 1066 244 1085 q 282 1020 282 1047 m 652 825 q 644 800 652 813 l 391 421 l 391 43 q 347 0 391 0 q 304 43 304 0 l 304 421 l 51 800 q 43 825 43 813 q 57 856 43 843 q 88 869 71 869 q 123 849 109 869 l 347 512 l 572 849 q 606 869 585 869 q 638 856 624 869 q 652 825 652 843 z "},"Ź":{"ha":694,"x_min":43,"x_max":652,"o":"m 478 1084 q 454 1046 478 1058 l 280 959 q 259 954 270 954 q 229 968 241 954 q 216 999 216 982 q 241 1037 216 1025 l 414 1124 q 435 1129 425 1129 q 466 1115 453 1129 q 478 1084 478 1101 m 652 825 q 639 794 652 813 l 168 87 l 608 87 q 651 43 651 87 q 608 0 651 0 l 89 -1 q 43 43 43 -1 q 55 74 43 56 l 527 781 l 87 781 q 43 825 43 781 q 87 868 43 868 l 606 869 q 652 825 652 869 z "},"ź":{"ha":694,"x_min":43,"x_max":652,"o":"m 478 823 q 454 786 478 798 l 280 699 q 259 694 270 694 q 229 708 241 694 q 216 739 216 722 q 241 777 216 764 l 414 863 q 435 869 425 869 q 466 855 453 869 q 478 823 478 841 m 652 564 q 633 528 652 547 l 192 87 l 608 87 q 651 43 651 87 q 608 0 651 0 l 88 -1 q 43 44 43 -1 q 62 80 43 61 l 503 521 l 87 521 q 43 564 43 521 q 87 608 43 608 l 606 608 q 652 564 652 608 z "},"Ż":{"ha":694,"x_min":43,"x_max":652,"o":"m 413 1020 q 394 974 413 993 q 347 955 374 955 q 301 974 320 955 q 282 1020 282 993 q 301 1066 282 1047 q 347 1085 320 1085 q 394 1066 374 1085 q 413 1020 413 1047 m 652 825 q 639 794 652 813 l 168 87 l 608 87 q 651 43 651 87 q 608 0 651 0 l 89 -1 q 43 43 43 -1 q 55 74 43 56 l 527 781 l 87 781 q 43 825 43 781 q 87 868 43 868 l 606 869 q 652 825 652 869 z "},"ż":{"ha":694,"x_min":43,"x_max":652,"o":"m 413 760 q 394 714 413 733 q 347 694 374 694 q 301 714 320 694 q 282 760 282 733 q 301 806 282 787 q 347 825 320 825 q 394 806 374 825 q 413 760 413 787 m 652 564 q 633 528 652 547 l 192 87 l 608 87 q 651 43 651 87 q 608 0 651 0 l 88 -1 q 43 44 43 -1 q 62 80 43 61 l 503 521 l 87 521 q 43 564 43 521 q 87 608 43 608 l 606 608 q 652 564 652 608 z "},"Ž":{"ha":694,"x_min":43,"x_max":652,"o":"m 521 1084 q 502 1049 521 1064 q 347 957 377 957 q 193 1049 317 957 q 173 1084 173 1064 q 186 1115 173 1101 q 216 1129 199 1129 q 241 1121 229 1129 l 347 1050 l 453 1121 q 478 1129 465 1129 q 508 1115 495 1129 q 521 1084 521 1101 m 652 825 q 639 794 652 813 l 168 87 l 608 87 q 651 43 651 87 q 608 0 651 0 l 89 -1 q 43 43 43 -1 q 55 74 43 56 l 527 781 l 87 781 q 43 825 43 781 q 87 868 43 868 l 606 869 q 652 825 652 869 z "},"ž":{"ha":694,"x_min":43,"x_max":652,"o":"m 521 823 q 502 789 521 803 q 347 696 377 696 q 193 789 317 696 q 173 823 173 803 q 186 855 173 841 q 216 869 199 869 q 241 861 229 869 l 347 790 l 453 861 q 478 869 465 869 q 508 855 495 869 q 521 823 521 841 m 652 564 q 633 528 652 547 l 192 87 l 608 87 q 651 43 651 87 q 608 0 651 0 l 88 -1 q 43 44 43 -1 q 62 80 43 61 l 503 521 l 87 521 q 43 564 43 521 q 87 608 43 608 l 606 608 q 652 564 652 608 z "},"ſ":{"ha":694,"x_min":174,"x_max":652,"o":"m 652 737 q 638 707 652 720 q 606 694 624 694 q 547 738 596 694 q 434 781 497 781 q 311 730 362 781 q 260 608 260 679 l 260 43 q 217 0 260 0 q 174 43 174 0 l 174 608 q 250 792 174 715 q 434 868 326 868 q 551 840 493 868 q 642 764 612 811 q 652 737 652 749 z "},"ƒ":{"ha":694,"x_min":87,"x_max":608,"o":"m 608 784 q 573 738 608 738 q 534 760 560 738 q 477 781 507 781 q 416 756 442 781 q 391 694 391 730 l 391 608 l 477 608 q 521 564 521 608 q 477 521 521 521 l 391 521 l 391 -87 q 340 -209 391 -159 q 217 -260 289 -260 q 133 -242 168 -260 q 87 -176 87 -220 q 122 -131 87 -131 q 161 -152 134 -131 q 217 -174 188 -174 q 278 -148 253 -174 q 304 -87 304 -123 l 304 521 l 217 521 q 174 564 174 521 q 217 608 174 608 l 304 608 l 304 694 q 355 817 304 766 q 477 868 406 868 q 562 850 527 868 q 608 784 608 828 z "},"Ǻ":{"ha":694,"x_min":43,"x_max":652,"o":"m 487 1084 q 461 1046 487 1058 l 287 968 q 267 964 277 964 q 238 978 250 964 q 225 1009 225 991 q 251 1047 225 1036 l 425 1126 q 444 1130 435 1130 q 474 1116 462 1130 q 487 1084 487 1102 m 652 42 q 638 12 652 24 q 606 -1 624 -1 q 567 28 578 -1 l 491 234 l 204 234 l 127 28 q 88 -1 117 -1 q 56 12 70 -1 q 43 42 43 24 q 301 746 43 52 q 222 854 222 775 q 260 938 222 903 q 347 971 297 971 q 435 938 398 971 q 473 854 473 903 q 394 746 473 775 q 652 42 652 51 m 387 854 q 347 884 387 884 q 308 854 308 884 q 347 825 308 825 q 387 854 387 825 m 458 321 l 347 622 l 236 321 l 458 321 z "},"ǻ":{"ha":694,"x_min":43,"x_max":622,"o":"m 478 1041 q 454 1003 478 1015 l 280 916 q 259 911 270 911 q 229 925 241 911 q 216 956 216 939 q 241 994 216 981 l 414 1080 q 435 1086 425 1086 q 466 1072 453 1086 q 478 1041 478 1058 m 473 759 q 436 671 473 707 q 347 635 399 635 q 258 671 295 635 q 222 759 222 707 q 258 847 222 810 q 347 884 295 884 q 436 847 399 884 q 473 759 473 810 m 622 43 q 579 0 622 0 q 535 61 534 0 q 333 0 450 0 q 141 54 226 0 q 43 217 43 116 q 141 380 43 318 q 333 434 226 434 q 535 373 450 434 l 535 391 q 517 442 535 416 q 333 521 464 521 q 184 478 258 521 q 158 469 169 469 q 128 483 141 469 q 115 514 115 497 q 205 586 115 557 q 333 608 276 608 q 524 554 439 608 q 622 391 622 491 l 622 43 m 387 759 q 347 797 387 797 q 308 759 308 797 q 347 722 308 722 q 387 759 387 722 m 535 217 q 496 293 535 258 q 418 335 463 322 q 333 347 378 347 q 146 265 198 347 q 130 217 130 241 q 146 169 130 193 q 333 87 198 87 q 418 99 378 87 q 496 141 463 112 q 535 217 535 176 z "},"Ǽ":{"ha":694,"x_min":43,"x_max":651,"o":"m 521 1041 q 497 1003 521 1015 l 323 916 q 303 911 313 911 q 272 925 285 911 q 260 956 260 939 q 284 994 260 981 l 458 1080 q 479 1086 468 1086 q 509 1072 497 1086 q 521 1041 521 1058 m 651 434 q 608 391 651 391 l 443 391 l 443 87 l 608 87 q 651 43 651 87 q 608 0 651 0 l 399 0 q 356 43 356 0 l 356 260 l 220 260 l 127 27 q 88 -1 116 -1 q 57 12 71 -1 q 43 42 43 24 q 46 60 43 50 l 357 836 q 370 858 363 851 l 368 856 q 398 869 381 869 l 608 868 q 651 825 651 868 q 608 781 651 781 l 443 781 l 443 477 l 608 477 q 651 434 651 477 m 374 861 q 370 858 373 861 l 374 861 m 368 856 m 356 347 l 356 600 l 255 347 l 356 347 z "},"ǽ":{"ha":694,"x_min":43,"x_max":652,"o":"m 530 823 q 506 786 530 798 l 332 699 q 311 694 322 694 q 282 708 294 694 q 269 739 269 722 q 293 777 269 764 l 467 863 q 488 869 477 869 q 518 855 505 869 q 530 823 530 841 m 652 439 q 639 405 652 420 q 542 296 606 369 q 418 161 502 249 q 487 87 446 87 q 566 186 525 87 q 606 217 579 217 q 652 175 652 217 q 649 161 652 168 q 592 53 630 97 q 487 0 546 0 q 356 87 406 0 q 217 0 306 0 q 88 71 138 0 q 43 217 43 135 q 88 363 43 299 q 217 434 138 434 q 303 406 264 434 q 279 480 300 447 q 217 521 253 521 q 167 495 191 521 q 126 469 143 469 q 94 482 108 469 q 80 513 80 495 q 90 539 80 525 q 217 608 135 608 q 356 520 306 608 q 487 608 407 608 q 595 549 539 608 q 652 439 652 491 m 558 444 q 487 521 527 521 q 451 502 470 521 q 391 304 391 441 q 393 267 391 288 l 558 444 m 304 217 q 283 300 304 262 q 217 347 258 347 q 151 300 177 347 q 130 217 130 262 q 151 134 130 172 q 217 87 177 87 q 283 134 258 87 q 304 217 304 172 z "},"Ǿ":{"ha":694,"x_min":43,"x_max":652,"o":"m 469 1084 q 445 1046 469 1058 l 271 959 q 251 954 261 954 q 220 968 233 954 q 208 999 208 982 q 232 1037 208 1025 l 406 1124 q 427 1129 416 1129 q 457 1115 444 1129 q 469 1084 469 1101 m 652 825 q 583 709 652 811 q 651 434 651 588 q 578 151 651 278 q 347 0 491 0 q 166 84 245 0 l 123 19 q 88 -1 109 -1 q 57 12 71 -1 q 43 43 43 25 q 112 159 43 57 q 43 434 43 280 q 116 717 43 590 q 347 868 203 868 q 528 784 450 868 l 572 849 q 606 869 585 869 q 638 856 624 869 q 652 825 652 843 m 478 709 q 347 781 418 781 q 222 716 279 781 q 152 586 176 662 q 130 434 130 516 q 167 242 130 328 l 478 709 m 564 434 q 528 626 564 541 l 216 159 q 347 87 276 87 q 472 153 416 87 q 542 282 519 206 q 564 434 564 352 z "},"ǿ":{"ha":694,"x_min":43,"x_max":652,"o":"m 478 823 q 454 786 478 798 l 280 699 q 259 694 270 694 q 229 708 241 694 q 216 739 216 722 q 241 777 216 764 l 414 863 q 435 869 425 869 q 466 855 453 869 q 478 823 478 841 m 652 564 q 590 486 652 545 q 651 304 651 405 q 562 89 651 178 q 347 0 473 0 q 166 61 246 0 q 87 -1 106 -1 q 56 13 69 -1 q 43 44 43 26 q 104 122 43 63 q 43 304 43 203 q 133 519 43 429 q 347 608 222 608 q 529 547 448 608 q 607 608 589 608 q 638 595 625 608 q 652 564 652 582 m 467 485 q 347 521 413 521 q 194 457 258 521 q 130 304 130 394 q 166 184 130 238 l 467 485 m 564 304 q 528 424 564 369 l 227 123 q 347 87 282 87 q 501 150 437 87 q 564 304 564 214 z "},"ˆ":{"ha":694,"x_min":173,"x_max":521,"o":"m 521 999 q 508 968 521 982 q 478 954 495 954 q 453 962 465 954 l 347 1033 l 241 962 q 216 954 229 954 q 186 968 199 954 q 173 999 173 982 q 193 1034 173 1020 q 347 1127 317 1127 q 502 1034 377 1127 q 521 999 521 1020 z "},"ˇ":{"ha":694,"x_min":173,"x_max":521,"o":"m 521 1084 q 502 1049 521 1064 q 347 957 377 957 q 193 1049 317 957 q 173 1084 173 1064 q 186 1115 173 1101 q 216 1129 199 1129 q 241 1121 229 1129 l 347 1050 l 453 1121 q 478 1129 465 1129 q 508 1115 495 1129 q 521 1084 521 1101 z "},"¯":{"ha":694,"x_min":43,"x_max":651,"o":"m 651 1042 q 608 998 651 998 l 87 998 q 43 1042 43 998 q 87 1085 43 1085 l 608 1085 q 651 1042 651 1085 z "},"˘":{"ha":694,"x_min":173,"x_max":523,"o":"m 523 1085 q 498 1042 523 1069 q 347 955 418 955 q 256 989 306 955 q 183 1058 211 1020 q 173 1085 173 1072 q 187 1116 173 1103 q 218 1129 200 1129 q 277 1085 235 1129 q 347 1042 319 1042 q 417 1085 375 1042 q 476 1129 459 1129 q 508 1116 494 1129 q 523 1085 523 1103 z "},"˙":{"ha":694,"x_min":282,"x_max":413,"o":"m 413 1020 q 393 974 413 993 q 347 955 374 955 q 301 974 320 955 q 282 1020 282 993 q 301 1066 282 1047 q 347 1085 320 1085 q 394 1066 374 1085 q 413 1020 413 1047 z "},"˚":{"ha":694,"x_min":222,"x_max":473,"o":"m 473 1002 q 436 914 473 950 q 347 878 399 878 q 258 914 295 878 q 222 1002 222 950 q 258 1090 222 1053 q 347 1127 295 1127 q 436 1090 399 1127 q 473 1002 473 1053 m 387 1002 q 347 1041 387 1041 q 308 1002 308 1041 q 347 965 308 965 q 387 1002 387 965 z "},"˛":{"ha":694,"x_min":182,"x_max":513,"o":"m 513 -150 q 506 -173 513 -161 q 444 -236 486 -212 q 356 -260 401 -260 q 233 -209 284 -260 q 182 -87 182 -159 q 233 36 182 -15 q 356 87 284 87 q 399 43 399 87 q 356 0 399 0 q 295 -25 320 0 q 269 -87 269 -51 q 295 -148 269 -123 q 356 -174 320 -174 q 422 -141 395 -174 q 468 -108 450 -108 q 499 -120 485 -108 q 513 -150 513 -133 z "},"˜":{"ha":694,"x_min":130,"x_max":565,"o":"m 565 1043 q 554 1012 565 1030 q 434 955 521 955 q 332 998 385 955 q 260 1042 279 1042 q 215 1028 231 1042 q 175 998 205 998 q 130 1040 130 998 q 140 1071 130 1054 q 260 1128 174 1128 q 363 1085 310 1128 q 434 1042 416 1042 q 484 1063 469 1042 q 520 1085 499 1085 q 565 1043 565 1085 z "},"˝":{"ha":694,"x_min":86,"x_max":608,"o":"m 608 1084 q 584 1046 608 1058 l 410 959 q 389 954 400 954 q 359 968 372 954 q 347 999 347 982 q 371 1037 347 1025 l 545 1124 q 565 1129 555 1129 q 596 1115 583 1129 q 608 1084 608 1101 m 348 1084 q 323 1046 348 1058 l 150 959 q 129 954 139 954 q 99 968 111 954 q 86 999 86 982 q 111 1037 86 1025 l 284 1124 q 305 1129 295 1129 q 335 1115 323 1129 q 348 1084 348 1101 z "},"΄":{"ha":694,"x_min":304,"x_max":391,"o":"m 391 969 q 347 926 391 926 q 304 969 304 926 l 304 1085 q 347 1128 304 1128 q 391 1085 391 1128 l 391 969 z "},"΅":{"ha":694,"x_min":109,"x_max":586,"o":"m 586 1020 q 567 974 586 993 q 521 955 547 955 q 475 974 494 955 q 456 1020 456 993 q 475 1066 456 1047 q 521 1085 494 1085 q 567 1066 547 1085 q 586 1020 586 1047 m 391 969 q 347 926 391 926 q 304 969 304 926 l 304 1085 q 347 1128 304 1128 q 391 1085 391 1128 l 391 969 m 239 1020 q 220 974 239 993 q 174 955 200 955 q 128 974 146 955 q 109 1020 109 993 q 128 1066 109 1047 q 174 1085 146 1085 q 220 1066 200 1085 q 239 1020 239 1047 z "},"Ά":{"ha":694,"x_min":43,"x_max":652,"o":"m 391 969 q 347 926 391 926 q 304 969 304 926 l 304 1085 q 347 1128 304 1128 q 391 1085 391 1128 l 391 969 m 652 42 q 606 0 652 0 q 567 30 576 0 l 490 260 l 205 260 l 128 30 q 88 0 118 0 q 43 42 43 0 q 46 57 43 49 l 304 832 q 347 868 316 868 q 391 832 378 868 l 649 57 q 652 42 652 49 m 461 347 l 347 688 l 234 347 l 461 347 z "},"·":{"ha":694,"x_min":281,"x_max":413,"o":"m 413 369 q 394 323 413 342 q 347 303 374 303 q 301 323 320 303 q 281 369 281 342 q 301 415 281 396 q 347 433 320 433 q 394 415 374 433 q 413 369 413 396 z "},"Έ":{"ha":694,"x_min":101,"x_max":651,"o":"m 434 969 q 391 926 434 926 q 347 969 347 926 l 347 1085 q 391 1128 347 1128 q 434 1085 434 1128 l 434 969 m 651 43 q 608 0 651 0 l 145 0 q 114 13 127 0 q 101 43 101 26 l 101 825 q 114 855 101 842 q 145 868 127 868 l 608 868 q 651 825 651 868 q 608 781 651 781 l 188 781 l 188 477 l 608 477 q 651 434 651 477 q 608 391 651 391 l 188 391 l 188 87 l 608 87 q 651 43 651 87 z "},"Ή":{"ha":694,"x_min":101,"x_max":593,"o":"m 391 969 q 347 926 391 926 q 304 969 304 926 l 304 1085 q 347 1128 304 1128 q 391 1085 391 1128 l 391 969 m 593 43 q 550 0 593 0 q 506 43 506 0 l 506 391 l 188 391 l 188 43 q 145 0 188 0 q 101 43 101 0 l 101 825 q 145 868 101 868 q 188 825 188 868 l 188 477 l 506 477 l 506 825 q 550 868 506 868 q 593 825 593 868 l 593 43 z "},"Ί":{"ha":694,"x_min":130,"x_max":564,"o":"m 391 969 q 347 926 391 926 q 304 969 304 926 l 304 1085 q 347 1128 304 1128 q 391 1085 391 1128 l 391 969 m 564 43 q 521 0 564 0 l 174 0 q 130 43 130 0 q 174 87 130 87 l 304 87 l 304 781 l 174 781 q 130 825 130 781 q 174 868 130 868 l 521 868 q 564 825 564 868 q 521 781 564 781 l 391 781 l 391 87 l 521 87 q 564 43 564 87 z "},"Ό":{"ha":694,"x_min":43,"x_max":651,"o":"m 391 969 q 347 926 391 926 q 304 969 304 926 l 304 1085 q 347 1128 304 1128 q 391 1085 391 1128 l 391 969 m 651 434 q 578 151 651 278 q 347 0 491 0 q 116 151 203 0 q 43 434 43 278 q 116 717 43 590 q 347 868 203 868 q 578 717 491 868 q 651 434 651 590 m 564 434 q 545 576 564 510 q 476 712 523 655 q 347 781 418 781 q 219 712 277 781 q 149 576 172 655 q 130 434 130 510 q 149 292 130 358 q 219 156 172 213 q 347 87 277 87 q 476 156 418 87 q 545 292 523 213 q 564 434 564 358 z "},"Ύ":{"ha":694,"x_min":43,"x_max":652,"o":"m 391 969 q 347 926 391 926 q 304 969 304 926 l 304 1085 q 347 1128 304 1128 q 391 1085 391 1128 l 391 969 m 652 825 q 644 800 652 813 l 391 421 l 391 43 q 347 0 391 0 q 304 43 304 0 l 304 421 l 51 800 q 43 825 43 813 q 57 856 43 843 q 88 869 71 869 q 123 849 109 869 l 347 512 l 572 849 q 606 869 585 869 q 638 856 624 869 q 652 825 652 843 z "},"Ώ":{"ha":694,"x_min":43,"x_max":651,"o":"m 391 969 q 347 926 391 926 q 304 969 304 926 l 304 1085 q 347 1128 304 1128 q 391 1085 391 1128 l 391 969 m 651 43 q 608 0 651 0 l 436 -1 q 390 43 390 -1 q 403 75 390 57 q 520 237 461 156 q 564 434 564 314 q 544 580 564 512 q 475 714 521 658 q 347 781 417 781 q 220 714 278 781 q 150 580 174 658 q 130 434 130 512 q 175 237 130 314 q 292 75 233 156 q 304 43 304 57 q 259 -1 304 -1 l 87 0 q 43 43 43 0 q 87 87 43 87 l 176 87 q 72 245 93 196 q 43 434 43 313 q 116 717 43 590 q 347 868 203 868 q 578 717 491 868 q 651 434 651 590 q 623 245 651 313 q 519 87 602 196 l 608 87 q 651 43 651 87 z "},"ΐ":{"ha":694,"x_min":109,"x_max":586,"o":"m 586 1020 q 567 974 586 993 q 520 955 547 955 q 475 974 494 955 q 456 1020 456 993 q 475 1066 456 1047 q 520 1085 494 1085 q 567 1066 547 1085 q 586 1020 586 1047 m 390 969 q 347 926 390 926 q 303 969 303 926 l 303 1085 q 347 1128 303 1128 q 390 1085 390 1128 l 390 969 m 239 1020 q 220 974 239 993 q 173 955 200 955 q 128 974 146 955 q 109 1020 109 993 q 128 1066 109 1047 q 173 1085 146 1085 q 220 1066 200 1085 q 239 1020 239 1047 m 564 43 q 521 0 564 0 l 174 0 q 130 43 130 0 q 174 87 130 87 l 304 87 l 304 781 l 174 781 q 130 825 130 781 q 174 868 130 868 l 521 868 q 564 825 564 868 q 521 781 564 781 l 391 781 l 391 87 l 521 87 q 564 43 564 87 z "},"Α":{"ha":694,"x_min":43,"x_max":652,"o":"m 652 42 q 606 0 652 0 q 567 30 576 0 l 490 260 l 205 260 l 128 30 q 88 0 118 0 q 43 42 43 0 q 46 57 43 49 l 304 832 q 347 868 316 868 q 391 832 378 868 l 649 57 q 652 42 652 49 m 461 347 l 347 688 l 234 347 l 461 347 z "},"Β":{"ha":694,"x_min":101,"x_max":651,"o":"m 651 260 q 575 76 651 152 q 390 -1 498 -1 l 145 0 q 114 13 127 0 q 101 43 101 26 l 101 825 q 114 855 101 842 q 145 868 127 868 l 391 868 q 544 804 480 868 q 608 651 608 741 q 527 482 608 547 q 651 260 651 406 m 521 651 q 483 743 521 705 q 391 781 444 781 l 188 781 l 188 521 l 391 521 q 483 559 444 521 q 521 651 521 597 m 564 260 q 513 383 564 332 q 391 434 462 434 l 188 434 l 188 87 l 391 86 q 513 137 462 86 q 564 260 564 188 z "},"Γ":{"ha":694,"x_min":101,"x_max":651,"o":"m 651 825 q 608 781 651 781 l 188 781 l 188 43 q 145 0 188 0 q 101 43 101 0 l 101 825 q 144 868 101 868 l 608 868 q 651 825 651 868 z "},"Δ":{"ha":694,"x_min":43,"x_max":652,"o":"m 652 42 q 607 0 652 0 l 87 0 q 43 42 43 0 q 47 63 43 50 l 304 832 q 347 868 316 868 q 391 832 378 868 l 647 63 q 652 42 652 50 m 547 87 l 347 688 l 147 87 l 547 87 z "},"Ε":{"ha":694,"x_min":101,"x_max":651,"o":"m 651 43 q 608 0 651 0 l 145 0 q 114 13 127 0 q 101 43 101 26 l 101 825 q 114 855 101 842 q 145 868 127 868 l 608 868 q 651 825 651 868 q 608 781 651 781 l 188 781 l 188 477 l 608 477 q 651 434 651 477 q 608 391 651 391 l 188 391 l 188 87 l 608 87 q 651 43 651 87 z "},"Ζ":{"ha":694,"x_min":43,"x_max":652,"o":"m 652 825 q 639 794 652 813 l 168 87 l 608 87 q 651 43 651 87 q 608 0 651 0 l 89 -1 q 43 43 43 -1 q 55 74 43 56 l 527 781 l 87 781 q 43 825 43 781 q 87 868 43 868 l 606 869 q 652 825 652 869 z "},"Η":{"ha":694,"x_min":101,"x_max":593,"o":"m 593 43 q 550 0 593 0 q 506 43 506 0 l 506 391 l 188 391 l 188 43 q 145 0 188 0 q 101 43 101 0 l 101 825 q 145 868 101 868 q 188 825 188 868 l 188 477 l 506 477 l 506 825 q 550 868 506 868 q 593 825 593 868 l 593 43 z "},"Θ":{"ha":694,"x_min":43,"x_max":651,"o":"m 651 434 q 578 151 651 278 q 347 0 491 0 q 116 151 203 0 q 43 434 43 278 q 116 717 43 590 q 347 868 203 868 q 578 717 491 868 q 651 434 651 590 m 564 434 q 545 576 564 510 q 476 712 523 655 q 347 781 418 781 q 219 712 277 781 q 149 576 172 655 q 130 434 130 510 q 149 292 130 358 q 219 156 172 213 q 347 87 277 87 q 476 156 418 87 q 545 292 523 213 q 564 434 564 358 m 535 434 q 492 391 535 391 l 203 391 q 159 434 159 391 q 203 477 159 477 l 492 477 q 535 434 535 477 z "},"Ι":{"ha":694,"x_min":130,"x_max":564,"o":"m 564 43 q 521 0 564 0 l 174 0 q 130 43 130 0 q 174 87 130 87 l 304 87 l 304 781 l 174 781 q 130 825 130 781 q 174 868 130 868 l 521 868 q 564 825 564 868 q 521 781 564 781 l 391 781 l 391 87 l 521 87 q 564 43 564 87 z "},"Κ":{"ha":694,"x_min":101,"x_max":652,"o":"m 652 43 q 638 13 652 26 q 607 -1 625 -1 q 576 13 590 -1 l 200 404 q 188 426 189 416 l 188 43 q 145 0 188 0 q 101 43 101 0 l 101 825 q 145 868 101 868 q 188 825 188 868 l 188 442 q 200 464 190 454 l 576 855 q 607 869 590 869 q 638 855 625 869 q 652 825 652 842 q 639 795 652 808 l 292 434 l 639 73 q 652 43 652 60 m 193 414 q 188 427 189 420 l 188 426 q 193 414 188 422 m 198 406 q 191 417 195 410 q 198 406 194 411 z "},"Λ":{"ha":694,"x_min":43,"x_max":652,"o":"m 652 42 q 606 0 652 0 q 567 30 576 0 l 347 688 l 128 30 q 88 0 118 0 q 43 42 43 0 q 46 57 43 49 l 304 832 q 347 868 316 868 q 391 832 378 868 l 649 57 q 652 42 652 49 z "},"Μ":{"ha":694,"x_min":43,"x_max":651,"o":"m 651 42 q 607 0 651 0 q 565 38 569 0 l 490 598 l 391 212 q 347 174 381 174 q 304 212 314 174 l 204 598 l 130 38 q 87 0 125 0 q 43 42 43 0 q 44 49 43 46 l 148 825 q 191 868 153 868 q 234 830 225 868 l 347 391 l 460 830 q 502 868 470 868 q 547 825 542 868 l 650 49 q 651 42 651 46 z "},"Ν":{"ha":694,"x_min":101,"x_max":594,"o":"m 594 43 q 549 -1 594 -1 q 509 29 524 -1 l 188 646 l 188 43 q 145 0 188 0 q 101 43 101 0 l 101 825 q 146 869 101 869 q 186 839 171 869 l 506 222 l 506 825 q 550 868 506 868 q 593 825 593 868 l 594 43 z "},"Ξ":{"ha":694,"x_min":43,"x_max":651,"o":"m 651 825 q 608 781 651 781 l 87 781 q 43 825 43 781 q 87 868 43 868 l 608 868 q 651 825 651 868 m 564 434 q 521 391 564 391 l 174 391 q 130 434 130 391 q 174 477 130 477 l 521 477 q 564 434 564 477 m 651 43 q 608 0 651 0 l 87 0 q 43 43 43 0 q 87 87 43 87 l 608 87 q 651 43 651 87 z "},"Ο":{"ha":694,"x_min":43,"x_max":651,"o":"m 651 434 q 578 151 651 278 q 347 0 491 0 q 116 151 203 0 q 43 434 43 278 q 116 717 43 590 q 347 868 203 868 q 578 717 491 868 q 651 434 651 590 m 564 434 q 545 576 564 510 q 476 712 523 655 q 347 781 418 781 q 219 712 277 781 q 149 576 172 655 q 130 434 130 510 q 149 292 130 358 q 219 156 172 213 q 347 87 277 87 q 476 156 418 87 q 545 292 523 213 q 564 434 564 358 z "},"Π":{"ha":694,"x_min":101,"x_max":593,"o":"m 593 43 q 550 0 593 0 q 506 43 506 0 l 506 781 l 188 781 l 188 43 q 145 0 188 0 q 101 43 101 0 l 101 825 q 114 855 101 842 q 145 868 127 868 l 550 868 q 580 855 567 868 q 593 825 593 842 l 593 43 z "},"Ρ":{"ha":694,"x_min":101,"x_max":651,"o":"m 651 608 q 575 424 651 500 q 391 347 498 347 l 188 347 l 188 43 q 145 0 188 0 q 101 43 101 0 l 101 825 q 114 855 101 842 q 145 868 127 868 l 391 868 q 575 792 498 868 q 651 608 651 715 m 564 608 q 513 730 564 679 q 391 781 462 781 l 188 781 l 188 434 l 391 434 q 513 485 462 434 q 564 608 564 536 z "},"Σ":{"ha":694,"x_min":43,"x_max":651,"o":"m 651 43 q 608 0 651 0 l 88 -1 q 43 44 43 -1 q 62 80 43 61 l 416 434 l 62 788 q 43 824 43 807 q 88 869 43 869 l 608 868 q 651 825 651 868 q 608 781 651 781 l 192 781 l 508 465 q 521 435 521 451 q 508 403 521 417 l 192 87 l 608 87 q 651 43 651 87 z "},"Τ":{"ha":694,"x_min":43,"x_max":651,"o":"m 651 825 q 608 781 651 781 l 391 781 l 391 43 q 347 0 391 0 q 304 43 304 0 l 304 781 l 87 781 q 43 825 43 781 q 87 868 43 868 l 608 868 q 651 825 651 868 z "},"Υ":{"ha":694,"x_min":43,"x_max":652,"o":"m 652 825 q 644 800 652 813 l 391 421 l 391 43 q 347 0 391 0 q 304 43 304 0 l 304 421 l 51 800 q 43 825 43 813 q 57 856 43 843 q 88 869 71 869 q 123 849 109 869 l 347 512 l 572 849 q 606 869 585 869 q 638 856 624 869 q 652 825 652 843 z "},"Φ":{"ha":694,"x_min":43,"x_max":651,"o":"m 651 434 q 577 235 651 321 q 391 133 502 149 l 391 43 q 347 0 391 0 q 304 43 304 0 l 304 133 q 118 235 192 149 q 43 434 43 321 q 118 633 43 547 q 304 735 192 719 l 304 825 q 347 868 304 868 q 391 825 391 868 l 391 735 q 577 633 502 719 q 651 434 651 547 m 564 434 q 515 571 564 511 q 391 646 466 631 l 391 222 q 515 297 466 237 q 564 434 564 357 m 304 222 l 304 646 q 179 571 229 631 q 130 434 130 511 q 179 297 130 357 q 304 222 229 237 z "},"Χ":{"ha":694,"x_min":43,"x_max":652,"o":"m 652 43 q 638 12 652 25 q 606 -1 624 -1 q 572 19 585 -1 l 347 356 l 123 19 q 88 -1 109 -1 q 57 12 71 -1 q 43 43 43 25 q 51 68 43 56 l 295 434 l 51 800 q 43 825 43 813 q 57 856 43 843 q 88 869 71 869 q 123 849 109 869 l 347 512 l 572 849 q 606 869 585 869 q 638 856 624 869 q 652 825 652 843 q 644 800 652 813 l 399 434 l 644 68 q 652 43 652 56 z "},"Ψ":{"ha":694,"x_min":43,"x_max":651,"o":"m 651 825 q 391 263 651 300 l 391 43 q 347 0 391 0 q 304 43 304 0 l 304 263 q 43 825 43 300 q 87 868 43 868 q 130 825 130 868 q 304 352 130 395 l 304 825 q 347 868 304 868 q 391 825 391 868 l 391 352 q 564 825 564 395 q 608 868 564 868 q 651 825 651 868 z "},"Ω":{"ha":694,"x_min":43,"x_max":651,"o":"m 651 43 q 608 0 651 0 l 436 -1 q 390 43 390 -1 q 403 75 390 57 q 520 237 461 156 q 564 434 564 314 q 544 580 564 512 q 475 714 521 658 q 347 781 417 781 q 220 714 278 781 q 150 580 174 658 q 130 434 130 512 q 175 237 130 314 q 292 75 233 156 q 304 43 304 57 q 259 -1 304 -1 l 87 0 q 43 43 43 0 q 87 87 43 87 l 176 87 q 72 245 93 196 q 43 434 43 313 q 116 717 43 590 q 347 868 203 868 q 578 717 491 868 q 651 434 651 590 q 623 245 651 313 q 519 87 602 196 l 608 87 q 651 43 651 87 z "},"Ϊ":{"ha":694,"x_min":130,"x_max":564,"o":"m 543 1020 q 523 974 543 993 q 477 955 504 955 q 431 974 450 955 q 413 1020 413 993 q 431 1066 413 1047 q 477 1085 450 1085 q 523 1066 504 1085 q 543 1020 543 1047 m 282 1020 q 263 974 282 993 q 217 955 244 955 q 171 974 190 955 q 152 1020 152 993 q 171 1066 152 1047 q 217 1085 190 1085 q 263 1066 244 1085 q 282 1020 282 1047 m 564 43 q 521 0 564 0 l 174 0 q 130 43 130 0 q 174 87 130 87 l 304 87 l 304 781 l 174 781 q 130 825 130 781 q 174 868 130 868 l 521 868 q 564 825 564 868 q 521 781 564 781 l 391 781 l 391 87 l 521 87 q 564 43 564 87 z "},"Ϋ":{"ha":694,"x_min":43,"x_max":652,"o":"m 543 1020 q 524 974 543 993 q 477 955 505 955 q 431 974 450 955 q 413 1020 413 993 q 431 1066 413 1047 q 477 1085 450 1085 q 524 1066 505 1085 q 543 1020 543 1047 m 282 1020 q 263 974 282 993 q 217 955 244 955 q 171 974 190 955 q 152 1020 152 993 q 171 1066 152 1047 q 217 1085 190 1085 q 263 1066 244 1085 q 282 1020 282 1047 m 652 825 q 644 800 652 813 l 391 421 l 391 43 q 347 0 391 0 q 304 43 304 0 l 304 421 l 51 800 q 43 825 43 813 q 57 856 43 843 q 88 869 71 869 q 123 849 109 869 l 347 512 l 572 849 q 606 869 585 869 q 638 856 624 869 q 652 825 652 843 z "},"ά":{"ha":694,"x_min":43,"x_max":651,"o":"m 339 738 q 295 694 339 694 q 252 738 252 694 l 252 854 q 295 897 252 897 q 339 854 339 897 l 339 738 m 651 43 q 608 0 651 0 q 564 43 564 0 q 541 199 564 120 q 295 0 420 0 q 110 98 183 0 q 43 304 43 188 q 110 509 43 420 q 295 608 183 608 q 541 409 420 608 q 564 564 564 487 q 608 608 564 608 q 651 564 651 608 q 595 304 651 438 q 651 43 651 170 m 501 304 q 414 435 468 371 q 295 521 344 521 q 172 447 220 521 q 130 304 130 383 q 172 160 130 225 q 295 87 220 87 q 414 172 344 87 q 501 304 468 237 z "},"έ":{"ha":694,"x_min":43,"x_max":652,"o":"m 372 738 q 329 694 372 694 q 285 738 285 694 l 285 854 q 329 897 285 897 q 372 854 372 897 l 372 738 m 652 174 q 643 148 652 162 q 504 38 598 79 q 329 0 419 0 q 148 38 230 0 q 43 174 43 87 q 137 304 43 255 q 43 434 43 353 q 148 569 43 521 q 329 608 230 608 q 504 570 419 608 q 643 459 598 529 q 652 433 652 446 q 638 403 652 416 q 606 390 624 390 q 572 409 589 390 q 538 447 561 422 q 329 521 456 521 q 144 461 194 521 q 130 434 130 446 q 144 407 130 422 q 329 347 194 347 q 372 304 372 347 q 329 260 372 260 q 144 200 194 260 q 130 174 130 185 q 144 147 130 162 q 329 87 194 87 q 538 161 456 87 q 572 199 541 163 q 606 218 589 218 q 638 205 624 218 q 652 174 652 192 z "},"ή":{"ha":694,"x_min":101,"x_max":622,"o":"m 391 738 q 347 694 391 694 q 304 738 304 694 l 304 854 q 347 897 304 897 q 391 854 391 897 l 391 738 m 622 -217 q 579 -260 622 -260 q 535 -217 535 -260 l 535 347 q 484 470 535 419 q 362 521 433 521 q 239 470 290 521 q 188 347 188 419 l 188 43 q 145 0 188 0 q 101 43 101 0 l 101 564 q 145 608 101 608 q 188 541 189 608 q 362 608 262 608 q 546 531 469 608 q 622 347 622 455 l 622 -217 z "},"ί":{"ha":694,"x_min":174,"x_max":652,"o":"m 260 738 q 217 694 260 694 q 174 738 174 694 l 174 854 q 217 897 174 897 q 260 854 260 897 l 260 738 m 652 131 q 642 104 652 119 q 551 28 612 57 q 434 0 493 0 q 250 76 326 0 q 174 260 174 153 l 174 564 q 217 608 174 608 q 260 564 260 608 l 260 260 q 311 138 260 189 q 434 87 362 87 q 547 130 497 87 q 606 174 596 174 q 638 161 624 174 q 652 131 652 148 z "},"ΰ":{"ha":694,"x_min":72,"x_max":622,"o":"m 586 760 q 567 714 586 733 q 521 694 547 694 q 475 714 494 694 q 456 760 456 733 q 475 806 456 787 q 521 825 494 825 q 567 806 547 825 q 586 760 586 787 m 391 709 q 347 666 391 666 q 304 709 304 666 l 304 825 q 347 868 304 868 q 391 825 391 868 l 391 709 m 239 760 q 220 714 239 733 q 174 694 200 694 q 128 714 146 694 q 109 760 109 733 q 128 806 109 787 q 174 825 146 825 q 220 806 200 825 q 239 760 239 787 m 622 275 q 542 80 622 161 q 347 0 461 0 q 153 80 233 0 q 72 275 72 161 l 72 564 q 116 608 72 608 q 159 564 159 608 l 159 275 q 214 142 159 197 q 347 87 270 87 q 480 142 425 87 q 535 275 535 197 l 535 333 q 480 466 535 410 q 347 521 425 521 q 304 564 304 521 q 347 608 304 608 q 542 527 461 608 q 622 333 622 447 l 622 275 z "},"α":{"ha":694,"x_min":43,"x_max":651,"o":"m 651 43 q 608 0 651 0 q 564 43 564 0 q 541 199 564 120 q 295 0 420 0 q 110 98 183 0 q 43 304 43 188 q 110 509 43 420 q 295 608 183 608 q 541 409 420 608 q 564 564 564 487 q 608 608 564 608 q 651 564 651 608 q 595 304 651 438 q 651 43 651 170 m 501 304 q 414 435 468 371 q 295 521 344 521 q 172 447 220 521 q 130 304 130 383 q 172 160 130 225 q 295 87 220 87 q 414 172 344 87 q 501 304 468 237 z "},"β":{"ha":694,"x_min":101,"x_max":651,"o":"m 651 239 q 564 65 651 134 q 376 0 483 0 q 188 64 268 0 l 188 -217 q 145 -260 188 -260 q 101 -217 101 -260 l 101 630 q 188 803 101 734 q 376 868 269 868 q 564 803 483 868 q 651 630 651 734 q 534 434 651 505 q 651 239 651 363 m 564 239 q 502 351 564 307 q 376 391 447 391 q 333 434 333 391 q 376 477 333 477 q 503 517 448 477 q 564 630 564 561 q 502 741 564 697 q 376 781 447 781 q 250 741 306 781 q 188 630 188 697 l 188 239 q 250 127 188 171 q 376 87 306 87 q 502 127 447 87 q 564 239 564 171 z "},"γ":{"ha":694,"x_min":43,"x_max":651,"o":"m 651 564 q 638 534 651 550 q 600 491 626 520 q 391 43 391 251 l 391 -217 q 347 -260 391 -260 q 304 -217 304 -260 l 304 43 q 125 456 304 231 q 56 534 102 481 q 43 564 43 550 q 56 595 43 582 q 87 608 69 608 q 160 550 109 608 q 347 248 285 406 q 535 550 409 406 q 608 609 586 609 q 638 595 625 609 q 651 564 651 582 z "},"δ":{"ha":694,"x_min":43,"x_max":651,"o":"m 651 304 q 562 89 651 178 q 347 0 473 0 q 133 89 222 0 q 43 304 43 178 q 91 466 43 392 q 218 579 138 541 q 174 694 174 628 q 225 817 174 766 q 347 868 275 868 q 498 781 448 868 q 504 758 504 770 q 490 728 504 741 q 459 715 476 715 q 414 748 442 715 q 347 781 387 781 q 286 756 311 781 q 260 694 260 730 q 286 633 260 659 q 347 608 311 608 q 562 519 473 608 q 651 304 651 429 m 564 304 q 501 457 564 394 q 347 521 437 521 q 194 457 258 521 q 130 304 130 394 q 194 150 130 214 q 347 87 258 87 q 501 150 437 87 q 564 304 564 214 z "},"ε":{"ha":694,"x_min":43,"x_max":652,"o":"m 652 174 q 643 148 652 162 q 504 38 598 79 q 329 0 419 0 q 148 38 230 0 q 43 174 43 87 q 137 304 43 255 q 43 434 43 353 q 148 569 43 521 q 329 608 230 608 q 504 570 419 608 q 643 459 598 529 q 652 433 652 446 q 638 403 652 416 q 606 390 624 390 q 572 409 589 390 q 538 447 561 422 q 329 521 456 521 q 144 461 194 521 q 130 434 130 446 q 144 407 130 422 q 329 347 194 347 q 372 304 372 347 q 329 260 372 260 q 144 200 194 260 q 130 174 130 185 q 144 147 130 162 q 329 87 194 87 q 538 161 456 87 q 572 199 541 163 q 606 218 589 218 q 638 205 624 218 q 652 174 652 192 z "},"ζ":{"ha":694,"x_min":43,"x_max":651,"o":"m 651 825 q 608 781 651 781 q 411 751 503 781 q 219 634 296 712 q 130 434 130 545 l 130 304 q 185 180 130 236 q 303 108 233 132 q 434 87 365 87 q 580 42 516 87 q 651 -87 651 -8 q 580 -216 651 -166 q 434 -260 516 -260 q 334 -241 388 -260 q 267 -180 267 -217 q 280 -149 267 -163 q 311 -135 293 -135 q 359 -154 318 -135 q 434 -174 399 -174 q 517 -153 479 -174 q 564 -87 564 -128 q 517 -21 564 -46 q 434 0 479 0 q 174 78 288 0 q 43 304 43 165 l 43 434 q 108 637 43 543 q 269 781 167 723 l 87 781 q 43 825 43 781 q 87 868 43 868 l 608 868 q 651 825 651 868 z "},"η":{"ha":694,"x_min":101,"x_max":622,"o":"m 622 -217 q 579 -260 622 -260 q 535 -217 535 -260 l 535 347 q 484 470 535 419 q 362 521 433 521 q 239 470 290 521 q 188 347 188 419 l 188 43 q 145 0 188 0 q 101 43 101 0 l 101 564 q 145 608 101 608 q 188 541 189 608 q 362 608 262 608 q 546 531 469 608 q 622 347 622 455 l 622 -217 z "},"θ":{"ha":694,"x_min":101,"x_max":593,"o":"m 593 434 q 541 163 593 288 q 347 0 472 0 q 154 163 223 0 q 101 434 101 288 q 154 705 101 580 q 347 868 223 868 q 541 705 472 868 q 593 434 593 580 m 505 477 q 400 758 494 680 q 347 781 373 781 q 258 715 300 781 q 210 606 227 667 q 189 477 193 546 l 505 477 m 505 391 l 189 391 q 210 262 193 322 q 258 153 227 201 q 347 87 300 87 q 400 110 373 87 q 505 391 494 188 z "},"ι":{"ha":694,"x_min":174,"x_max":652,"o":"m 652 131 q 642 104 652 119 q 551 28 612 57 q 434 0 493 0 q 250 76 326 0 q 174 260 174 153 l 174 564 q 217 608 174 608 q 260 564 260 608 l 260 260 q 311 138 260 189 q 434 87 362 87 q 547 130 497 87 q 606 174 596 174 q 638 161 624 174 q 652 131 652 148 z "},"κ":{"ha":694,"x_min":43,"x_max":652,"o":"m 652 564 q 638 534 652 550 q 535 296 535 410 q 564 175 535 231 q 638 74 586 135 q 652 44 652 58 q 638 13 652 26 q 607 -1 625 -1 q 577 13 592 -1 q 485 145 519 65 q 451 303 451 224 q 453 348 451 326 l 117 13 q 87 -1 104 -1 q 56 13 69 -1 q 43 44 43 26 q 56 74 43 58 q 130 175 109 134 q 159 296 159 230 q 56 534 159 411 q 43 564 43 550 q 56 595 43 582 q 87 608 69 608 q 159 545 113 608 q 246 296 246 422 q 244 262 246 279 l 575 593 q 607 608 590 608 q 638 595 625 608 q 652 564 652 582 z "},"λ":{"ha":694,"x_min":43,"x_max":652,"o":"m 652 43 q 638 12 652 25 q 606 -1 624 -1 q 572 19 585 -1 l 347 356 l 123 19 q 88 -1 109 -1 q 57 12 71 -1 q 43 43 43 25 q 51 68 43 56 l 295 434 l 51 800 q 43 825 43 813 q 57 856 43 843 q 88 869 71 869 q 123 849 109 869 l 644 68 q 652 43 652 56 z "},"μ":{"ha":694,"x_min":101,"x_max":593,"o":"m 593 43 q 550 0 593 0 q 506 58 506 0 q 347 0 438 0 q 188 58 257 0 l 188 -217 q 145 -260 188 -260 q 101 -217 101 -260 l 101 564 q 145 608 101 608 q 188 564 188 608 l 188 246 q 235 133 188 180 q 347 87 281 87 q 459 133 413 87 q 506 245 506 180 l 506 564 q 550 608 506 608 q 593 564 593 608 l 593 43 z "},"ν":{"ha":694,"x_min":43,"x_max":651,"o":"m 651 482 q 443 28 651 352 q 402 -1 425 -1 q 361 28 377 -1 l 50 542 q 43 565 43 553 q 57 595 43 583 q 88 608 71 608 q 124 587 111 608 l 402 127 q 564 482 564 395 q 514 521 564 516 q 463 564 463 525 q 509 608 463 608 q 610 577 572 608 q 651 482 651 543 z "},"ξ":{"ha":694,"x_min":43,"x_max":651,"o":"m 651 825 q 608 781 651 781 l 434 781 q 293 744 358 781 q 217 629 217 700 q 292 515 217 559 q 432 477 356 477 q 479 434 479 477 q 433 391 479 391 l 347 391 q 207 353 271 391 q 131 239 131 309 q 175 149 131 189 q 265 98 212 114 q 434 87 306 87 q 580 42 516 87 q 651 -87 651 -8 q 565 -213 651 -159 q 412 -260 489 -260 q 329 -239 374 -260 q 276 -179 276 -214 q 290 -148 276 -162 q 321 -135 303 -135 q 359 -154 333 -135 q 412 -174 384 -174 q 464 -165 436 -174 q 524 -135 492 -156 q 564 -87 564 -109 q 517 -21 564 -46 q 434 0 479 0 l 378 -1 q 344 0 359 -1 q 143 63 228 5 q 45 239 45 130 q 98 375 45 315 q 224 457 147 429 q 130 629 130 524 q 199 781 130 716 l 87 781 q 43 825 43 781 q 87 868 43 868 l 608 868 q 651 825 651 868 z "},"ο":{"ha":694,"x_min":43,"x_max":651,"o":"m 651 304 q 562 89 651 178 q 347 0 473 0 q 133 89 222 0 q 43 304 43 178 q 133 519 43 429 q 347 608 222 608 q 562 519 473 608 q 651 304 651 429 m 564 304 q 501 457 564 394 q 347 521 437 521 q 194 457 258 521 q 130 304 130 394 q 194 150 130 214 q 347 87 258 87 q 501 150 437 87 q 564 304 564 214 z "},"π":{"ha":694,"x_min":101,"x_max":593,"o":"m 593 52 q 550 9 593 9 q 506 52 506 9 l 506 521 l 188 521 l 188 43 q 145 0 188 0 q 101 43 101 0 l 101 564 q 114 595 101 582 q 145 608 127 608 l 550 608 q 593 565 593 608 l 593 52 z "},"ρ":{"ha":694,"x_min":43,"x_max":651,"o":"m 651 304 q 604 141 651 216 q 477 29 556 67 q 521 -87 521 -20 q 470 -209 521 -159 q 347 -260 419 -260 q 197 -173 247 -260 q 190 -150 190 -162 q 204 -120 190 -133 q 236 -108 218 -108 q 280 -141 253 -108 q 347 -174 308 -174 q 409 -148 383 -174 q 434 -87 434 -123 q 409 -25 434 -51 q 347 0 383 0 q 133 89 222 0 q 43 304 43 178 q 133 519 43 429 q 347 608 222 608 q 562 519 473 608 q 651 304 651 429 m 564 304 q 501 457 564 394 q 347 521 437 521 q 194 457 258 521 q 130 304 130 394 q 194 150 130 214 q 347 87 258 87 q 501 150 437 87 q 564 304 564 214 z "},"ς":{"ha":694,"x_min":43,"x_max":652,"o":"m 652 489 q 638 457 652 471 q 608 444 625 444 q 579 455 595 444 q 392 521 486 521 q 215 463 292 521 q 130 304 130 400 q 215 145 130 208 q 392 87 292 87 q 527 39 469 87 q 588 -87 588 -11 q 527 -213 588 -163 q 392 -260 469 -260 q 223 -176 278 -260 q 215 -151 215 -163 q 229 -120 215 -133 q 261 -108 243 -108 q 308 -141 274 -108 q 392 -174 343 -174 q 465 -151 432 -174 q 501 -87 501 -126 q 465 -23 501 -48 q 392 0 432 0 q 153 83 256 0 q 43 304 43 171 q 153 525 43 437 q 392 608 256 608 q 522 586 455 608 q 636 521 595 561 q 652 489 652 505 z "},"σ":{"ha":694,"x_min":43,"x_max":651,"o":"m 651 564 q 608 521 651 521 l 497 521 q 576 304 576 431 q 504 95 576 185 q 310 0 427 0 q 116 95 194 0 q 43 304 43 185 q 116 512 43 423 q 310 608 194 608 l 608 608 q 651 564 651 608 m 490 304 q 442 450 490 387 q 310 521 390 521 q 178 450 230 521 q 130 304 130 387 q 178 157 130 221 q 310 87 230 87 q 442 157 390 87 q 490 304 490 221 z "},"τ":{"ha":694,"x_min":43,"x_max":651,"o":"m 651 564 q 608 521 651 521 l 391 521 l 391 174 q 416 112 391 138 q 477 87 442 87 q 521 43 521 87 q 477 0 521 0 q 355 51 406 0 q 304 174 304 102 l 304 521 l 87 521 q 43 564 43 521 q 87 608 43 608 l 608 608 q 651 564 651 608 z "},"υ":{"ha":694,"x_min":72,"x_max":622,"o":"m 622 275 q 542 80 622 161 q 347 0 461 0 q 153 80 233 0 q 72 275 72 161 l 72 564 q 116 608 72 608 q 159 564 159 608 l 159 275 q 214 142 159 197 q 347 87 270 87 q 480 142 425 87 q 535 275 535 197 l 535 333 q 480 466 535 410 q 347 521 425 521 q 304 564 304 521 q 347 608 304 608 q 542 527 461 608 q 622 333 622 447 l 622 275 z "},"φ":{"ha":694,"x_min":43,"x_max":651,"o":"m 651 391 q 586 149 651 258 q 391 4 513 25 l 391 -217 q 347 -260 391 -260 q 304 -217 304 -260 l 304 4 q 108 149 182 25 q 43 391 43 258 q 88 536 43 473 q 217 608 138 608 q 260 564 260 608 q 217 521 260 521 q 151 474 177 521 q 130 391 130 435 q 172 212 130 294 q 304 93 220 119 l 304 391 q 348 536 304 473 q 477 608 399 608 q 606 536 556 608 q 651 391 651 473 m 564 391 q 543 474 564 435 q 477 521 518 521 q 411 474 437 521 q 391 391 391 435 l 391 93 q 523 212 475 119 q 564 391 564 294 z "},"χ":{"ha":694,"x_min":43,"x_max":652,"o":"m 652 -218 q 638 -248 652 -235 q 606 -261 624 -261 q 572 -241 585 -261 l 347 95 l 123 -241 q 88 -261 109 -261 q 57 -248 71 -261 q 43 -218 43 -235 q 51 -193 43 -205 l 295 174 l 51 540 q 43 565 43 552 q 57 595 43 582 q 88 608 71 608 q 123 589 109 608 l 347 252 l 572 589 q 606 608 585 608 q 638 595 624 608 q 652 565 652 582 q 644 540 652 552 l 399 174 l 644 -193 q 652 -218 652 -205 z "},"ψ":{"ha":694,"x_min":43,"x_max":651,"o":"m 651 564 q 617 222 651 337 q 391 3 558 24 l 391 -217 q 347 -260 391 -260 q 304 -217 304 -260 l 304 3 q 78 222 136 24 q 43 564 43 337 q 87 608 43 608 q 127 578 120 608 q 130 521 130 568 q 153 269 130 358 q 304 91 193 115 l 304 825 q 347 868 304 868 q 391 825 391 868 l 391 91 q 546 289 509 116 q 564 564 564 374 q 608 608 564 608 q 651 564 651 608 z "},"ω":{"ha":694,"x_min":43,"x_max":651,"o":"m 651 304 q 614 113 651 200 q 477 0 566 0 q 347 99 396 0 q 217 0 299 0 q 80 113 128 0 q 43 304 43 200 q 80 494 43 407 q 217 608 128 608 q 260 564 260 608 q 217 521 260 521 q 189 505 205 521 q 130 304 130 446 q 189 102 130 161 q 217 87 205 87 q 245 102 229 87 q 304 304 304 161 q 347 347 304 347 q 391 304 391 347 q 450 102 391 161 q 477 87 466 87 q 505 102 489 87 q 564 304 564 161 q 505 505 564 446 q 477 521 489 521 q 434 564 434 521 q 477 608 434 608 q 614 494 566 608 q 651 304 651 407 z "},"ϊ":{"ha":694,"x_min":43,"x_max":652,"o":"m 434 760 q 415 714 434 733 q 369 694 396 694 q 323 714 341 694 q 304 760 304 733 q 323 806 304 787 q 369 825 341 825 q 415 806 396 825 q 434 760 434 787 m 174 760 q 155 714 174 733 q 108 694 135 694 q 62 714 81 694 q 43 760 43 733 q 62 806 43 787 q 108 825 81 825 q 155 806 135 825 q 174 760 174 787 m 652 105 q 638 75 652 91 q 554 20 609 41 q 456 0 504 0 q 272 76 348 0 q 196 260 196 153 l 196 564 q 239 608 196 608 q 282 564 282 608 l 282 260 q 333 138 282 189 q 456 87 384 87 q 552 118 505 87 q 607 150 599 150 q 638 136 625 150 q 652 105 652 123 z "},"ϋ":{"ha":694,"x_min":72,"x_max":622,"o":"m 543 760 q 524 714 543 733 q 477 694 505 694 q 431 714 450 694 q 413 760 413 733 q 431 806 413 787 q 477 825 450 825 q 524 806 505 825 q 543 760 543 787 m 282 760 q 263 714 282 733 q 217 694 244 694 q 171 714 190 694 q 152 760 152 733 q 171 806 152 787 q 217 825 190 825 q 263 806 244 825 q 282 760 282 787 m 622 275 q 542 80 622 161 q 347 0 461 0 q 153 80 233 0 q 72 275 72 161 l 72 564 q 116 608 72 608 q 159 564 159 608 l 159 275 q 214 142 159 197 q 347 87 270 87 q 480 142 425 87 q 535 275 535 197 l 535 333 q 480 466 535 410 q 347 521 425 521 q 304 564 304 521 q 347 608 304 608 q 542 527 461 608 q 622 333 622 447 l 622 275 z "},"ό":{"ha":694,"x_min":43,"x_max":651,"o":"m 391 738 q 347 694 391 694 q 304 738 304 694 l 304 854 q 347 897 304 897 q 391 854 391 897 l 391 738 m 651 304 q 562 89 651 178 q 347 0 473 0 q 133 89 222 0 q 43 304 43 178 q 133 519 43 429 q 347 608 222 608 q 562 519 473 608 q 651 304 651 429 m 564 304 q 501 457 564 394 q 347 521 437 521 q 194 457 258 521 q 130 304 130 394 q 194 150 130 214 q 347 87 258 87 q 501 150 437 87 q 564 304 564 214 z "},"ύ":{"ha":694,"x_min":72,"x_max":622,"o":"m 391 747 q 347 704 391 704 q 304 747 304 704 l 304 863 q 347 906 304 906 q 391 863 391 906 l 391 747 m 622 275 q 542 80 622 161 q 347 0 461 0 q 153 80 233 0 q 72 275 72 161 l 72 564 q 116 608 72 608 q 159 564 159 608 l 159 275 q 214 142 159 197 q 347 87 270 87 q 480 142 425 87 q 535 275 535 197 l 535 333 q 480 466 535 410 q 347 521 425 521 q 304 564 304 521 q 347 608 304 608 q 542 527 461 608 q 622 333 622 447 l 622 275 z "},"ώ":{"ha":694,"x_min":43,"x_max":651,"o":"m 391 738 q 347 694 391 694 q 304 738 304 694 l 304 854 q 347 897 304 897 q 391 854 391 897 l 391 738 m 651 304 q 614 113 651 200 q 477 0 566 0 q 347 99 396 0 q 217 0 299 0 q 80 113 128 0 q 43 304 43 200 q 80 494 43 407 q 217 608 128 608 q 260 564 260 608 q 217 521 260 521 q 189 505 205 521 q 130 304 130 446 q 189 102 130 161 q 217 87 205 87 q 245 102 229 87 q 304 304 304 161 q 347 347 304 347 q 391 304 391 347 q 450 102 391 161 q 477 87 466 87 q 505 102 489 87 q 564 304 564 161 q 505 505 564 446 q 477 521 489 521 q 434 564 434 521 q 477 608 434 608 q 614 494 566 608 q 651 304 651 407 z "}}}
